<svg xmlns="http://www.w3.org/2000/svg" xmlns:xlink="http://www.w3.org/1999/xlink" width="500" zoomAndPan="magnify" viewBox="0 0 375 374.999991" height="500" preserveAspectRatio="xMidYMid meet" version="1.0"><defs><clipPath id="4e2a9ae2f4"><path d="M 117.628906 108.847656 L 257 108.847656 L 257 249.097656 L 117.628906 249.097656 Z M 117.628906 108.847656 " clip-rule="nonzero"/></clipPath></defs><g clip-path="url(#4e2a9ae2f4)"><path fill="#000000" d="M 147.925781 181.148438 C 147.734375 181.148438 147.621094 181.054688 147.59375 180.863281 C 147.558594 180.089844 147.621094 179.324219 147.785156 178.566406 C 146.65625 177.234375 145.394531 176.042969 143.996094 174.996094 C 141.832031 177.996094 139.097656 178.53125 136.570312 178.53125 C 135.84375 178.53125 135.128906 178.484375 134.453125 178.441406 C 133.539062 178.359375 132.625 178.347656 131.710938 178.414062 C 131.566406 178.429688 131.457031 178.375 131.386719 178.246094 C 131.3125 178.121094 131.320312 178 131.410156 177.882812 C 133.207031 175.507812 137.28125 173.507812 142.570312 174.015625 C 139.605469 172.179688 136.402344 171.011719 132.953125 170.519531 C 129.355469 173.097656 125.609375 172.910156 122.597656 172.757812 C 121.140625 172.59375 119.691406 172.660156 118.257812 172.949219 C 118.105469 172.996094 117.984375 172.957031 117.890625 172.828125 C 117.800781 172.703125 117.796875 172.574219 117.886719 172.445312 C 118.628906 171.296875 119.5625 170.339844 120.691406 169.574219 C 121.820312 168.808594 123.054688 168.289062 124.394531 168.027344 C 125.894531 167.757812 127.386719 167.78125 128.875 168.097656 C 130.363281 168.414062 131.734375 168.996094 132.992188 169.851562 C 135.535156 170.222656 137.972656 170.945312 140.308594 172.015625 C 136.984375 167.070312 137.464844 164.378906 138.511719 160.554688 C 138.554688 160.394531 138.660156 160.3125 138.828125 160.3125 C 138.992188 160.3125 139.101562 160.390625 139.148438 160.550781 C 139.472656 161.527344 139.882812 162.46875 140.371094 163.375 C 141.628906 165.878906 143.046875 168.714844 141.761719 172.761719 C 144.113281 174.070312 146.175781 175.734375 147.953125 177.753906 C 148.152344 176.84375 148.460938 175.972656 148.878906 175.144531 C 148.644531 174.128906 148.613281 173.109375 148.78125 172.085938 C 149.292969 168.765625 151.859375 165.179688 156.289062 165.144531 L 156.375 165.144531 C 161.164062 165.144531 164.28125 168.597656 167.296875 171.941406 C 168.335938 173.089844 169.316406 174.175781 170.355469 175.121094 C 170.625 175.363281 170.890625 175.59375 171.15625 175.816406 C 176.820312 177.011719 184.714844 169.757812 188.273438 153.910156 C 189.085938 150.285156 192.078125 146.375 195.863281 141.425781 C 201.554688 133.984375 208.640625 124.722656 211.933594 111.65625 C 212.351562 109.992188 212.859375 109.066406 213.433594 108.914062 C 213.722656 108.839844 213.964844 108.917969 214.164062 109.140625 C 215.078125 110.085938 215.449219 114.5 213.816406 121.386719 C 214.859375 120.183594 216.230469 119.050781 217.085938 119.367188 C 217.988281 119.703125 217.722656 121.21875 217.636719 121.714844 C 217.140625 124.648438 216.417969 127.523438 215.460938 130.339844 C 216.679688 129.058594 218.148438 128.148438 219.070312 128.472656 C 219.785156 128.726562 220.046875 129.546875 219.847656 130.914062 C 219.445312 133.765625 218.566406 136.457031 217.203125 138.992188 C 217.523438 138.769531 217.875 138.636719 218.261719 138.59375 C 218.648438 138.550781 219.023438 138.601562 219.382812 138.746094 C 219.984375 139.085938 220.539062 139.996094 219.746094 142.417969 C 219.160156 144.050781 218.484375 145.648438 217.714844 147.203125 C 220.179688 145.882812 222.453125 144.289062 224.53125 142.414062 C 225.433594 141.546875 226.226562 141.191406 226.832031 141.375 C 227.261719 141.527344 227.507812 141.828125 227.566406 142.28125 C 227.636719 142.738281 227.613281 143.191406 227.492188 143.640625 L 227.546875 143.609375 C 234.703125 139.597656 244.507812 134.105469 250.175781 124.886719 C 252.207031 121.578125 253.054688 121.238281 253.503906 121.269531 C 253.8125 121.292969 254.015625 121.449219 254.121094 121.738281 C 254.714844 123.070312 253.355469 128.078125 251.4375 131.5625 C 253.34375 130.125 254.867188 129.597656 255.664062 130.144531 C 256.082031 130.433594 256.445312 131.113281 255.804688 132.710938 C 254.890625 134.757812 253.769531 136.683594 252.445312 138.488281 C 254.902344 137.730469 256.210938 137.539062 256.75 138.230469 C 257.230469 138.847656 256.902344 139.960938 255.652344 141.957031 C 253.960938 144.421875 252 146.652344 249.769531 148.648438 C 251.945312 147.882812 254.550781 147.261719 255.355469 148.3125 C 255.875 148.988281 255.535156 150.082031 254.324219 151.664062 C 253.085938 153.183594 251.683594 154.535156 250.117188 155.714844 C 250.933594 155.59375 251.65625 155.800781 252.285156 156.332031 C 252.953125 157.113281 252.484375 158.335938 250.890625 159.96875 C 248.667969 162.296875 246.167969 164.265625 243.386719 165.882812 C 245.296875 165.835938 247.34375 166.34375 247.851562 167.335938 C 248.0625 167.753906 248.117188 168.417969 247.164062 169.230469 C 245.96875 170.246094 242.257812 173.015625 235.257812 175.210938 C 237.015625 175.613281 238.863281 176.65625 239.273438 177.824219 C 239.425781 178.253906 239.515625 179.089844 238.421875 179.863281 C 236.710938 181.078125 234.378906 182.28125 230.085938 182.816406 C 231.429688 183.332031 233 184.175781 233.199219 185.167969 C 233.238281 185.433594 233.199219 185.6875 233.074219 185.925781 C 232.953125 186.167969 232.769531 186.347656 232.527344 186.46875 C 230.675781 187.738281 228.625 188.320312 226.382812 188.207031 C 225.976562 188.207031 225.550781 188.195312 225.097656 188.167969 C 225.613281 188.832031 225.886719 189.582031 225.925781 190.421875 C 225.910156 191.046875 225.664062 191.570312 225.191406 191.984375 C 224.320312 192.722656 223.316406 193.054688 222.175781 192.976562 C 221.25 192.957031 220.335938 192.84375 219.433594 192.632812 C 219.699219 193.203125 219.808594 193.800781 219.757812 194.425781 C 219.707031 195.054688 219.507812 195.628906 219.15625 196.152344 C 218.207031 197.5 216.199219 198.246094 213.953125 198.121094 C 214.023438 198.503906 213.996094 198.882812 213.875 199.253906 C 213.753906 199.625 213.550781 199.945312 213.265625 200.214844 C 212.253906 201.160156 210.308594 201.335938 208.09375 200.726562 C 208.339844 201.386719 208.269531 202.011719 207.875 202.597656 C 207.28125 203.375 205.953125 203.640625 203.730469 203.421875 C 204.585938 204.652344 204.785156 205.605469 204.316406 206.25 C 203.8125 206.800781 203.1875 207.035156 202.441406 206.953125 C 201.777344 206.941406 201.125 206.847656 200.484375 206.671875 C 212.398438 220.222656 221.601562 243.972656 221.1875 247.414062 C 221.1875 247.667969 221.074219 247.859375 220.851562 247.984375 C 218.914062 248.902344 213.550781 240.011719 209.0625 231.730469 C 209.65625 236.320312 210.917969 247.914062 208.5625 248.339844 C 206.609375 248.691406 205.617188 244.011719 204.167969 236.339844 C 204.015625 235.550781 203.867188 234.746094 203.710938 233.953125 C 203.203125 238.75 201.597656 247.300781 200.125 248.789062 C 199.960938 248.972656 199.757812 249.074219 199.507812 249.082031 C 199.269531 249.085938 199.074219 248.996094 198.925781 248.8125 C 197.703125 247.523438 197.832031 240.484375 198.152344 233.394531 C 196.195312 238.019531 191.675781 245.886719 189.875 246.683594 C 189.65625 246.800781 189.4375 246.808594 189.214844 246.707031 C 187.464844 245.847656 190.226562 236.527344 192.140625 231.324219 C 189.316406 234.261719 183.917969 238.726562 182.304688 238.90625 C 182.105469 238.941406 181.925781 238.894531 181.761719 238.773438 C 180.429688 237.660156 184.636719 231.695312 187.328125 228.15625 C 184.417969 229.648438 178.941406 232.121094 178.160156 231.03125 C 178.03125 230.835938 177.992188 230.625 178.050781 230.398438 C 178.347656 228.730469 182.339844 224.542969 189.425781 219.644531 C 188.019531 219.59375 186.664062 219.605469 185.414062 219.613281 C 184.285156 219.621094 183.210938 219.628906 182.285156 219.589844 C 180.828125 220.371094 179.277344 220.800781 177.628906 220.871094 C 176.867188 220.875 176.144531 220.71875 175.453125 220.402344 C 174.527344 220.042969 173.480469 219.53125 172.378906 219 C 170.789062 218.171875 169.148438 217.476562 167.449219 216.914062 C 166.941406 217.496094 166.609375 218.164062 166.449219 218.917969 C 166.292969 219.671875 166.324219 220.417969 166.554688 221.152344 C 166.589844 221.238281 166.589844 221.324219 166.554688 221.40625 C 166.519531 221.492188 166.457031 221.550781 166.371094 221.585938 C 166.332031 221.601562 166.289062 221.609375 166.246094 221.609375 C 166.097656 221.613281 165.996094 221.542969 165.9375 221.40625 C 165.679688 220.609375 165.617188 219.800781 165.753906 218.976562 C 165.890625 218.152344 166.210938 217.40625 166.714844 216.738281 C 166.09375 216.574219 165.496094 216.621094 164.910156 216.886719 C 164.457031 217.148438 164.105469 217.511719 163.855469 217.972656 C 163.605469 218.429688 163.492188 218.921875 163.515625 219.445312 C 163.511719 219.539062 163.476562 219.617188 163.410156 219.679688 C 163.34375 219.742188 163.265625 219.773438 163.175781 219.769531 C 163.082031 219.769531 163.003906 219.734375 162.941406 219.667969 C 162.878906 219.601562 162.847656 219.523438 162.847656 219.429688 C 162.828125 218.792969 162.976562 218.191406 163.285156 217.632812 C 163.59375 217.074219 164.023438 216.632812 164.578125 216.308594 C 166.292969 215.316406 169.535156 216.882812 172.667969 218.402344 C 173.324219 218.71875 173.960938 219.027344 174.5625 219.300781 C 174.242188 218.765625 173.992188 218.199219 173.816406 217.601562 C 172.976562 216.957031 172.089844 216.402344 171.148438 215.925781 C 169.410156 215.0625 167.851562 213.945312 166.472656 212.578125 C 165.480469 212.324219 164.511719 211.996094 163.570312 211.585938 C 163.011719 211.363281 162.429688 211.132812 161.871094 210.9375 C 160.828125 211.242188 160.363281 212.328125 160.488281 214.164062 C 160.492188 214.257812 160.464844 214.335938 160.40625 214.40625 C 160.34375 214.476562 160.269531 214.511719 160.175781 214.519531 C 160.085938 214.523438 160.007812 214.496094 159.9375 214.4375 C 159.867188 214.375 159.832031 214.300781 159.824219 214.210938 C 159.6875 212.179688 160.253906 211.15625 160.957031 210.648438 C 160.386719 210.445312 159.804688 210.398438 159.207031 210.515625 C 158.878906 210.660156 158.601562 210.875 158.375 211.15625 C 158.152344 211.441406 158.007812 211.761719 157.945312 212.117188 C 157.707031 212.832031 157.78125 213.515625 158.175781 214.160156 C 158.238281 214.226562 158.265625 214.308594 158.261719 214.398438 C 158.257812 214.492188 158.21875 214.570312 158.152344 214.628906 C 158.089844 214.6875 158.015625 214.714844 157.929688 214.714844 C 157.832031 214.71875 157.75 214.679688 157.683594 214.609375 C 157.414062 214.21875 157.246094 213.789062 157.179688 213.324219 C 157.113281 212.855469 157.152344 212.398438 157.300781 211.949219 C 157.390625 211.484375 157.585938 211.070312 157.886719 210.703125 C 158.1875 210.335938 158.558594 210.066406 158.996094 209.886719 C 160.128906 209.503906 162.003906 210.25 163.816406 210.96875 C 164.457031 211.222656 165.078125 211.472656 165.644531 211.660156 C 163.824219 209.488281 161.945312 206.1875 160.128906 200.792969 C 159.8125 200.746094 159.53125 200.628906 159.277344 200.4375 C 158.066406 199.59375 156.625 197.378906 156.324219 194.503906 C 156.210938 192.617188 156.308594 190.746094 156.617188 188.882812 C 157.054688 185.429688 157.46875 182.164062 155.390625 179.613281 C 154.417969 179.636719 153.46875 179.496094 152.546875 179.183594 C 152.390625 179.132812 152.238281 179.074219 152.085938 179.011719 C 151.503906 179.601562 150.820312 180.019531 150.027344 180.265625 C 153.601562 185.042969 156.589844 198.574219 148.324219 211.828125 C 148.257812 211.933594 148.164062 211.984375 148.039062 211.984375 C 147.976562 211.984375 147.917969 211.964844 147.863281 211.933594 C 147.785156 211.886719 147.738281 211.816406 147.714844 211.726562 C 147.695312 211.636719 147.710938 211.554688 147.757812 211.476562 C 155.953125 198.339844 152.90625 184.984375 149.378906 180.507812 C 148.9375 180.636719 148.527344 180.828125 148.144531 181.082031 C 148.078125 181.132812 148.007812 181.152344 147.925781 181.148438 Z M 132.65625 177.699219 C 133.242188 177.699219 133.855469 177.738281 134.496094 177.777344 C 137.445312 177.960938 140.777344 178.167969 143.335938 174.769531 C 137.785156 173.964844 134.105469 176.003906 132.441406 177.699219 C 132.515625 177.699219 132.585938 177.699219 132.65625 177.699219 Z M 138.878906 161.761719 C 138.042969 165.09375 137.980469 167.582031 141.238281 172.1875 C 142.25 168.597656 140.992188 166.09375 139.777344 163.667969 C 139.453125 163.015625 139.136719 162.390625 138.878906 161.761719 Z M 148.472656 178.507812 C 148.472656 178.527344 148.46875 178.546875 148.460938 178.566406 C 148.351562 179.117188 148.28125 179.667969 148.242188 180.226562 C 148.535156 180.089844 148.882812 179.964844 149.257812 179.824219 L 149.347656 179.789062 C 149.363281 179.78125 149.382812 179.777344 149.398438 179.773438 C 150.160156 179.550781 150.851562 179.1875 151.46875 178.6875 C 150.40625 178.070312 149.644531 177.195312 149.183594 176.054688 C 148.867188 176.851562 148.632812 177.667969 148.476562 178.507812 Z M 120.597656 172.015625 C 121.25 172.015625 121.929688 172.050781 122.628906 172.082031 C 125.601562 172.234375 128.960938 172.402344 132.269531 170.171875 C 131.117188 169.449219 129.875 168.957031 128.539062 168.695312 C 127.203125 168.4375 125.863281 168.429688 124.523438 168.667969 C 123.414062 168.886719 122.378906 169.292969 121.417969 169.886719 C 120.457031 170.480469 119.628906 171.222656 118.941406 172.117188 C 119.492188 172.042969 120.042969 172.011719 120.601562 172.015625 Z M 216.421875 140.453125 C 215.613281 141.914062 214.621094 143.558594 213.394531 145.507812 C 213.34375 145.585938 213.277344 145.632812 213.1875 145.65625 C 213.097656 145.675781 213.015625 145.660156 212.9375 145.613281 C 212.859375 145.5625 212.8125 145.496094 212.789062 145.40625 C 212.769531 145.316406 212.78125 145.234375 212.832031 145.15625 C 217.605469 137.574219 218.617188 134.714844 219.1875 130.8125 C 219.269531 130.242188 219.335938 129.265625 218.851562 129.09375 C 218.0625 128.8125 215.917969 130.375 214.703125 132.414062 C 213.933594 134.390625 213.050781 136.3125 212.058594 138.1875 C 212.015625 138.265625 211.949219 138.320312 211.863281 138.347656 C 211.773438 138.375 211.691406 138.367188 211.609375 138.324219 C 211.527344 138.28125 211.472656 138.214844 211.445312 138.128906 C 211.417969 138.039062 211.429688 137.957031 211.472656 137.875 C 214.191406 132.746094 216.03125 127.320312 216.980469 121.59375 C 217.171875 120.507812 217.03125 120.046875 216.851562 119.980469 C 216.273438 119.769531 214.414062 121.421875 213.394531 123.035156 C 213.242188 123.605469 213.074219 124.191406 212.894531 124.789062 C 212.867188 124.878906 212.816406 124.945312 212.734375 124.988281 C 212.652344 125.03125 212.566406 125.039062 212.480469 125.011719 C 212.390625 124.988281 212.328125 124.933594 212.28125 124.851562 C 212.238281 124.769531 212.230469 124.6875 212.257812 124.597656 C 214.777344 116.226562 214.53125 110.46875 213.683594 109.59375 C 213.660156 109.570312 213.632812 109.542969 213.609375 109.546875 C 213.4375 109.59375 213.003906 110.125 212.578125 111.808594 C 209.253906 125.007812 202.121094 134.332031 196.390625 141.820312 C 192.65625 146.707031 189.703125 150.5625 188.921875 154.050781 C 185.539062 169.136719 178.167969 176.597656 172.347656 176.597656 C 172.28125 176.597656 172.222656 176.597656 172.160156 176.597656 C 174.796875 178.535156 177.308594 179.3125 179.949219 179.011719 C 181.914062 178.789062 182.59375 178.40625 184.242188 177.394531 C 186.066406 176.273438 187.753906 174.976562 189.304688 173.503906 C 190.859375 172.027344 192.246094 170.414062 193.460938 168.652344 C 194.679688 166.890625 195.703125 165.023438 196.53125 163.050781 C 197.359375 161.078125 197.976562 159.039062 198.378906 156.9375 C 198.71875 155.171875 199.074219 154.851562 199.378906 154.769531 C 199.625 154.707031 199.824219 154.777344 199.976562 154.980469 C 200.316406 155.371094 200.578125 156.46875 200.6875 157.90625 C 204.714844 153.945312 207.496094 152.328125 209.699219 151.273438 C 211.898438 150.214844 214.347656 149.039062 216.699219 147.761719 C 217.609375 145.957031 218.417969 144.105469 219.113281 142.210938 C 219.613281 140.675781 219.597656 139.625 219.058594 139.328125 C 218.464844 138.984375 217.238281 139.515625 216.421875 140.453125 Z M 209.171875 142.765625 C 209.292969 142.765625 209.386719 142.71875 209.453125 142.617188 C 209.664062 142.289062 209.875 141.960938 210.074219 141.636719 C 210.125 141.558594 210.136719 141.472656 210.117188 141.382812 C 210.097656 141.292969 210.046875 141.226562 209.96875 141.175781 C 209.890625 141.128906 209.808594 141.113281 209.71875 141.136719 C 209.628906 141.15625 209.558594 141.207031 209.511719 141.285156 C 209.3125 141.605469 209.105469 141.929688 208.894531 142.253906 C 208.820312 142.363281 208.816406 142.476562 208.878906 142.59375 C 208.941406 142.710938 209.039062 142.769531 209.171875 142.765625 Z M 209.597656 133.0625 C 209.742188 133.0625 209.84375 132.996094 209.902344 132.863281 C 210.554688 131.375 211.15625 129.878906 211.683594 128.414062 C 211.714844 128.328125 211.710938 128.246094 211.671875 128.164062 C 211.632812 128.078125 211.570312 128.023438 211.484375 127.992188 C 211.398438 127.960938 211.316406 127.964844 211.230469 128 C 211.148438 128.039062 211.089844 128.101562 211.058594 128.1875 C 210.53125 129.640625 209.9375 131.121094 209.289062 132.59375 C 209.25 132.679688 209.25 132.765625 209.28125 132.851562 C 209.316406 132.9375 209.375 132.996094 209.460938 133.035156 C 209.503906 133.050781 209.546875 133.058594 209.597656 133.058594 Z M 199.609375 205.695312 C 201.574219 206.414062 203.320312 206.480469 203.773438 205.851562 C 204.101562 205.390625 203.726562 204.421875 202.734375 203.203125 C 202.636719 203.085938 202.628906 202.960938 202.703125 202.828125 C 202.773438 202.695312 202.886719 202.640625 203.035156 202.664062 C 205.40625 202.984375 206.851562 202.820312 207.34375 202.183594 C 207.636719 201.800781 207.605469 201.175781 207.253906 200.332031 C 207.195312 200.199219 207.214844 200.082031 207.316406 199.976562 C 207.414062 199.871094 207.53125 199.839844 207.667969 199.890625 C 209.875 200.640625 211.890625 200.570312 212.804688 199.71875 C 213.054688 199.46875 213.214844 199.175781 213.289062 198.832031 C 213.363281 198.492188 213.335938 198.15625 213.214844 197.828125 C 213.183594 197.714844 213.203125 197.613281 213.28125 197.527344 C 213.355469 197.4375 213.453125 197.402344 213.566406 197.410156 C 215.753906 197.652344 217.730469 197.003906 218.605469 195.757812 C 219.230469 194.867188 219.234375 193.71875 218.617188 192.429688 C 217.703125 192.199219 216.6875 191.890625 215.554688 191.503906 C 215.46875 191.476562 215.402344 191.417969 215.363281 191.335938 C 215.324219 191.253906 215.316406 191.171875 215.347656 191.082031 C 215.375 190.996094 215.433594 190.933594 215.515625 190.894531 C 215.597656 190.851562 215.679688 190.847656 215.769531 190.875 C 220.695312 192.550781 223.378906 192.730469 224.734375 191.480469 C 225.066406 191.195312 225.242188 190.832031 225.25 190.390625 C 225.160156 189.5 224.804688 188.730469 224.1875 188.082031 C 223.097656 187.976562 221.867188 187.796875 220.476562 187.53125 C 220.386719 187.515625 220.316406 187.46875 220.261719 187.390625 C 220.210938 187.316406 220.195312 187.234375 220.210938 187.140625 C 220.230469 187.050781 220.273438 186.980469 220.351562 186.929688 C 220.425781 186.878906 220.511719 186.859375 220.601562 186.878906 C 227.914062 188.273438 230.3125 187.164062 232.144531 185.910156 C 232.601562 185.597656 232.554688 185.363281 232.542969 185.285156 C 232.371094 184.429688 229.933594 183.304688 228.398438 182.96875 C 227.339844 183.050781 226.175781 183.09375 224.894531 183.09375 C 223.851562 183.09375 222.730469 183.066406 221.523438 183.003906 C 221.433594 183 221.355469 182.964844 221.296875 182.894531 C 221.234375 182.828125 221.207031 182.75 221.210938 182.65625 C 221.214844 182.566406 221.25 182.488281 221.320312 182.429688 C 221.386719 182.367188 221.464844 182.339844 221.558594 182.34375 C 231.597656 182.855469 235.519531 181.097656 238.035156 179.3125 C 238.882812 178.710938 238.703125 178.203125 238.644531 178.035156 C 238.234375 176.859375 235.492188 175.601562 233.589844 175.695312 C 231.058594 176.394531 228.492188 176.929688 225.894531 177.3125 C 225.875 177.3125 225.859375 177.3125 225.84375 177.3125 C 225.753906 177.316406 225.671875 177.292969 225.601562 177.230469 C 225.535156 177.171875 225.496094 177.097656 225.488281 177.003906 C 225.484375 176.914062 225.507812 176.832031 225.570312 176.765625 C 225.628906 176.695312 225.703125 176.65625 225.796875 176.648438 C 238.835938 174.710938 245.117188 170.082031 246.734375 168.707031 C 247.234375 168.285156 247.410156 167.921875 247.257812 167.625 C 246.789062 166.71875 243.859375 166.234375 241.832031 166.726562 C 238.292969 168.511719 234.625 169.964844 230.824219 171.089844 C 230.792969 171.101562 230.757812 171.105469 230.726562 171.105469 C 230.640625 171.109375 230.5625 171.085938 230.5 171.03125 C 230.433594 170.976562 230.394531 170.910156 230.378906 170.824219 C 230.367188 170.742188 230.382812 170.664062 230.429688 170.59375 C 230.476562 170.523438 230.542969 170.476562 230.625 170.453125 C 241.503906 167.066406 246.261719 163.75 250.414062 159.492188 C 251.671875 158.207031 252.167969 157.207031 251.78125 156.757812 C 251.261719 156.152344 249.375 156.335938 248.816406 156.695312 C 248.109375 157.210938 247.355469 157.734375 246.550781 158.273438 C 246.496094 158.308594 246.4375 158.328125 246.367188 158.328125 C 246.203125 158.332031 246.09375 158.253906 246.046875 158.09375 C 245.996094 157.933594 246.042969 157.808594 246.183594 157.71875 C 249.777344 155.324219 252.339844 153.148438 253.792969 151.25 C 255.140625 149.496094 254.964844 148.886719 254.828125 148.707031 C 254.398438 148.148438 252.261719 148.289062 248.445312 149.859375 C 245.414062 152.578125 242.222656 155.089844 238.871094 157.394531 C 238.816406 157.433594 238.753906 157.453125 238.683594 157.453125 C 238.519531 157.457031 238.410156 157.378906 238.363281 157.21875 C 238.3125 157.0625 238.359375 156.9375 238.496094 156.847656 C 244.613281 152.667969 252.277344 146.089844 255.09375 141.59375 C 256.480469 139.382812 256.347656 138.785156 256.230469 138.632812 C 255.8125 138.097656 253.25 138.910156 251.792969 139.382812 C 250.84375 140.671875 249.757812 142.015625 248.566406 143.332031 C 248.503906 143.398438 248.429688 143.4375 248.335938 143.441406 C 248.246094 143.445312 248.164062 143.417969 248.097656 143.355469 C 248.027344 143.292969 247.992188 143.214844 247.988281 143.125 C 247.984375 143.03125 248.011719 142.953125 248.074219 142.886719 C 252.242188 138.277344 254.550781 134.046875 255.1875 132.453125 C 255.550781 131.550781 255.585938 130.890625 255.289062 130.683594 C 254.808594 130.355469 253.050781 130.828125 250.175781 133.484375 C 250.113281 133.550781 250.035156 133.585938 249.945312 133.589844 C 249.855469 133.59375 249.773438 133.566406 249.707031 133.503906 C 249.640625 133.441406 249.605469 133.363281 249.601562 133.273438 C 249.597656 133.183594 249.625 133.101562 249.6875 133.035156 C 252.050781 130.039062 253.886719 123.914062 253.570312 122.199219 C 253.53125 121.972656 253.464844 121.921875 253.464844 121.921875 C 253.464844 121.921875 252.839844 121.816406 250.746094 125.222656 C 244.988281 134.59375 235.097656 140.132812 227.875 144.179688 L 227.21875 144.546875 C 226.523438 146.253906 225.566406 147.800781 224.351562 149.1875 C 224.953125 149.214844 225.398438 149.492188 225.691406 150.011719 C 225.75 150.117188 225.800781 150.226562 225.839844 150.34375 C 230.058594 148.421875 234.023438 146.078125 237.734375 143.304688 C 237.804688 143.25 237.886719 143.226562 237.980469 143.242188 C 238.070312 143.253906 238.144531 143.296875 238.199219 143.367188 C 238.253906 143.441406 238.273438 143.523438 238.261719 143.613281 C 238.25 143.707031 238.207031 143.777344 238.132812 143.832031 C 234.339844 146.667969 230.285156 149.058594 225.972656 151.007812 C 226.078125 152.660156 224.847656 155.230469 221.679688 158.210938 C 222.132812 158.160156 222.5625 158.234375 222.972656 158.433594 C 223.382812 158.628906 223.707031 158.921875 223.949219 159.304688 C 224.355469 160.078125 224.679688 162.222656 219.535156 165.945312 C 219.9375 165.957031 220.300781 166.070312 220.636719 166.292969 C 220.96875 166.515625 221.214844 166.808594 221.378906 167.171875 C 221.671875 168.085938 221.175781 169.671875 217.34375 172.132812 C 217.675781 172.226562 217.96875 172.390625 218.21875 172.632812 C 218.46875 172.871094 218.648438 173.15625 218.757812 173.484375 C 218.953125 174.230469 218.714844 175.460938 216.46875 177.097656 C 216.394531 177.148438 216.3125 177.171875 216.21875 177.15625 C 216.128906 177.140625 216.054688 177.097656 216.003906 177.023438 C 215.949219 176.949219 215.929688 176.867188 215.941406 176.773438 C 215.957031 176.683594 216.003906 176.613281 216.078125 176.558594 C 217.570312 175.472656 218.3125 174.414062 218.117188 173.648438 C 217.972656 173.105469 217.332031 172.703125 216.449219 172.601562 C 216.289062 172.585938 216.191406 172.496094 216.15625 172.339844 C 216.125 172.183594 216.175781 172.066406 216.316406 171.984375 C 220.90625 169.203125 220.867188 167.753906 220.746094 167.375 C 220.566406 166.8125 219.691406 166.496094 218.550781 166.578125 C 218.382812 166.589844 218.269531 166.515625 218.210938 166.355469 C 218.15625 166.195312 218.195312 166.066406 218.339844 165.972656 C 222.882812 162.886719 223.914062 160.664062 223.363281 159.613281 C 222.984375 158.882812 221.796875 158.660156 220.664062 159.09375 C 220.488281 159.171875 220.347656 159.125 220.25 158.960938 C 220.152344 158.792969 220.175781 158.652344 220.328125 158.53125 C 225.347656 154.195312 225.65625 151.277344 225.117188 150.34375 C 224.96875 150.105469 224.761719 149.949219 224.492188 149.871094 C 224.226562 149.792969 223.96875 149.808594 223.714844 149.925781 C 222.707031 151.039062 221.628906 152.082031 220.484375 153.054688 C 220.414062 153.113281 220.335938 153.140625 220.242188 153.132812 C 220.152344 153.125 220.078125 153.085938 220.015625 153.019531 C 219.957031 152.949219 219.929688 152.867188 219.9375 152.777344 C 219.945312 152.683594 219.984375 152.609375 220.050781 152.550781 C 225.601562 147.796875 227.207031 143.804688 226.917969 142.40625 C 226.871094 142.179688 226.777344 142.042969 226.640625 142 C 226.375 141.921875 225.804688 142.105469 224.996094 142.882812 C 221.296875 146.4375 215.027344 149.445312 209.992188 151.863281 C 207.765625 152.933594 204.925781 154.589844 200.738281 158.789062 C 200.828125 161.207031 200.523438 163.574219 199.824219 165.894531 C 200.390625 165.425781 200.804688 164.851562 201.0625 164.164062 C 201.148438 163.914062 201.320312 163.78125 201.582031 163.757812 C 201.777344 163.757812 202.050781 163.871094 202.261719 164.398438 C 202.742188 165.601562 202.914062 169.640625 198.382812 174.34375 C 198.976562 174.257812 199.558594 174.125 200.136719 173.949219 C 200.285156 173.902344 200.433594 173.902344 200.582031 173.953125 C 200.730469 174 200.851562 174.089844 200.945312 174.214844 C 201.371094 174.785156 201.144531 175.933594 200.375 177.144531 C 200.324219 177.222656 200.257812 177.269531 200.167969 177.289062 C 200.078125 177.308594 199.992188 177.296875 199.914062 177.246094 C 199.839844 177.195312 199.789062 177.125 199.769531 177.035156 C 199.75 176.949219 199.765625 176.863281 199.816406 176.785156 C 200.585938 175.578125 200.550781 174.800781 200.410156 174.613281 C 200.390625 174.589844 200.378906 174.570312 200.316406 174.589844 C 199.410156 174.886719 198.476562 175.039062 197.523438 175.039062 C 197.375 175.03125 197.277344 174.960938 197.226562 174.824219 C 197.175781 174.6875 197.203125 174.566406 197.3125 174.46875 C 201.757812 170.195312 201.890625 166.59375 201.828125 165.59375 C 201.816406 165.242188 201.742188 164.898438 201.609375 164.570312 C 201.15625 165.675781 200.390625 166.484375 199.308594 166.992188 C 199.171875 167.0625 199.046875 167.042969 198.933594 166.9375 C 198.820312 166.828125 198.796875 166.703125 198.859375 166.5625 C 200.605469 162.453125 200.144531 156.300781 199.519531 155.457031 C 199.261719 155.960938 199.101562 156.492188 199.035156 157.050781 C 196.402344 170.867188 185.175781 179.824219 175.445312 181.535156 C 175.429688 181.539062 175.410156 181.539062 175.390625 181.539062 C 175.296875 181.546875 175.21875 181.523438 175.148438 181.464844 C 175.078125 181.40625 175.039062 181.332031 175.03125 181.238281 C 175.023438 181.148438 175.050781 181.066406 175.109375 180.996094 C 175.167969 180.925781 175.242188 180.886719 175.332031 180.878906 C 176.785156 180.617188 178.203125 180.222656 179.578125 179.691406 C 179.351562 179.707031 179.128906 179.710938 178.90625 179.710938 C 174.992188 179.710938 171.984375 177.476562 169.914062 175.597656 C 168.847656 174.632812 167.8125 173.484375 166.808594 172.371094 C 163.886719 169.136719 160.871094 165.792969 156.375 165.792969 L 156.296875 165.792969 C 152.257812 165.828125 149.910156 169.125 149.441406 172.171875 C 149.085938 174.492188 149.738281 177.546875 152.753906 178.527344 C 154.671875 179.148438 156.46875 179.046875 157.695312 178.238281 C 158.070312 178.007812 158.378906 177.703125 158.613281 177.332031 C 158.847656 176.957031 158.988281 176.550781 159.035156 176.113281 C 159.042969 176.023438 159.082031 175.945312 159.15625 175.890625 C 159.226562 175.832031 159.304688 175.804688 159.398438 175.816406 C 159.488281 175.824219 159.5625 175.863281 159.621094 175.9375 C 159.679688 176.007812 159.703125 176.085938 159.695312 176.179688 C 159.640625 176.71875 159.46875 177.21875 159.179688 177.675781 C 158.894531 178.136719 158.519531 178.511719 158.058594 178.796875 C 157.480469 179.171875 156.847656 179.410156 156.164062 179.511719 C 158.121094 182.234375 157.691406 185.644531 157.273438 188.945312 C 156.972656 190.757812 156.875 192.582031 156.980469 194.414062 C 157.277344 197.261719 158.742188 199.238281 159.65625 199.871094 C 159.832031 200.03125 160.039062 200.109375 160.277344 200.109375 C 160.78125 199.976562 160.953125 198.742188 161.117188 197.546875 C 161.296875 196.246094 161.5 194.769531 162.1875 193.773438 C 162.265625 193.652344 162.378906 193.605469 162.519531 193.628906 C 162.660156 193.652344 162.746094 193.734375 162.785156 193.871094 C 163.125 195.074219 164.042969 198.296875 164.84375 198.152344 C 165.308594 197.917969 165.882812 194.710938 166.160156 193.171875 C 166.289062 192.28125 166.480469 191.40625 166.730469 190.539062 C 166.78125 190.402344 166.882812 190.332031 167.027344 190.328125 C 167.167969 190.332031 167.273438 190.394531 167.339844 190.519531 C 167.648438 191.277344 168.191406 191.796875 168.960938 192.078125 C 169.203125 192.164062 169.4375 192.144531 169.664062 192.019531 C 169.695312 191.445312 169.628906 190.878906 169.476562 190.328125 C 169.339844 189.601562 169.167969 188.695312 169.070312 187.667969 C 169.058594 187.574219 169.085938 187.496094 169.144531 187.421875 C 169.203125 187.351562 169.277344 187.3125 169.371094 187.304688 C 169.460938 187.296875 169.542969 187.320312 169.613281 187.378906 C 169.683594 187.4375 169.722656 187.511719 169.730469 187.605469 C 169.824219 188.601562 169.996094 189.488281 170.128906 190.203125 C 170.378906 191.519531 170.515625 192.246094 170.039062 192.566406 C 169.640625 192.8125 169.222656 192.863281 168.78125 192.71875 C 168.101562 192.5 167.554688 192.097656 167.152344 191.507812 C 167.046875 191.996094 166.929688 192.632812 166.8125 193.289062 C 166.128906 197.089844 165.714844 198.695312 164.941406 198.8125 C 163.785156 198.972656 163.046875 197.125 162.371094 194.847656 C 162.066406 195.757812 161.867188 196.6875 161.773438 197.640625 C 161.589844 198.980469 161.425781 200.164062 160.765625 200.605469 C 164.441406 211.492188 168.171875 213.527344 171.460938 215.324219 C 172.175781 215.699219 172.867188 216.105469 173.535156 216.550781 C 173.371094 215.773438 173.246094 214.988281 173.171875 214.195312 C 173.160156 214.105469 173.183594 214.023438 173.242188 213.953125 C 173.300781 213.878906 173.375 213.839844 173.46875 213.832031 C 173.558594 213.824219 173.640625 213.847656 173.710938 213.90625 C 173.78125 213.964844 173.820312 214.039062 173.832031 214.128906 C 174.183594 217.554688 175.054688 219.585938 176.359375 220.011719 C 178.828125 220.8125 183.402344 218.863281 186.152344 215.839844 C 186.214844 215.773438 186.292969 215.734375 186.382812 215.730469 C 186.476562 215.726562 186.554688 215.753906 186.625 215.816406 C 186.691406 215.878906 186.730469 215.957031 186.734375 216.046875 C 186.738281 216.140625 186.707031 216.21875 186.644531 216.289062 C 185.695312 217.320312 184.617188 218.207031 183.417969 218.9375 C 184.042969 218.945312 184.710938 218.9375 185.398438 218.933594 C 189.152344 218.90625 193.820312 218.871094 198.082031 220.492188 C 198.261719 220.554688 198.335938 220.675781 198.300781 220.863281 C 198.265625 221.050781 198.15625 221.140625 197.964844 221.136719 C 197.925781 221.136719 197.886719 221.128906 197.847656 221.113281 C 195.476562 220.269531 193.03125 219.792969 190.515625 219.683594 C 181.539062 225.765625 178.421875 229.980469 178.691406 230.632812 C 179.269531 231.011719 184.480469 229.082031 188.371094 226.820312 C 188.53125 226.71875 188.671875 226.742188 188.796875 226.882812 C 188.917969 227.023438 188.921875 227.167969 188.800781 227.3125 C 183.292969 234.347656 181.769531 237.90625 182.179688 238.246094 C 183.171875 238.515625 190.5625 232.464844 192.839844 229.503906 C 192.890625 229.429688 192.957031 229.382812 193.042969 229.359375 C 193.128906 229.339844 193.210938 229.351562 193.285156 229.394531 C 193.363281 229.441406 193.414062 229.503906 193.4375 229.589844 C 193.460938 229.675781 193.453125 229.757812 193.414062 229.835938 C 190.4375 237.15625 188.570312 245.644531 189.496094 246.101562 C 190.785156 246.101562 197.019531 235.460938 198.253906 231.15625 C 198.273438 231.070312 198.320312 231.003906 198.394531 230.957031 C 198.464844 230.90625 198.546875 230.890625 198.632812 230.902344 C 198.71875 230.917969 198.789062 230.960938 198.839844 231.03125 C 198.894531 231.097656 198.914062 231.179688 198.90625 231.265625 C 198.675781 235.976562 198.132812 247.011719 199.394531 248.347656 C 199.421875 248.382812 199.453125 248.402344 199.496094 248.414062 C 199.496094 248.414062 199.546875 248.40625 199.644531 248.308594 C 201.222656 246.695312 203.246094 234.835938 203.199219 231.4375 C 203.191406 231.34375 203.214844 231.261719 203.269531 231.191406 C 203.328125 231.121094 203.402344 231.078125 203.492188 231.070312 C 203.585938 231.058594 203.664062 231.082031 203.738281 231.140625 C 203.808594 231.195312 203.851562 231.269531 203.859375 231.363281 C 204.191406 232.910156 204.503906 234.585938 204.8125 236.207031 C 205.777344 241.332031 206.980469 247.6875 208.355469 247.6875 C 208.382812 247.6875 208.40625 247.6875 208.433594 247.679688 C 209.988281 247.398438 209.023438 234.980469 208.144531 229.996094 C 208.101562 229.804688 208.171875 229.675781 208.355469 229.613281 C 208.542969 229.546875 208.679688 229.605469 208.761719 229.78125 C 215.144531 241.734375 219.453125 247.628906 220.511719 247.394531 C 220.832031 246.433594 218.480469 238.597656 213.65625 228.664062 C 210.285156 221.722656 203.386719 209.074219 195.050781 202.289062 C 194.980469 202.230469 194.941406 202.15625 194.933594 202.066406 C 194.921875 201.972656 194.945312 201.890625 195.003906 201.820312 C 195.0625 201.75 195.136719 201.710938 195.230469 201.699219 C 195.320312 201.691406 195.402344 201.714844 195.472656 201.773438 C 196.941406 202.984375 198.320312 204.289062 199.609375 205.695312 Z M 202.214844 223.53125 C 202.378906 223.535156 202.484375 223.460938 202.539062 223.308594 C 202.589844 223.15625 202.554688 223.03125 202.425781 222.933594 C 202.132812 222.699219 201.824219 222.472656 201.515625 222.261719 C 201.4375 222.210938 201.355469 222.191406 201.265625 222.210938 C 201.175781 222.226562 201.105469 222.273438 201.050781 222.347656 C 201 222.425781 200.984375 222.507812 201 222.597656 C 201.015625 222.6875 201.0625 222.757812 201.140625 222.8125 C 201.4375 223.015625 201.730469 223.230469 202.007812 223.453125 C 202.070312 223.503906 202.136719 223.527344 202.214844 223.527344 Z M 173.351562 211.9375 C 173.441406 211.933594 173.519531 211.902344 173.585938 211.835938 C 173.648438 211.769531 173.683594 211.6875 173.679688 211.597656 C 173.671875 211.277344 173.671875 210.980469 173.671875 210.707031 C 173.671875 210.613281 173.636719 210.535156 173.574219 210.46875 C 173.507812 210.40625 173.429688 210.371094 173.339844 210.371094 C 173.246094 210.371094 173.167969 210.40625 173.101562 210.46875 C 173.039062 210.535156 173.003906 210.613281 173.003906 210.707031 C 173.003906 210.984375 173.003906 211.289062 173.015625 211.613281 C 173.019531 211.703125 173.050781 211.777344 173.117188 211.839844 C 173.183594 211.902344 173.257812 211.933594 173.351562 211.933594 Z M 169.378906 185.191406 C 169.464844 185.191406 169.539062 185.160156 169.601562 185.101562 C 169.667969 185.042969 169.703125 184.972656 169.710938 184.886719 C 169.738281 184.535156 169.78125 184.183594 169.839844 183.84375 C 169.855469 183.753906 169.835938 183.671875 169.785156 183.597656 C 169.730469 183.519531 169.660156 183.476562 169.566406 183.460938 C 169.476562 183.445312 169.394531 183.464844 169.320312 183.519531 C 169.246094 183.570312 169.199219 183.644531 169.183594 183.734375 C 169.125 184.089844 169.078125 184.460938 169.046875 184.828125 C 169.039062 184.921875 169.066406 185.003906 169.125 185.074219 C 169.183594 185.144531 169.257812 185.183594 169.351562 185.191406 Z M 221.140625 177.851562 L 221.167969 177.851562 C 221.621094 177.816406 222.066406 177.773438 222.503906 177.726562 C 222.59375 177.71875 222.667969 177.679688 222.726562 177.605469 C 222.785156 177.535156 222.808594 177.453125 222.800781 177.363281 C 222.792969 177.273438 222.75 177.199219 222.679688 177.140625 C 222.609375 177.082031 222.527344 177.058594 222.4375 177.066406 C 222.003906 177.109375 221.5625 177.152344 221.113281 177.191406 C 221.023438 177.195312 220.945312 177.230469 220.886719 177.296875 C 220.824219 177.363281 220.792969 177.445312 220.796875 177.535156 C 220.800781 177.625 220.839844 177.703125 220.90625 177.765625 C 220.972656 177.828125 221.050781 177.855469 221.144531 177.851562 Z M 231.328125 166.597656 C 231.375 166.597656 231.421875 166.585938 231.46875 166.566406 C 231.886719 166.371094 232.300781 166.171875 232.710938 165.972656 C 232.796875 165.929688 232.851562 165.867188 232.882812 165.78125 C 232.914062 165.695312 232.90625 165.609375 232.867188 165.527344 C 232.828125 165.445312 232.765625 165.386719 232.679688 165.359375 C 232.589844 165.328125 232.507812 165.332031 232.425781 165.371094 C 232.015625 165.570312 231.601562 165.765625 231.183594 165.960938 C 231.015625 166.035156 230.953125 166.160156 230.992188 166.339844 C 231.03125 166.515625 231.144531 166.601562 231.328125 166.597656 Z M 235.632812 164.492188 C 235.6875 164.492188 235.738281 164.476562 235.785156 164.453125 C 238.453125 163.097656 240.933594 161.734375 243.15625 160.402344 C 243.238281 160.355469 243.289062 160.289062 243.308594 160.199219 C 243.332031 160.109375 243.320312 160.023438 243.273438 159.945312 C 243.226562 159.867188 243.15625 159.816406 243.066406 159.792969 C 242.980469 159.773438 242.894531 159.785156 242.816406 159.832031 C 240.605469 161.152344 238.136719 162.511719 235.484375 163.859375 C 235.320312 163.9375 235.257812 164.0625 235.300781 164.238281 C 235.34375 164.414062 235.453125 164.496094 235.632812 164.492188 Z M 240.246094 141.988281 C 240.332031 141.988281 240.410156 141.960938 240.472656 141.902344 C 240.769531 141.625 241.03125 141.371094 241.246094 141.140625 C 241.308594 141.074219 241.335938 140.992188 241.335938 140.902344 C 241.332031 140.808594 241.296875 140.734375 241.230469 140.671875 C 241.160156 140.609375 241.082031 140.578125 240.992188 140.582031 C 240.898438 140.585938 240.820312 140.621094 240.757812 140.6875 C 240.554688 140.90625 240.308594 141.148438 240.023438 141.414062 C 239.90625 141.515625 239.878906 141.636719 239.933594 141.78125 C 239.988281 141.921875 240.09375 141.992188 240.246094 141.992188 Z M 244.519531 147.203125 C 244.605469 147.203125 244.679688 147.175781 244.742188 147.121094 C 245.027344 146.867188 245.308594 146.609375 245.582031 146.355469 C 245.648438 146.292969 245.683594 146.214844 245.683594 146.125 C 245.6875 146.03125 245.660156 145.953125 245.597656 145.886719 C 245.535156 145.820312 245.457031 145.785156 245.363281 145.78125 C 245.273438 145.777344 245.195312 145.808594 245.128906 145.867188 C 244.855469 146.121094 244.582031 146.371094 244.300781 146.621094 C 244.183594 146.722656 244.152344 146.847656 244.207031 146.992188 C 244.261719 147.136719 244.367188 147.207031 244.519531 147.203125 Z M 239.066406 151.363281 C 239.132812 151.363281 239.191406 151.34375 239.246094 151.308594 C 240.519531 150.488281 241.746094 149.605469 242.929688 148.65625 C 243 148.597656 243.039062 148.523438 243.050781 148.429688 C 243.0625 148.339844 243.035156 148.257812 242.980469 148.1875 C 242.921875 148.117188 242.847656 148.074219 242.757812 148.066406 C 242.664062 148.054688 242.582031 148.078125 242.511719 148.136719 C 241.347656 149.070312 240.140625 149.941406 238.886719 150.75 C 238.742188 150.839844 238.695312 150.964844 238.742188 151.125 C 238.789062 151.289062 238.898438 151.367188 239.066406 151.363281 Z M 210.296875 184.542969 C 210.359375 184.542969 210.417969 184.527344 210.46875 184.496094 C 212.820312 183.054688 213.011719 181.742188 212.914062 181.085938 C 212.800781 180.421875 212.441406 179.933594 211.84375 179.621094 C 212.835938 179.183594 213.730469 178.742188 214.519531 178.308594 C 214.597656 178.265625 214.652344 178.199219 214.675781 178.109375 C 214.703125 178.019531 214.691406 177.9375 214.648438 177.855469 C 214.605469 177.777344 214.539062 177.722656 214.449219 177.699219 C 214.359375 177.671875 214.277344 177.683594 214.195312 177.726562 C 213.109375 178.316406 211.996094 178.851562 210.855469 179.324219 C 210.703125 179.386719 210.636719 179.496094 210.648438 179.65625 C 210.660156 179.816406 210.742188 179.914062 210.898438 179.953125 C 211.226562 180.003906 211.515625 180.140625 211.765625 180.363281 C 212.011719 180.585938 212.175781 180.859375 212.257812 181.183594 C 212.382812 182.023438 211.605469 183.023438 210.125 183.929688 C 209.976562 184.015625 209.925781 184.140625 209.972656 184.304688 C 210.019531 184.46875 210.128906 184.546875 210.296875 184.542969 Z M 195.953125 197.214844 C 197.546875 197.214844 198.402344 196.625 198.679688 195.925781 C 198.824219 195.578125 198.8125 195.238281 198.648438 194.902344 C 201.46875 194.445312 202.960938 193.621094 203.078125 192.453125 C 203.074219 192.070312 202.972656 191.714844 202.773438 191.386719 C 202.574219 191.0625 202.308594 190.808594 201.972656 190.625 C 206.746094 189.484375 207.304688 187.90625 207.316406 187.253906 C 207.316406 186.792969 207.132812 186.421875 206.757812 186.148438 C 207.199219 185.996094 207.621094 185.84375 208.015625 185.6875 C 208.101562 185.652344 208.160156 185.59375 208.199219 185.511719 C 208.234375 185.425781 208.234375 185.34375 208.203125 185.257812 C 208.167969 185.171875 208.109375 185.109375 208.023438 185.074219 C 207.941406 185.039062 207.855469 185.035156 207.769531 185.070312 C 207.15625 185.3125 206.480469 185.546875 205.757812 185.769531 C 205.589844 185.8125 205.507812 185.925781 205.515625 186.097656 C 205.519531 186.269531 205.609375 186.375 205.777344 186.410156 C 206.3125 186.535156 206.652344 186.863281 206.648438 187.246094 C 206.636719 188.058594 205.128906 189.316406 200.917969 190.179688 C 200.75 190.207031 200.660156 190.308594 200.648438 190.480469 C 200.636719 190.652344 200.710938 190.765625 200.875 190.816406 C 201.679688 191.101562 202.476562 191.765625 202.414062 192.386719 C 202.371094 192.796875 201.851562 193.808594 197.925781 194.339844 C 197.761719 194.359375 197.667969 194.445312 197.636719 194.605469 C 197.605469 194.765625 197.664062 194.886719 197.808594 194.960938 C 197.9375 195.027344 198.027344 195.132812 198.078125 195.269531 C 198.125 195.410156 198.117188 195.546875 198.058594 195.679688 C 197.835938 196.242188 196.664062 196.992188 193.6875 196.222656 C 193.597656 196.199219 193.515625 196.210938 193.433594 196.257812 C 193.355469 196.300781 193.304688 196.371094 193.28125 196.460938 C 193.257812 196.550781 193.269531 196.632812 193.316406 196.710938 C 193.363281 196.792969 193.429688 196.84375 193.519531 196.867188 C 194.316406 197.085938 195.128906 197.203125 195.953125 197.21875 Z M 190.347656 195.6875 C 190.53125 195.695312 190.644531 195.609375 190.683594 195.429688 C 190.722656 195.25 190.65625 195.121094 190.484375 195.054688 C 190.175781 194.914062 189.859375 194.761719 189.527344 194.597656 C 189.445312 194.558594 189.359375 194.554688 189.273438 194.582031 C 189.1875 194.613281 189.125 194.667969 189.085938 194.75 C 189.042969 194.832031 189.039062 194.914062 189.066406 195.003906 C 189.09375 195.089844 189.152344 195.152344 189.230469 195.195312 C 189.570312 195.359375 189.894531 195.515625 190.210938 195.65625 C 190.253906 195.679688 190.300781 195.691406 190.351562 195.695312 Z M 179.503906 185.785156 C 179.589844 185.785156 179.664062 185.757812 179.726562 185.703125 C 179.792969 185.640625 179.832031 185.566406 179.835938 185.472656 C 179.84375 185.382812 179.816406 185.300781 179.753906 185.234375 C 179.5625 185.011719 179.359375 184.789062 179.144531 184.558594 C 179.082031 184.492188 179.003906 184.457031 178.914062 184.453125 C 178.820312 184.449219 178.742188 184.480469 178.675781 184.542969 C 178.605469 184.605469 178.570312 184.679688 178.570312 184.773438 C 178.566406 184.863281 178.59375 184.945312 178.65625 185.011719 C 178.867188 185.238281 179.066406 185.460938 179.253906 185.671875 C 179.320312 185.75 179.40625 185.785156 179.503906 185.785156 Z M 185.871094 190.839844 C 186.65625 190.851562 187.417969 190.71875 188.152344 190.441406 C 188.886719 190.160156 189.542969 189.753906 190.125 189.222656 C 190.378906 188.960938 190.554688 188.652344 190.644531 188.296875 C 190.734375 187.941406 190.726562 187.589844 190.625 187.234375 C 194.359375 186.429688 195.871094 184.734375 195.917969 183.488281 C 195.957031 183.238281 195.898438 183.011719 195.742188 182.8125 C 195.589844 182.609375 195.386719 182.496094 195.132812 182.464844 C 194.746094 182.441406 194.359375 182.402344 193.972656 182.339844 C 194.484375 182.074219 194.972656 181.800781 195.433594 181.523438 C 195.511719 181.476562 195.5625 181.40625 195.585938 181.316406 C 195.609375 181.230469 195.597656 181.144531 195.546875 181.066406 C 195.5 180.988281 195.433594 180.9375 195.34375 180.914062 C 195.253906 180.890625 195.171875 180.90625 195.09375 180.953125 C 194.414062 181.359375 193.671875 181.761719 192.890625 182.140625 C 192.753906 182.207031 192.691406 182.3125 192.699219 182.464844 C 192.710938 182.613281 192.789062 182.710938 192.933594 182.757812 C 193.632812 182.980469 194.347656 183.105469 195.082031 183.128906 C 195.253906 183.140625 195.257812 183.386719 195.253906 183.464844 C 195.21875 184.386719 193.402344 187.023438 185.78125 187.03125 C 185.691406 187.03125 185.613281 187.066406 185.546875 187.128906 C 185.484375 187.195312 185.453125 187.273438 185.453125 187.363281 C 185.453125 187.453125 185.484375 187.53125 185.546875 187.597656 C 185.613281 187.660156 185.691406 187.691406 185.78125 187.691406 C 187.1875 187.703125 188.582031 187.589844 189.96875 187.359375 C 190.054688 187.609375 190.0625 187.859375 190.003906 188.117188 C 189.941406 188.371094 189.816406 188.589844 189.628906 188.773438 C 188.636719 189.878906 186.066406 190.5 184.625 189.976562 C 183.46875 189.5 182.535156 188.75 181.820312 187.722656 C 181.761719 187.652344 181.683594 187.613281 181.59375 187.605469 C 181.503906 187.597656 181.421875 187.621094 181.351562 187.679688 C 181.28125 187.738281 181.242188 187.8125 181.230469 187.90625 C 181.222656 187.996094 181.25 188.078125 181.308594 188.148438 C 182.097656 189.269531 183.128906 190.085938 184.398438 190.605469 C 184.875 190.765625 185.367188 190.84375 185.871094 190.835938 Z M 172.429688 181.808594 C 172.523438 181.808594 172.601562 181.777344 172.664062 181.710938 C 172.730469 181.644531 172.761719 181.566406 172.761719 181.476562 C 172.761719 181.382812 172.730469 181.304688 172.664062 181.242188 C 172.601562 181.175781 172.523438 181.144531 172.429688 181.144531 C 172.070312 181.144531 171.714844 181.125 171.375 181.09375 C 171.28125 181.085938 171.199219 181.109375 171.128906 181.167969 C 171.058594 181.226562 171.019531 181.300781 171.011719 181.394531 C 171.003906 181.484375 171.027344 181.566406 171.085938 181.636719 C 171.144531 181.707031 171.222656 181.746094 171.3125 181.753906 C 171.671875 181.789062 172.050781 181.804688 172.429688 181.808594 Z M 197.515625 180.023438 C 197.59375 180.023438 197.660156 180 197.722656 179.953125 C 197.953125 179.765625 198.171875 179.582031 198.375 179.402344 C 198.445312 179.34375 198.484375 179.265625 198.488281 179.175781 C 198.496094 179.082031 198.46875 179.003906 198.40625 178.933594 C 198.34375 178.863281 198.269531 178.828125 198.175781 178.820312 C 198.085938 178.816406 198.003906 178.84375 197.9375 178.90625 C 197.742188 179.078125 197.53125 179.253906 197.308594 179.429688 C 197.179688 179.527344 197.140625 179.652344 197.195312 179.804688 C 197.246094 179.957031 197.355469 180.03125 197.515625 180.027344 Z M 154.417969 174.082031 C 155.679688 174.082031 157.113281 173.566406 157.484375 172.066406 C 157.507812 171.976562 157.492188 171.894531 157.445312 171.816406 C 157.398438 171.738281 157.332031 171.6875 157.242188 171.664062 C 157.152344 171.644531 157.070312 171.65625 156.988281 171.703125 C 156.910156 171.75 156.859375 171.816406 156.839844 171.90625 C 156.554688 173.054688 155.378906 173.425781 154.355469 173.417969 C 154.265625 172.992188 154.296875 172.574219 154.445312 172.167969 C 154.59375 171.757812 154.839844 171.421875 155.183594 171.152344 C 155.253906 171.09375 155.292969 171.019531 155.300781 170.925781 C 155.304688 170.835938 155.28125 170.753906 155.21875 170.683594 C 155.160156 170.613281 155.085938 170.574219 154.992188 170.570312 C 154.902344 170.5625 154.820312 170.589844 154.75 170.648438 C 154.324219 170.988281 154.015625 171.414062 153.824219 171.925781 C 153.632812 172.4375 153.589844 172.960938 153.691406 173.496094 C 153.703125 173.589844 153.710938 173.671875 153.714844 173.738281 C 153.714844 173.824219 153.742188 173.898438 153.800781 173.960938 C 153.859375 174.023438 153.929688 174.058594 154.015625 174.066406 C 154.148438 174.074219 154.285156 174.082031 154.421875 174.082031 Z M 154.417969 174.082031 " fill-opacity="1" fill-rule="evenodd"/></g></svg>