<svg xmlns="http://www.w3.org/2000/svg" xmlns:xlink="http://www.w3.org/1999/xlink" width="500" zoomAndPan="magnify" viewBox="0 0 375 374.999991" height="500" preserveAspectRatio="xMidYMid meet" version="1.0"><defs><g/><clipPath id="2ee5af494e"><path d="M 131.378906 109 L 243.878906 109 L 243.878906 195.90625 L 131.378906 195.90625 Z M 131.378906 109 " clip-rule="nonzero"/></clipPath></defs><g clip-path="url(#2ee5af494e)"><path fill="#ffffff" d="M 242.207031 111.953125 C 241.832031 111.835938 241.460938 111.835938 241.089844 111.960938 C 240.714844 112.085938 240.414062 112.304688 240.1875 112.625 C 237.882812 115.839844 235.355469 118.867188 232.609375 121.714844 C 229.859375 124.558594 226.921875 127.1875 223.789062 129.605469 C 220.65625 132.019531 217.367188 134.195312 213.917969 136.128906 C 210.46875 138.0625 206.894531 139.738281 203.203125 141.152344 C 205.597656 138.824219 208.375 137.132812 211.542969 136.074219 C 211.890625 135.957031 212.175781 135.757812 212.402344 135.46875 C 212.625 135.179688 212.75 134.851562 212.777344 134.488281 C 212.800781 134.125 212.722656 133.78125 212.542969 133.464844 C 212.363281 133.148438 212.105469 132.90625 211.78125 132.746094 L 204.777344 129.246094 C 204.171875 128.941406 203.554688 128.671875 202.917969 128.429688 C 202.285156 128.191406 201.640625 127.984375 200.984375 127.808594 C 200.332031 127.636719 199.667969 127.496094 199 127.386719 C 198.328125 127.28125 197.65625 127.207031 196.980469 127.171875 C 196.300781 127.132812 195.625 127.128906 194.949219 127.160156 C 194.269531 127.191406 193.597656 127.253906 192.925781 127.355469 C 192.253906 127.453125 191.59375 127.585938 190.933594 127.753906 C 190.277344 127.921875 189.632812 128.121094 188.996094 128.355469 C 188.359375 128.589844 187.734375 128.851562 187.125 129.148438 C 186.515625 129.445312 185.921875 129.773438 185.347656 130.128906 C 184.769531 130.488281 184.214844 130.871094 183.675781 131.285156 C 183.140625 131.699219 182.625 132.140625 182.132812 132.605469 C 181.640625 133.074219 181.175781 133.5625 180.730469 134.078125 C 180.289062 134.589844 179.875 135.125 179.488281 135.683594 C 179.101562 136.238281 178.742188 136.8125 178.414062 137.40625 C 178.082031 138 177.785156 138.605469 177.519531 139.230469 L 174.949219 145.226562 C 171.039062 144.03125 167.28125 142.476562 163.671875 140.5625 C 160.0625 138.648438 156.667969 136.40625 153.488281 133.839844 C 150.308594 131.273438 147.402344 128.429688 144.769531 125.304688 C 142.136719 122.179688 139.824219 118.835938 137.832031 115.269531 L 134.914062 110.015625 C 134.714844 109.65625 134.425781 109.394531 134.046875 109.234375 C 133.667969 109.070312 133.28125 109.042969 132.882812 109.144531 C 132.484375 109.25 132.160156 109.460938 131.910156 109.789062 C 131.65625 110.113281 131.53125 110.480469 131.53125 110.890625 L 131.53125 145.3125 C 131.53125 146.433594 131.585938 147.550781 131.695312 148.664062 C 131.804688 149.777344 131.96875 150.882812 132.1875 151.980469 C 132.40625 153.078125 132.675781 154.164062 133.003906 155.234375 C 133.328125 156.308594 133.703125 157.359375 134.132812 158.394531 C 134.558594 159.429688 135.039062 160.4375 135.566406 161.425781 C 136.09375 162.414062 136.667969 163.371094 137.289062 164.304688 C 137.914062 165.234375 138.578125 166.132812 139.289062 166.996094 C 140 167.863281 140.75 168.691406 141.542969 169.484375 C 142.332031 170.273438 143.160156 171.023438 144.027344 171.734375 C 144.890625 172.445312 145.789062 173.113281 146.722656 173.734375 C 147.652344 174.355469 148.609375 174.929688 149.597656 175.457031 C 150.585938 175.984375 151.597656 176.464844 152.628906 176.890625 C 153.664062 177.320312 154.71875 177.695312 155.789062 178.023438 C 156.859375 178.347656 157.945312 178.617188 159.042969 178.835938 C 160.140625 179.054688 161.246094 179.21875 162.359375 179.328125 C 163.472656 179.4375 164.589844 179.492188 165.710938 179.492188 L 169.671875 179.492188 L 162.566406 189.265625 C 162.402344 189.488281 162.296875 189.738281 162.246094 190.015625 C 162.199219 190.289062 162.214844 190.558594 162.289062 190.828125 C 162.367188 191.09375 162.5 191.332031 162.6875 191.539062 C 162.875 191.746094 163.097656 191.898438 163.355469 192.003906 C 169.585938 194.5 176.058594 195.746094 182.773438 195.742188 L 189.300781 195.742188 C 189.554688 195.742188 189.796875 195.691406 190.027344 195.589844 C 190.257812 195.492188 190.460938 195.347656 190.632812 195.160156 C 190.804688 194.976562 190.929688 194.761719 191.015625 194.523438 C 191.097656 194.285156 191.125 194.039062 191.105469 193.785156 L 190.152344 182.316406 C 191.59375 182.570312 193.046875 182.785156 194.503906 182.921875 C 195.867188 183.039062 197.230469 183.101562 198.59375 183.101562 C 200.0625 183.101562 201.527344 183.027344 202.992188 182.882812 C 204.453125 182.738281 205.90625 182.519531 207.347656 182.234375 C 208.789062 181.945312 210.210938 181.589844 211.617188 181.160156 C 213.023438 180.734375 214.40625 180.238281 215.765625 179.675781 C 217.121094 179.113281 218.449219 178.484375 219.746094 177.789062 C 221.039062 177.097656 222.300781 176.339844 223.519531 175.523438 C 224.742188 174.707031 225.921875 173.832031 227.058594 172.898438 C 228.191406 171.964844 229.28125 170.980469 230.320312 169.941406 C 231.359375 168.902344 232.34375 167.8125 233.277344 166.675781 C 234.207031 165.539062 235.082031 164.359375 235.898438 163.140625 C 236.714844 161.917969 237.46875 160.65625 238.160156 159.359375 C 238.855469 158.066406 239.480469 156.738281 240.042969 155.378906 C 240.605469 154.023438 241.101562 152.640625 241.527344 151.234375 C 241.953125 149.828125 242.3125 148.402344 242.597656 146.960938 C 242.882812 145.519531 243.101562 144.066406 243.242188 142.605469 C 243.386719 141.140625 243.460938 139.675781 243.460938 138.207031 L 243.460938 113.671875 C 243.460938 113.28125 243.34375 112.925781 243.113281 112.609375 C 242.882812 112.292969 242.582031 112.074219 242.207031 111.953125 Z M 180.828125 140.660156 C 181.046875 140.148438 181.289062 139.652344 181.558594 139.167969 C 181.828125 138.679688 182.121094 138.210938 182.4375 137.753906 C 182.757812 137.300781 183.09375 136.859375 183.457031 136.441406 C 183.820312 136.019531 184.203125 135.617188 184.605469 135.234375 C 185.007812 134.855469 185.429688 134.492188 185.871094 134.15625 C 186.308594 133.816406 186.765625 133.5 187.238281 133.207031 C 187.707031 132.914062 188.195312 132.648438 188.691406 132.40625 C 189.191406 132.160156 189.703125 131.945312 190.222656 131.753906 C 190.746094 131.5625 191.273438 131.398438 191.8125 131.261719 C 192.351562 131.125 192.894531 131.015625 193.445312 130.933594 C 193.992188 130.851562 194.542969 130.800781 195.097656 130.773438 C 195.652344 130.75 196.207031 130.75 196.761719 130.785156 C 197.316406 130.816406 197.867188 130.875 198.417969 130.960938 C 198.964844 131.050781 199.507812 131.164062 200.042969 131.308594 C 200.582031 131.449219 201.109375 131.621094 201.628906 131.816406 C 202.148438 132.011719 202.65625 132.234375 203.152344 132.484375 L 206.65625 134.234375 C 205.625 134.773438 204.632812 135.375 203.683594 136.046875 C 202.734375 136.722656 201.835938 137.453125 200.988281 138.25 C 200.136719 139.046875 199.347656 139.894531 198.613281 140.796875 C 197.882812 141.703125 197.214844 142.652344 196.609375 143.644531 C 196.007812 144.640625 195.472656 145.671875 195.011719 146.738281 C 194.550781 147.804688 194.164062 148.898438 193.851562 150.019531 C 193.539062 151.140625 193.300781 152.277344 193.144531 153.429688 C 192.988281 154.582031 192.910156 155.742188 192.910156 156.902344 L 192.910156 165.050781 C 192.910156 165.597656 192.863281 166.144531 192.773438 166.683594 C 192.683594 167.226562 192.550781 167.753906 192.378906 168.273438 C 192.203125 168.792969 191.988281 169.296875 191.730469 169.78125 C 191.476562 170.265625 191.183594 170.726562 190.851562 171.164062 C 190.523438 171.601562 190.160156 172.007812 189.765625 172.386719 C 189.367188 172.765625 188.945312 173.113281 188.496094 173.421875 C 188.042969 173.734375 187.570312 174.007812 187.074219 174.242188 C 186.578125 174.476562 186.066406 174.667969 185.542969 174.820312 L 182.714844 175.628906 L 179.605469 171.898438 C 179.003906 171.175781 178.453125 170.417969 177.957031 169.617188 C 177.460938 168.820312 177.019531 167.992188 176.636719 167.136719 C 176.253906 166.277344 175.929688 165.398438 175.667969 164.496094 C 175.40625 163.59375 175.207031 162.679688 175.074219 161.75 C 174.9375 160.820312 174.867188 159.882812 174.859375 158.945312 C 174.851562 158.003906 174.910156 157.070312 175.03125 156.136719 C 175.152344 155.207031 175.335938 154.289062 175.585938 153.382812 C 175.835938 152.476562 176.144531 151.589844 176.511719 150.726562 Z M 165.710938 175.882812 C 162.839844 175.882812 160.023438 175.488281 157.265625 174.695312 C 160.125 174.832031 162.984375 174.90625 165.832031 174.90625 L 165.832031 171.296875 C 160.003906 171.296875 154.117188 170.996094 148.320312 170.417969 C 147.207031 169.660156 146.152344 168.835938 145.148438 167.941406 C 144.507812 167.355469 143.914062 166.730469 143.328125 166.101562 C 147.761719 167.152344 152.25 167.683594 156.804688 167.691406 L 156.804688 164.078125 C 150.96875 164.074219 145.277344 163.164062 139.730469 161.355469 C 137.222656 157.292969 135.738281 152.890625 135.289062 148.136719 C 140.539062 152.390625 146.273438 155.851562 152.484375 158.519531 L 153.90625 155.199219 C 147.007812 152.238281 140.75 148.265625 135.140625 143.277344 L 135.140625 135.007812 C 139.363281 139.378906 144.011719 143.246094 149.078125 146.605469 C 154.144531 149.964844 159.511719 152.738281 165.183594 154.925781 L 166.480469 151.558594 C 160.449219 149.230469 154.785156 146.214844 149.484375 142.511719 C 144.183594 138.808594 139.402344 134.527344 135.140625 129.667969 L 135.140625 117.84375 C 137.242188 121.484375 139.660156 124.898438 142.402344 128.089844 C 145.140625 131.28125 148.148438 134.191406 151.433594 136.816406 C 154.714844 139.445312 158.210938 141.75 161.921875 143.722656 C 165.632812 145.699219 169.496094 147.3125 173.507812 148.570312 L 173.195312 149.300781 C 172.414062 151.121094 171.863281 153.011719 171.550781 154.96875 C 171.234375 156.925781 171.164062 158.890625 171.335938 160.863281 C 171.511719 162.839844 171.921875 164.761719 172.570312 166.632812 C 173.21875 168.507812 174.085938 170.273438 175.171875 171.929688 L 172.296875 175.882812 Z M 183.882812 192.132812 L 183.882812 186.714844 L 180.273438 186.714844 L 180.273438 192.027344 C 178.34375 191.941406 176.429688 191.738281 174.523438 191.421875 L 178.277344 183.910156 L 175.046875 182.296875 L 170.871094 190.652344 C 169.53125 190.3125 168.199219 189.917969 166.882812 189.464844 L 177.441406 174.945312 L 180.691406 178.84375 C 181.054688 179.277344 181.515625 179.492188 182.078125 179.492188 C 182.246094 179.492188 182.414062 179.46875 182.574219 179.421875 L 186.195312 178.390625 L 187.339844 192.132812 Z M 218.230469 174.492188 C 211.648438 174.945312 205.082031 174.8125 198.527344 174.089844 L 198.128906 177.679688 C 201.503906 178.054688 204.90625 178.234375 208.308594 178.304688 C 203.871094 179.394531 199.375 179.734375 194.824219 179.324219 C 193.152344 179.164062 191.492188 178.921875 189.84375 178.589844 L 189.699219 176.898438 C 190.734375 176.292969 191.671875 175.5625 192.515625 174.710938 C 193.359375 173.863281 194.082031 172.917969 194.679688 171.878906 C 195.277344 170.839844 195.734375 169.742188 196.046875 168.585938 C 196.359375 167.425781 196.515625 166.25 196.523438 165.050781 L 196.523438 156.902344 C 196.523438 153.144531 197.433594 149.617188 199.246094 146.328125 C 203.207031 145.101562 207.054688 143.597656 210.792969 141.808594 C 214.53125 140.023438 218.121094 137.972656 221.558594 135.660156 C 224.996094 133.347656 228.25 130.796875 231.3125 128.007812 C 234.378906 125.21875 237.222656 122.222656 239.847656 119.015625 L 239.847656 129.644531 C 235.957031 133.433594 231.730469 136.808594 227.175781 139.769531 C 222.617188 142.726562 217.816406 145.214844 212.769531 147.230469 L 208.488281 148.941406 L 209.828125 152.292969 L 214.109375 150.582031 C 223.636719 146.777344 232.21875 141.449219 239.847656 134.589844 L 239.847656 138.199219 C 239.84375 140.527344 239.640625 142.835938 239.246094 145.128906 C 233.503906 148.441406 227.492188 151.167969 221.214844 153.300781 C 214.9375 155.4375 208.511719 156.941406 201.9375 157.8125 L 201.699219 157.847656 L 202.175781 161.425781 L 202.414062 161.394531 C 215.035156 159.71875 226.953125 155.871094 238.171875 149.855469 C 236.929688 154.101562 235.050781 158.046875 232.535156 161.691406 C 223.871094 165.140625 214.875 166.863281 205.546875 166.855469 L 205.546875 170.46875 C 213.21875 170.46875 220.722656 169.34375 228.054688 167.085938 C 225.152344 170.046875 221.875 172.515625 218.230469 174.492188 Z M 218.230469 174.492188 " fill-opacity="1" fill-rule="nonzero"/></g><g fill="#ffffff" fill-opacity="1"><g transform="translate(73.1685, 239.115257)"><g><path d="M 5.59375 -18.109375 L 5.59375 -10.171875 L 10.421875 -10.171875 C 11.109375 -10.171875 11.566406 -10.269531 11.796875 -10.46875 C 12.035156 -10.675781 12.15625 -10.847656 12.15625 -10.984375 L 12.15625 -8.234375 C 12.15625 -8.296875 12.113281 -8.382812 12.03125 -8.5 C 11.945312 -8.625 11.773438 -8.742188 11.515625 -8.859375 C 11.265625 -8.984375 10.898438 -9.046875 10.421875 -9.046875 L 5.59375 -9.046875 L 5.59375 -2.59375 C 5.59375 -1.875 5.679688 -1.320312 5.859375 -0.9375 C 6.046875 -0.550781 6.25 -0.285156 6.46875 -0.140625 C 6.695312 -0.00390625 6.8125 0.0390625 6.8125 0 L 2.375 0 C 2.375 0.0390625 2.484375 0 2.703125 -0.125 C 2.929688 -0.257812 3.132812 -0.519531 3.3125 -0.90625 C 3.488281 -1.289062 3.578125 -1.851562 3.578125 -2.59375 L 3.578125 -16.484375 C 3.578125 -17.242188 3.488281 -17.820312 3.3125 -18.21875 C 3.132812 -18.625 2.929688 -18.90625 2.703125 -19.0625 C 2.484375 -19.226562 2.375 -19.28125 2.375 -19.21875 L 12.484375 -19.21875 L 12.484375 -16.375 C 12.390625 -16.820312 12.128906 -17.222656 11.703125 -17.578125 C 11.273438 -17.929688 10.671875 -18.109375 9.890625 -18.109375 Z M 5.59375 -18.109375 "/></g></g></g><g fill="#ffffff" fill-opacity="1"><g transform="translate(87.025993, 239.115257)"><g><path d="M 17.265625 -6.671875 C 17.265625 -5.203125 16.984375 -3.941406 16.421875 -2.890625 C 15.867188 -1.835938 15.082031 -1.035156 14.0625 -0.484375 C 13.050781 0.0546875 11.875 0.328125 10.53125 0.328125 C 8.3125 0.328125 6.597656 -0.285156 5.390625 -1.515625 C 4.179688 -2.742188 3.578125 -4.445312 3.578125 -6.625 L 3.578125 -16.625 C 3.578125 -17.363281 3.488281 -17.925781 3.3125 -18.3125 C 3.132812 -18.695312 2.9375 -18.953125 2.71875 -19.078125 C 2.507812 -19.210938 2.40625 -19.257812 2.40625 -19.21875 L 6.765625 -19.21875 C 6.765625 -19.257812 6.65625 -19.210938 6.4375 -19.078125 C 6.226562 -18.953125 6.035156 -18.703125 5.859375 -18.328125 C 5.679688 -17.953125 5.59375 -17.410156 5.59375 -16.703125 L 5.59375 -6.625 C 5.59375 -4.8125 6.023438 -3.410156 6.890625 -2.421875 C 7.753906 -1.441406 9.023438 -0.953125 10.703125 -0.953125 C 12.242188 -0.953125 13.460938 -1.421875 14.359375 -2.359375 C 15.253906 -3.296875 15.703125 -4.6875 15.703125 -6.53125 L 15.703125 -16.625 C 15.703125 -17.363281 15.609375 -17.925781 15.421875 -18.3125 C 15.234375 -18.695312 15.023438 -18.953125 14.796875 -19.078125 C 14.578125 -19.210938 14.46875 -19.257812 14.46875 -19.21875 L 18.5 -19.21875 C 18.5 -19.257812 18.382812 -19.210938 18.15625 -19.078125 C 17.9375 -18.953125 17.734375 -18.695312 17.546875 -18.3125 C 17.359375 -17.925781 17.265625 -17.363281 17.265625 -16.625 Z M 17.265625 -6.671875 "/></g></g></g><g fill="#ffffff" fill-opacity="1"><g transform="translate(106.918205, 239.115257)"><g><path d="M 20.359375 -19.21875 C 20.097656 -19.164062 19.84375 -18.957031 19.59375 -18.59375 C 19.34375 -18.226562 19.21875 -17.585938 19.21875 -16.671875 L 19.21875 0.78125 L 4.921875 -15.890625 L 4.921875 -2.515625 C 4.921875 -1.617188 5.078125 -0.988281 5.390625 -0.625 C 5.703125 -0.257812 6.007812 -0.0507812 6.3125 0 L 2.375 0 C 2.632812 -0.0507812 2.898438 -0.257812 3.171875 -0.625 C 3.441406 -0.988281 3.578125 -1.628906 3.578125 -2.546875 L 3.578125 -16.515625 C 3.578125 -17.140625 3.363281 -17.710938 2.9375 -18.234375 C 2.507812 -18.765625 1.96875 -19.09375 1.3125 -19.21875 L 4.78125 -19.21875 L 17.875 -3.9375 L 17.875 -16.671875 C 17.875 -18.109375 17.390625 -18.957031 16.421875 -19.21875 Z M 20.359375 -19.21875 "/></g></g></g><g fill="#ffffff" fill-opacity="1"><g transform="translate(129.269, 239.115257)"><g><path d="M 2.375 0 C 2.375 0.0507812 2.484375 0.0078125 2.703125 -0.125 C 2.929688 -0.257812 3.132812 -0.535156 3.3125 -0.953125 C 3.488281 -1.378906 3.578125 -1.992188 3.578125 -2.796875 L 3.578125 -16.515625 C 3.578125 -17.273438 3.488281 -17.851562 3.3125 -18.25 C 3.132812 -18.65625 2.929688 -18.929688 2.703125 -19.078125 C 2.484375 -19.234375 2.375 -19.28125 2.375 -19.21875 L 12.484375 -19.21875 L 12.484375 -16.421875 C 12.148438 -17.546875 11.144531 -18.109375 9.46875 -18.109375 L 5.59375 -18.109375 L 5.59375 -10.171875 L 10.390625 -10.171875 C 10.765625 -10.171875 11.082031 -10.226562 11.34375 -10.34375 C 11.601562 -10.46875 11.796875 -10.59375 11.921875 -10.71875 C 12.054688 -10.851562 12.132812 -10.941406 12.15625 -10.984375 L 12.15625 -8.265625 C 12.132812 -8.304688 12.054688 -8.390625 11.921875 -8.515625 C 11.796875 -8.648438 11.609375 -8.769531 11.359375 -8.875 C 11.109375 -8.988281 10.796875 -9.046875 10.421875 -9.046875 L 5.59375 -9.046875 L 5.59375 -1.125 L 9.953125 -1.125 C 10.785156 -1.125 11.503906 -1.296875 12.109375 -1.640625 C 12.710938 -1.984375 13.144531 -2.425781 13.40625 -2.96875 L 12.90625 0 Z M 2.375 0 "/></g></g></g><g fill="#ffffff" fill-opacity="1"><g transform="translate(144.020524, 239.115257)"><g><path d="M 7.984375 -9.671875 C 8.847656 -9.671875 9.59375 -9.867188 10.21875 -10.265625 C 10.851562 -10.671875 11.332031 -11.191406 11.65625 -11.828125 C 11.988281 -12.472656 12.15625 -13.148438 12.15625 -13.859375 C 12.15625 -14.585938 12 -15.269531 11.6875 -15.90625 C 11.382812 -16.550781 10.914062 -17.078125 10.28125 -17.484375 C 9.644531 -17.898438 8.875 -18.109375 7.96875 -18.109375 L 5.59375 -18.109375 L 5.59375 -2.5625 C 5.59375 -1.820312 5.679688 -1.257812 5.859375 -0.875 C 6.046875 -0.5 6.25 -0.25 6.46875 -0.125 C 6.695312 0 6.8125 0.0390625 6.8125 0 L 2.375 0 C 2.375 0.0390625 2.484375 0 2.703125 -0.125 C 2.929688 -0.257812 3.132812 -0.515625 3.3125 -0.890625 C 3.488281 -1.265625 3.578125 -1.820312 3.578125 -2.5625 L 3.578125 -16.53125 C 3.578125 -17.300781 3.488281 -17.882812 3.3125 -18.28125 C 3.132812 -18.6875 2.929688 -18.957031 2.703125 -19.09375 C 2.484375 -19.238281 2.375 -19.28125 2.375 -19.21875 L 7.90625 -19.21875 C 9.351562 -19.21875 10.546875 -18.976562 11.484375 -18.5 C 12.429688 -18.03125 13.113281 -17.414062 13.53125 -16.65625 C 13.957031 -15.90625 14.171875 -15.082031 14.171875 -14.1875 C 14.171875 -13.445312 13.992188 -12.71875 13.640625 -12 C 13.285156 -11.28125 12.773438 -10.65625 12.109375 -10.125 C 11.453125 -9.59375 10.6875 -9.226562 9.8125 -9.03125 L 9.359375 -8.9375 L 14.28125 -2.6875 C 14.925781 -1.957031 15.460938 -1.394531 15.890625 -1 C 16.316406 -0.613281 16.628906 -0.351562 16.828125 -0.21875 C 17.023438 -0.09375 17.144531 -0.0195312 17.1875 0 L 13.90625 0 L 6.3125 -9.671875 Z M 7.984375 -9.671875 "/></g></g></g><g fill="#ffffff" fill-opacity="1"><g transform="translate(161.342392, 239.115257)"><g><path d="M 5.890625 -7.453125 L 4.109375 -3.015625 C 3.828125 -2.328125 3.6875 -1.757812 3.6875 -1.3125 C 3.6875 -0.695312 3.96875 -0.257812 4.53125 0 L 0.53125 0 C 0.71875 0 0.988281 -0.1875 1.34375 -0.5625 C 1.695312 -0.9375 2.101562 -1.671875 2.5625 -2.765625 L 9.859375 -20.109375 L 17.09375 -2.6875 C 17.507812 -1.675781 17.90625 -0.984375 18.28125 -0.609375 C 18.664062 -0.242188 18.96875 -0.0390625 19.1875 0 L 14.5625 0 C 15.019531 -0.21875 15.25 -0.5625 15.25 -1.03125 C 15.25 -1.425781 15.101562 -1.984375 14.8125 -2.703125 L 12.84375 -7.453125 Z M 12.40625 -8.609375 L 9.359375 -16.0625 L 6.375 -8.609375 Z M 12.40625 -8.609375 "/></g></g></g><g fill="#ffffff" fill-opacity="1"><g transform="translate(180.564076, 239.115257)"><g><path d="M 3.578125 -16.625 C 3.578125 -17.363281 3.488281 -17.925781 3.3125 -18.3125 C 3.132812 -18.695312 2.929688 -18.953125 2.703125 -19.078125 C 2.484375 -19.210938 2.375 -19.257812 2.375 -19.21875 L 6.8125 -19.21875 C 6.8125 -19.257812 6.695312 -19.210938 6.46875 -19.078125 C 6.25 -18.953125 6.046875 -18.695312 5.859375 -18.3125 C 5.679688 -17.925781 5.59375 -17.363281 5.59375 -16.625 L 5.59375 -1.125 L 10.171875 -1.125 C 11.003906 -1.125 11.722656 -1.296875 12.328125 -1.640625 C 12.941406 -1.984375 13.378906 -2.425781 13.640625 -2.96875 L 13.125 0 L 2.375 0 C 2.375 0.0507812 2.484375 0.0078125 2.703125 -0.125 C 2.929688 -0.257812 3.132812 -0.535156 3.3125 -0.953125 C 3.488281 -1.378906 3.578125 -1.992188 3.578125 -2.796875 Z M 3.578125 -16.625 "/></g></g></g><g fill="#ffffff" fill-opacity="1"><g transform="translate(194.700953, 239.115257)"><g><path d="M 2.375 0 C 2.375 0.0507812 2.484375 0.0078125 2.703125 -0.125 C 2.929688 -0.257812 3.132812 -0.535156 3.3125 -0.953125 C 3.488281 -1.378906 3.578125 -1.992188 3.578125 -2.796875 L 3.578125 -16.515625 C 3.578125 -17.273438 3.488281 -17.851562 3.3125 -18.25 C 3.132812 -18.65625 2.929688 -18.929688 2.703125 -19.078125 C 2.484375 -19.234375 2.375 -19.28125 2.375 -19.21875 L 12.484375 -19.21875 L 12.484375 -16.421875 C 12.148438 -17.546875 11.144531 -18.109375 9.46875 -18.109375 L 5.59375 -18.109375 L 5.59375 -10.171875 L 10.390625 -10.171875 C 10.765625 -10.171875 11.082031 -10.226562 11.34375 -10.34375 C 11.601562 -10.46875 11.796875 -10.59375 11.921875 -10.71875 C 12.054688 -10.851562 12.132812 -10.941406 12.15625 -10.984375 L 12.15625 -8.265625 C 12.132812 -8.304688 12.054688 -8.390625 11.921875 -8.515625 C 11.796875 -8.648438 11.609375 -8.769531 11.359375 -8.875 C 11.109375 -8.988281 10.796875 -9.046875 10.421875 -9.046875 L 5.59375 -9.046875 L 5.59375 -1.125 L 9.953125 -1.125 C 10.785156 -1.125 11.503906 -1.296875 12.109375 -1.640625 C 12.710938 -1.984375 13.144531 -2.425781 13.40625 -2.96875 L 12.90625 0 Z M 2.375 0 "/></g></g></g><g fill="#ffffff" fill-opacity="1"><g transform="translate(209.452477, 239.115257)"><g/></g></g><g fill="#ffffff" fill-opacity="1"><g transform="translate(216.604732, 239.115257)"><g><path d="M 7.453125 0.328125 C 6.484375 0.328125 5.550781 0.195312 4.65625 -0.0625 C 3.769531 -0.332031 2.972656 -0.710938 2.265625 -1.203125 L 2.265625 -4.578125 C 2.742188 -3.328125 3.484375 -2.378906 4.484375 -1.734375 C 5.484375 -1.097656 6.519531 -0.78125 7.59375 -0.78125 C 8.675781 -0.78125 9.582031 -1.140625 10.3125 -1.859375 C 11.039062 -2.578125 11.40625 -3.46875 11.40625 -4.53125 C 11.40625 -5.238281 11.257812 -5.84375 10.96875 -6.34375 C 10.675781 -6.84375 10.210938 -7.3125 9.578125 -7.75 C 8.941406 -8.1875 8.050781 -8.675781 6.90625 -9.21875 C 5.28125 -9.96875 4.097656 -10.742188 3.359375 -11.546875 C 2.628906 -12.359375 2.265625 -13.34375 2.265625 -14.5 C 2.265625 -15.488281 2.5 -16.367188 2.96875 -17.140625 C 3.445312 -17.910156 4.09375 -18.503906 4.90625 -18.921875 C 5.71875 -19.347656 6.609375 -19.5625 7.578125 -19.5625 C 8.410156 -19.5625 9.226562 -19.441406 10.03125 -19.203125 C 10.832031 -18.972656 11.578125 -18.644531 12.265625 -18.21875 L 12.265625 -15.203125 C 11.816406 -16.222656 11.140625 -17.015625 10.234375 -17.578125 C 9.335938 -18.148438 8.421875 -18.4375 7.484375 -18.4375 C 6.421875 -18.4375 5.5625 -18.09375 4.90625 -17.40625 C 4.257812 -16.71875 3.9375 -15.898438 3.9375 -14.953125 C 3.9375 -14.253906 4.128906 -13.660156 4.515625 -13.171875 C 4.910156 -12.679688 5.390625 -12.265625 5.953125 -11.921875 C 6.523438 -11.585938 7.328125 -11.179688 8.359375 -10.703125 C 9.398438 -10.203125 10.253906 -9.734375 10.921875 -9.296875 C 11.585938 -8.867188 12.144531 -8.3125 12.59375 -7.625 C 13.039062 -6.9375 13.265625 -6.097656 13.265625 -5.109375 C 13.265625 -3.992188 13 -3.023438 12.46875 -2.203125 C 11.9375 -1.390625 11.226562 -0.765625 10.34375 -0.328125 C 9.46875 0.109375 8.503906 0.328125 7.453125 0.328125 Z M 7.453125 0.328125 "/></g></g></g><g fill="#ffffff" fill-opacity="1"><g transform="translate(231.356265, 239.115257)"><g><path d="M 14.359375 0 L 5.59375 -9.78125 L 5.59375 -2.5625 C 5.59375 -1.632812 5.722656 -0.984375 5.984375 -0.609375 C 6.242188 -0.242188 6.484375 -0.0390625 6.703125 0 L 2.40625 0 C 2.625 -0.0390625 2.875 -0.238281 3.15625 -0.59375 C 3.4375 -0.957031 3.578125 -1.613281 3.578125 -2.5625 L 3.578125 -16.625 C 3.578125 -17.570312 3.445312 -18.222656 3.1875 -18.578125 C 2.925781 -18.929688 2.664062 -19.144531 2.40625 -19.21875 L 6.703125 -19.21875 C 6.484375 -19.1875 6.242188 -18.988281 5.984375 -18.625 C 5.722656 -18.257812 5.59375 -17.59375 5.59375 -16.625 L 5.59375 -9.859375 L 12.203125 -16.453125 C 13.265625 -17.515625 13.796875 -18.242188 13.796875 -18.640625 C 13.796875 -18.972656 13.664062 -19.164062 13.40625 -19.21875 L 17.796875 -19.21875 C 17.492188 -19.1875 17.019531 -18.988281 16.375 -18.625 C 15.738281 -18.257812 14.914062 -17.570312 13.90625 -16.5625 L 7.65625 -10.359375 L 14.71875 -2.6875 C 15.582031 -1.695312 16.257812 -1.019531 16.75 -0.65625 C 17.238281 -0.289062 17.585938 -0.0703125 17.796875 0 Z M 14.359375 0 "/></g></g></g><g fill="#ffffff" fill-opacity="1"><g transform="translate(249.907429, 239.115257)"><g><path d="M 17.265625 -6.671875 C 17.265625 -5.203125 16.984375 -3.941406 16.421875 -2.890625 C 15.867188 -1.835938 15.082031 -1.035156 14.0625 -0.484375 C 13.050781 0.0546875 11.875 0.328125 10.53125 0.328125 C 8.3125 0.328125 6.597656 -0.285156 5.390625 -1.515625 C 4.179688 -2.742188 3.578125 -4.445312 3.578125 -6.625 L 3.578125 -16.625 C 3.578125 -17.363281 3.488281 -17.925781 3.3125 -18.3125 C 3.132812 -18.695312 2.9375 -18.953125 2.71875 -19.078125 C 2.507812 -19.210938 2.40625 -19.257812 2.40625 -19.21875 L 6.765625 -19.21875 C 6.765625 -19.257812 6.65625 -19.210938 6.4375 -19.078125 C 6.226562 -18.953125 6.035156 -18.703125 5.859375 -18.328125 C 5.679688 -17.953125 5.59375 -17.410156 5.59375 -16.703125 L 5.59375 -6.625 C 5.59375 -4.8125 6.023438 -3.410156 6.890625 -2.421875 C 7.753906 -1.441406 9.023438 -0.953125 10.703125 -0.953125 C 12.242188 -0.953125 13.460938 -1.421875 14.359375 -2.359375 C 15.253906 -3.296875 15.703125 -4.6875 15.703125 -6.53125 L 15.703125 -16.625 C 15.703125 -17.363281 15.609375 -17.925781 15.421875 -18.3125 C 15.234375 -18.695312 15.023438 -18.953125 14.796875 -19.078125 C 14.578125 -19.210938 14.46875 -19.257812 14.46875 -19.21875 L 18.5 -19.21875 C 18.5 -19.257812 18.382812 -19.210938 18.15625 -19.078125 C 17.9375 -18.953125 17.734375 -18.695312 17.546875 -18.3125 C 17.359375 -17.925781 17.265625 -17.363281 17.265625 -16.625 Z M 17.265625 -6.671875 "/></g></g></g><g fill="#ffffff" fill-opacity="1"><g transform="translate(269.799649, 239.115257)"><g><path d="M 1.78125 -9.390625 C 1.78125 -11.359375 2.203125 -13.113281 3.046875 -14.65625 C 3.898438 -16.207031 5.09375 -17.410156 6.625 -18.265625 C 8.164062 -19.128906 9.941406 -19.5625 11.953125 -19.5625 C 13.628906 -19.5625 15.195312 -19.191406 16.65625 -18.453125 C 18.125 -17.710938 19.300781 -16.609375 20.1875 -15.140625 C 21.070312 -13.671875 21.515625 -11.898438 21.515625 -9.828125 C 21.515625 -7.816406 21.078125 -6.035156 20.203125 -4.484375 C 19.335938 -2.929688 18.125 -1.734375 16.5625 -0.890625 C 17.363281 -0.0859375 18.273438 0.640625 19.296875 1.296875 C 20.328125 1.960938 21.285156 2.484375 22.171875 2.859375 C 23.066406 3.242188 23.738281 3.4375 24.1875 3.4375 L 24.359375 3.4375 C 24.046875 3.582031 23.632812 3.703125 23.125 3.796875 C 22.625 3.890625 22.132812 3.9375 21.65625 3.9375 C 20.664062 3.9375 19.519531 3.609375 18.21875 2.953125 C 16.925781 2.304688 15.601562 1.320312 14.25 0 C 13.1875 0.21875 12.21875 0.328125 11.34375 0.328125 C 9.664062 0.328125 8.09375 -0.0351562 6.625 -0.765625 C 5.164062 -1.503906 3.992188 -2.609375 3.109375 -4.078125 C 2.222656 -5.546875 1.78125 -7.316406 1.78125 -9.390625 Z M 19.28125 -9.421875 C 19.28125 -11.109375 18.929688 -12.632812 18.234375 -14 C 17.535156 -15.375 16.570312 -16.445312 15.34375 -17.21875 C 14.125 -18 12.753906 -18.390625 11.234375 -18.390625 C 9.835938 -18.390625 8.59375 -18.035156 7.5 -17.328125 C 6.40625 -16.617188 5.550781 -15.613281 4.9375 -14.3125 C 4.320312 -13.019531 4.015625 -11.519531 4.015625 -9.8125 C 4.015625 -8.113281 4.363281 -6.578125 5.0625 -5.203125 C 5.769531 -3.835938 6.734375 -2.769531 7.953125 -2 C 9.171875 -1.226562 10.539062 -0.84375 12.0625 -0.84375 C 13.46875 -0.84375 14.710938 -1.195312 15.796875 -1.90625 C 16.890625 -2.613281 17.742188 -3.613281 18.359375 -4.90625 C 18.972656 -6.195312 19.28125 -7.703125 19.28125 -9.421875 Z M 19.28125 -9.421875 "/></g></g></g><g fill="#ffffff" fill-opacity="1"><g transform="translate(293.100356, 239.115257)"><g><path d="M 2.34375 0 C 2.34375 0.0507812 2.453125 0.0078125 2.671875 -0.125 C 2.898438 -0.257812 3.109375 -0.519531 3.296875 -0.90625 C 3.484375 -1.289062 3.578125 -1.851562 3.578125 -2.59375 L 3.578125 -16.625 C 3.578125 -17.363281 3.488281 -17.925781 3.3125 -18.3125 C 3.132812 -18.695312 2.929688 -18.953125 2.703125 -19.078125 C 2.484375 -19.210938 2.375 -19.257812 2.375 -19.21875 L 6.8125 -19.21875 C 6.8125 -19.257812 6.695312 -19.210938 6.46875 -19.078125 C 6.25 -18.953125 6.046875 -18.695312 5.859375 -18.3125 C 5.679688 -17.925781 5.59375 -17.363281 5.59375 -16.625 L 5.59375 -2.59375 C 5.59375 -1.851562 5.679688 -1.289062 5.859375 -0.90625 C 6.046875 -0.519531 6.25 -0.257812 6.46875 -0.125 C 6.695312 0 6.8125 0.0390625 6.8125 0 Z M 2.34375 0 "/></g></g></g></svg>