<svg xmlns="http://www.w3.org/2000/svg" xmlns:xlink="http://www.w3.org/1999/xlink" width="500" zoomAndPan="magnify" viewBox="0 0 375 374.999991" height="500" preserveAspectRatio="xMidYMid meet" version="1.0"><defs><g/><clipPath id="f8c64c52c9"><path d="M 0 125.238281 L 126.34375 125.238281 L 126.34375 258.738281 L 0 258.738281 Z M 0 125.238281 " clip-rule="nonzero"/></clipPath></defs><g clip-path="url(#f8c64c52c9)"><path fill="#ffffff" d="M 22.402344 193.976562 C 22.21875 193.980469 22.113281 193.890625 22.089844 193.707031 C 22.054688 192.972656 22.113281 192.242188 22.269531 191.523438 C 21.195312 190.257812 19.996094 189.125 18.667969 188.128906 C 16.609375 190.984375 14.007812 191.488281 11.605469 191.488281 C 10.914062 191.488281 10.234375 191.445312 9.59375 191.40625 C 8.726562 191.324219 7.855469 191.316406 6.988281 191.378906 C 6.847656 191.394531 6.746094 191.339844 6.675781 191.21875 C 6.609375 191.101562 6.617188 190.984375 6.699219 190.875 C 8.410156 188.617188 12.28125 186.714844 17.308594 187.195312 C 14.492188 185.449219 11.445312 184.34375 8.167969 183.871094 C 4.746094 186.324219 1.1875 186.144531 -1.679688 186 C -3.0625 185.847656 -4.4375 185.90625 -5.804688 186.183594 C -5.945312 186.226562 -6.0625 186.191406 -6.152344 186.070312 C -6.238281 185.949219 -6.238281 185.828125 -6.15625 185.703125 C -5.453125 184.613281 -4.5625 183.703125 -3.488281 182.972656 C -2.414062 182.246094 -1.242188 181.753906 0.03125 181.503906 C 1.457031 181.246094 2.875 181.269531 4.289062 181.570312 C 5.703125 181.871094 7.007812 182.425781 8.207031 183.238281 C 10.621094 183.59375 12.941406 184.277344 15.160156 185.296875 C 12 180.59375 12.457031 178.035156 13.449219 174.402344 C 13.492188 174.246094 13.59375 174.167969 13.753906 174.167969 C 13.910156 174.167969 14.011719 174.242188 14.058594 174.394531 C 14.367188 175.324219 14.753906 176.21875 15.222656 177.082031 C 16.414062 179.464844 17.765625 182.15625 16.542969 186.003906 C 18.777344 187.25 20.738281 188.832031 22.429688 190.75 C 22.617188 189.886719 22.910156 189.058594 23.308594 188.269531 C 23.085938 187.304688 23.054688 186.335938 23.214844 185.359375 C 23.703125 182.207031 26.140625 178.796875 30.351562 178.761719 L 30.433594 178.761719 C 34.988281 178.761719 37.949219 182.046875 40.820312 185.222656 C 41.804688 186.316406 42.738281 187.351562 43.726562 188.25 C 43.980469 188.480469 44.234375 188.699219 44.484375 188.90625 C 49.871094 190.042969 57.378906 183.148438 60.761719 168.082031 C 61.535156 164.636719 64.378906 160.917969 67.976562 156.214844 C 73.390625 149.140625 80.125 140.335938 83.253906 127.910156 C 83.652344 126.328125 84.136719 125.449219 84.683594 125.304688 C 84.957031 125.234375 85.1875 125.308594 85.375 125.519531 C 86.246094 126.417969 86.597656 130.617188 85.042969 137.164062 C 86.035156 136.015625 87.339844 134.941406 88.152344 135.242188 C 89.011719 135.5625 88.761719 137 88.675781 137.476562 C 88.207031 140.261719 87.515625 142.996094 86.609375 145.675781 C 87.765625 144.457031 89.164062 143.59375 90.039062 143.902344 C 90.71875 144.140625 90.96875 144.921875 90.777344 146.222656 C 90.398438 148.929688 89.558594 151.488281 88.265625 153.898438 C 88.566406 153.6875 88.902344 153.5625 89.273438 153.523438 C 89.640625 153.480469 89.996094 153.53125 90.339844 153.667969 C 90.910156 153.988281 91.433594 154.851562 90.679688 157.15625 C 90.125 158.710938 89.480469 160.226562 88.75 161.707031 C 91.09375 160.453125 93.253906 158.933594 95.230469 157.152344 C 96.085938 156.328125 96.84375 155.988281 97.417969 156.164062 C 97.828125 156.308594 98.058594 156.597656 98.117188 157.027344 C 98.183594 157.460938 98.160156 157.890625 98.046875 158.316406 L 98.097656 158.289062 C 104.902344 154.476562 114.222656 149.253906 119.613281 140.488281 C 121.542969 137.347656 122.347656 137.019531 122.777344 137.050781 C 123.066406 137.074219 123.261719 137.222656 123.359375 137.496094 C 123.925781 138.761719 122.636719 143.523438 120.808594 146.835938 C 122.625 145.472656 124.074219 144.96875 124.828125 145.492188 C 125.226562 145.765625 125.570312 146.410156 124.964844 147.929688 C 124.09375 149.871094 123.027344 151.703125 121.769531 153.421875 C 124.105469 152.703125 125.351562 152.519531 125.863281 153.175781 C 126.320312 153.761719 126.007812 154.820312 124.820312 156.71875 C 123.207031 159.0625 121.34375 161.183594 119.226562 163.082031 C 121.292969 162.355469 123.773438 161.761719 124.535156 162.757812 C 125.027344 163.402344 124.707031 164.445312 123.554688 165.949219 C 122.378906 167.394531 121.046875 168.675781 119.558594 169.796875 C 120.332031 169.683594 121.019531 169.878906 121.617188 170.386719 C 122.253906 171.125 121.808594 172.289062 120.292969 173.84375 C 118.179688 176.054688 115.800781 177.929688 113.15625 179.464844 C 114.972656 179.421875 116.917969 179.90625 117.402344 180.847656 C 117.605469 181.242188 117.65625 181.875 116.75 182.644531 C 115.609375 183.613281 112.085938 186.25 105.429688 188.332031 C 107.101562 188.71875 108.859375 189.707031 109.25 190.820312 C 109.390625 191.226562 109.476562 192.019531 108.4375 192.757812 C 106.808594 193.910156 104.59375 195.054688 100.511719 195.566406 C 101.789062 196.054688 103.28125 196.855469 103.472656 197.796875 C 103.511719 198.050781 103.472656 198.292969 103.355469 198.519531 C 103.238281 198.75 103.0625 198.921875 102.835938 199.039062 C 101.070312 200.246094 99.125 200.796875 96.992188 200.691406 C 96.605469 200.691406 96.199219 200.675781 95.769531 200.652344 C 96.257812 201.28125 96.519531 201.996094 96.554688 202.792969 C 96.542969 203.390625 96.308594 203.886719 95.859375 204.28125 C 95.03125 204.980469 94.078125 205.296875 92.992188 205.222656 C 92.113281 205.207031 91.242188 205.097656 90.382812 204.894531 C 90.636719 205.4375 90.738281 206.007812 90.691406 206.601562 C 90.644531 207.199219 90.457031 207.746094 90.121094 208.242188 C 89.21875 209.523438 87.3125 210.234375 85.171875 210.113281 C 85.242188 210.480469 85.21875 210.839844 85.101562 211.191406 C 84.984375 211.546875 84.792969 211.847656 84.519531 212.101562 C 83.558594 213.003906 81.710938 213.171875 79.605469 212.589844 C 79.839844 213.21875 79.769531 213.8125 79.398438 214.371094 C 78.832031 215.109375 77.570312 215.363281 75.457031 215.15625 C 76.269531 216.320312 76.457031 217.226562 76.015625 217.84375 C 75.535156 218.367188 74.9375 218.589844 74.230469 218.511719 C 73.601562 218.5 72.980469 218.410156 72.371094 218.242188 C 83.699219 231.125 92.449219 253.707031 92.050781 256.976562 C 92.050781 257.21875 91.945312 257.398438 91.734375 257.519531 C 89.894531 258.390625 84.792969 249.941406 80.523438 242.066406 C 81.089844 246.429688 82.289062 257.453125 80.050781 257.859375 C 78.191406 258.191406 77.25 253.742188 75.871094 246.449219 C 75.730469 245.695312 75.585938 244.933594 75.4375 244.179688 C 74.953125 248.742188 73.425781 256.871094 72.027344 258.28125 C 71.871094 258.460938 71.679688 258.554688 71.441406 258.566406 C 71.214844 258.566406 71.03125 258.484375 70.886719 258.308594 C 69.726562 257.082031 69.851562 250.390625 70.152344 243.648438 C 68.292969 248.046875 63.996094 255.523438 62.28125 256.285156 C 62.078125 256.394531 61.867188 256.398438 61.65625 256.304688 C 59.992188 255.488281 62.621094 246.628906 64.4375 241.679688 C 61.753906 244.472656 56.621094 248.71875 55.089844 248.886719 C 54.898438 248.921875 54.726562 248.878906 54.570312 248.761719 C 53.304688 247.707031 57.300781 242.035156 59.863281 238.667969 C 57.097656 240.089844 51.890625 242.4375 51.144531 241.402344 C 51.023438 241.21875 50.988281 241.015625 51.042969 240.800781 C 51.324219 239.214844 55.117188 235.234375 61.855469 230.578125 C 60.519531 230.527344 59.234375 230.539062 58.042969 230.546875 C 56.96875 230.554688 55.949219 230.5625 55.066406 230.523438 C 53.683594 231.269531 52.207031 231.675781 50.640625 231.742188 C 49.917969 231.746094 49.230469 231.597656 48.574219 231.296875 C 47.695312 230.953125 46.695312 230.46875 45.648438 229.964844 C 44.140625 229.175781 42.578125 228.515625 40.964844 227.980469 C 40.480469 228.53125 40.164062 229.167969 40.015625 229.886719 C 39.863281 230.601562 39.894531 231.3125 40.113281 232.011719 C 40.144531 232.089844 40.144531 232.171875 40.113281 232.253906 C 40.078125 232.332031 40.019531 232.390625 39.941406 232.421875 C 39.902344 232.4375 39.863281 232.445312 39.820312 232.445312 C 39.679688 232.445312 39.582031 232.382812 39.527344 232.25 C 39.28125 231.496094 39.222656 230.726562 39.351562 229.941406 C 39.484375 229.160156 39.785156 228.449219 40.265625 227.816406 C 39.675781 227.65625 39.105469 227.703125 38.550781 227.953125 C 38.121094 228.203125 37.785156 228.546875 37.546875 228.984375 C 37.308594 229.421875 37.199219 229.890625 37.222656 230.386719 C 37.222656 230.476562 37.1875 230.550781 37.125 230.609375 C 37.0625 230.667969 36.988281 230.699219 36.898438 230.695312 C 36.8125 230.695312 36.738281 230.664062 36.679688 230.597656 C 36.617188 230.535156 36.589844 230.460938 36.589844 230.375 C 36.570312 229.765625 36.710938 229.195312 37.003906 228.664062 C 37.296875 228.132812 37.707031 227.710938 38.234375 227.40625 C 39.863281 226.464844 42.945312 227.953125 45.925781 229.394531 C 46.546875 229.695312 47.15625 229.988281 47.726562 230.25 C 47.421875 229.742188 47.183594 229.203125 47.015625 228.632812 C 46.21875 228.023438 45.375 227.492188 44.480469 227.039062 C 42.824219 226.222656 41.34375 225.160156 40.035156 223.855469 C 39.089844 223.617188 38.171875 223.304688 37.277344 222.914062 C 36.746094 222.703125 36.191406 222.484375 35.660156 222.296875 C 34.667969 222.589844 34.226562 223.621094 34.34375 225.367188 C 34.351562 225.453125 34.324219 225.53125 34.265625 225.597656 C 34.210938 225.664062 34.136719 225.699219 34.050781 225.703125 C 33.964844 225.707031 33.886719 225.683594 33.820312 225.625 C 33.757812 225.566406 33.71875 225.496094 33.714844 225.410156 C 33.582031 223.480469 34.121094 222.507812 34.789062 222.023438 C 34.25 221.828125 33.695312 221.789062 33.128906 221.898438 C 32.8125 222.035156 32.550781 222.238281 32.335938 222.507812 C 32.125 222.777344 31.988281 223.082031 31.929688 223.417969 C 31.699219 224.101562 31.773438 224.75 32.144531 225.363281 C 32.207031 225.425781 32.234375 225.503906 32.226562 225.589844 C 32.222656 225.679688 32.191406 225.75 32.125 225.808594 C 32.0625 225.863281 31.992188 225.890625 31.910156 225.890625 C 31.820312 225.890625 31.742188 225.859375 31.679688 225.789062 C 31.425781 225.417969 31.265625 225.011719 31.203125 224.566406 C 31.136719 224.121094 31.175781 223.6875 31.316406 223.261719 C 31.402344 222.816406 31.585938 222.421875 31.871094 222.074219 C 32.15625 221.726562 32.507812 221.46875 32.925781 221.300781 C 34.003906 220.9375 35.785156 221.644531 37.507812 222.328125 C 38.121094 222.570312 38.710938 222.804688 39.246094 222.984375 C 37.515625 220.921875 35.730469 217.78125 34.003906 212.65625 C 33.703125 212.613281 33.4375 212.5 33.195312 212.316406 C 32.042969 211.515625 30.671875 209.40625 30.386719 206.675781 C 30.277344 204.882812 30.371094 203.101562 30.664062 201.332031 C 31.082031 198.046875 31.472656 194.945312 29.5 192.515625 C 28.574219 192.542969 27.671875 192.40625 26.796875 192.109375 C 26.648438 192.0625 26.5 192.007812 26.355469 191.945312 C 25.804688 192.507812 25.152344 192.90625 24.402344 193.136719 C 27.800781 197.679688 30.640625 210.542969 22.78125 223.144531 C 22.71875 223.246094 22.628906 223.292969 22.511719 223.292969 C 22.449219 223.292969 22.394531 223.277344 22.34375 223.246094 C 22.269531 223.199219 22.222656 223.132812 22.203125 223.046875 C 22.183594 222.964844 22.195312 222.882812 22.242188 222.808594 C 30.035156 210.320312 27.136719 197.625 23.78125 193.367188 C 23.363281 193.492188 22.972656 193.675781 22.609375 193.914062 C 22.546875 193.960938 22.480469 193.980469 22.402344 193.976562 Z M 7.886719 190.699219 C 8.441406 190.699219 9.027344 190.734375 9.632812 190.773438 C 12.441406 190.949219 15.605469 191.144531 18.039062 187.914062 C 12.761719 187.148438 9.265625 189.085938 7.683594 190.699219 C 7.75 190.699219 7.820312 190.699219 7.886719 190.699219 Z M 13.800781 175.546875 C 13.007812 178.714844 12.949219 181.082031 16.042969 185.460938 C 17.003906 182.046875 15.8125 179.667969 14.65625 177.359375 C 14.347656 176.742188 14.046875 176.144531 13.800781 175.546875 Z M 22.921875 191.46875 C 22.921875 191.488281 22.917969 191.503906 22.914062 191.523438 C 22.808594 192.046875 22.738281 192.570312 22.703125 193.101562 C 22.980469 192.972656 23.3125 192.851562 23.671875 192.71875 L 23.753906 192.6875 C 23.769531 192.679688 23.785156 192.675781 23.804688 192.667969 C 24.527344 192.460938 25.183594 192.113281 25.769531 191.636719 C 24.757812 191.050781 24.035156 190.21875 23.597656 189.136719 C 23.296875 189.890625 23.074219 190.667969 22.925781 191.46875 Z M -3.578125 185.296875 C -2.957031 185.296875 -2.308594 185.332031 -1.648438 185.359375 C 1.179688 185.503906 4.371094 185.664062 7.519531 183.542969 C 6.421875 182.855469 5.242188 182.386719 3.96875 182.140625 C 2.699219 181.894531 1.425781 181.886719 0.152344 182.113281 C -0.902344 182.320312 -1.886719 182.707031 -2.796875 183.269531 C -3.710938 183.835938 -4.496094 184.542969 -5.15625 185.394531 C -4.628906 185.324219 -4.105469 185.292969 -3.574219 185.296875 Z M 87.519531 155.289062 C 86.753906 156.679688 85.808594 158.242188 84.644531 160.09375 C 84.597656 160.167969 84.53125 160.214844 84.445312 160.234375 C 84.363281 160.253906 84.28125 160.238281 84.210938 160.191406 C 84.136719 160.148438 84.089844 160.082031 84.070312 159.996094 C 84.050781 159.910156 84.0625 159.832031 84.109375 159.757812 C 88.648438 152.550781 89.609375 149.835938 90.152344 146.121094 C 90.230469 145.582031 90.292969 144.652344 89.832031 144.488281 C 89.082031 144.21875 87.042969 145.707031 85.886719 147.644531 C 85.15625 149.523438 84.316406 151.351562 83.375 153.132812 C 83.332031 153.210938 83.269531 153.261719 83.1875 153.289062 C 83.105469 153.3125 83.023438 153.304688 82.945312 153.265625 C 82.867188 153.222656 82.816406 153.160156 82.792969 153.078125 C 82.765625 152.996094 82.773438 152.914062 82.816406 152.835938 C 85.402344 147.960938 87.148438 142.804688 88.054688 137.359375 C 88.234375 136.328125 88.101562 135.886719 87.933594 135.824219 C 87.378906 135.625 85.613281 137.195312 84.644531 138.730469 C 84.5 139.273438 84.339844 139.828125 84.167969 140.398438 C 84.144531 140.480469 84.09375 140.542969 84.015625 140.585938 C 83.9375 140.628906 83.859375 140.636719 83.773438 140.609375 C 83.691406 140.585938 83.628906 140.535156 83.585938 140.457031 C 83.546875 140.378906 83.539062 140.300781 83.5625 140.214844 C 85.957031 132.257812 85.722656 126.78125 84.917969 125.953125 C 84.898438 125.929688 84.867188 125.902344 84.847656 125.90625 C 84.683594 125.949219 84.273438 126.457031 83.867188 128.058594 C 80.707031 140.605469 73.925781 149.46875 68.480469 156.589844 C 64.925781 161.234375 62.121094 164.902344 61.378906 168.214844 C 58.160156 182.558594 51.15625 189.652344 45.621094 189.652344 C 45.558594 189.652344 45.5 189.652344 45.441406 189.652344 C 47.949219 191.492188 50.335938 192.234375 52.847656 191.949219 C 54.714844 191.738281 55.363281 191.371094 56.929688 190.410156 C 58.664062 189.34375 60.265625 188.109375 61.742188 186.707031 C 63.21875 185.308594 64.535156 183.769531 65.695312 182.097656 C 66.851562 180.421875 67.824219 178.648438 68.609375 176.773438 C 69.398438 174.898438 69.984375 172.960938 70.371094 170.960938 C 70.691406 169.28125 71.03125 168.976562 71.320312 168.898438 C 71.554688 168.839844 71.742188 168.90625 71.886719 169.097656 C 72.210938 169.472656 72.457031 170.515625 72.5625 171.882812 C 76.390625 168.117188 79.035156 166.578125 81.128906 165.574219 C 83.222656 164.570312 85.546875 163.453125 87.785156 162.238281 C 88.652344 160.523438 89.417969 158.761719 90.082031 156.957031 C 90.558594 155.5 90.539062 154.503906 90.03125 154.21875 C 89.460938 153.890625 88.300781 154.398438 87.519531 155.289062 Z M 80.628906 157.488281 C 80.746094 157.488281 80.832031 157.441406 80.894531 157.34375 C 81.097656 157.03125 81.296875 156.722656 81.488281 156.414062 C 81.535156 156.339844 81.546875 156.257812 81.527344 156.171875 C 81.507812 156.089844 81.460938 156.023438 81.386719 155.976562 C 81.3125 155.929688 81.234375 155.917969 81.148438 155.9375 C 81.0625 155.957031 80.996094 156.003906 80.953125 156.078125 C 80.761719 156.386719 80.566406 156.691406 80.367188 157 C 80.296875 157.105469 80.289062 157.214844 80.351562 157.324219 C 80.410156 157.433594 80.503906 157.488281 80.628906 157.488281 Z M 81.03125 148.261719 C 81.167969 148.261719 81.265625 148.199219 81.320312 148.074219 C 81.941406 146.660156 82.515625 145.238281 83.019531 143.84375 C 83.046875 143.761719 83.042969 143.683594 83.007812 143.605469 C 82.96875 143.523438 82.910156 143.472656 82.828125 143.441406 C 82.746094 143.410156 82.667969 143.414062 82.589844 143.453125 C 82.507812 143.488281 82.453125 143.546875 82.425781 143.628906 C 81.921875 145.007812 81.355469 146.417969 80.742188 147.820312 C 80.707031 147.898438 80.703125 147.980469 80.734375 148.0625 C 80.765625 148.140625 80.824219 148.199219 80.902344 148.234375 C 80.945312 148.25 80.988281 148.257812 81.03125 148.257812 Z M 71.539062 217.316406 C 73.40625 218 75.066406 218.0625 75.496094 217.464844 C 75.808594 217.023438 75.453125 216.105469 74.507812 214.945312 C 74.417969 214.832031 74.40625 214.714844 74.480469 214.589844 C 74.546875 214.460938 74.652344 214.410156 74.796875 214.429688 C 77.046875 214.738281 78.425781 214.582031 78.890625 213.976562 C 79.171875 213.613281 79.140625 213.019531 78.804688 212.21875 C 78.75 212.089844 78.769531 211.976562 78.863281 211.878906 C 78.957031 211.777344 79.070312 211.75 79.199219 211.796875 C 81.296875 212.507812 83.214844 212.445312 84.082031 211.632812 C 84.320312 211.398438 84.472656 211.117188 84.542969 210.792969 C 84.613281 210.464844 84.589844 210.148438 84.472656 209.835938 C 84.441406 209.730469 84.464844 209.632812 84.535156 209.546875 C 84.609375 209.464844 84.699219 209.429688 84.808594 209.441406 C 86.886719 209.667969 88.765625 209.050781 89.597656 207.867188 C 90.191406 207.019531 90.195312 205.929688 89.609375 204.703125 C 88.738281 204.484375 87.773438 204.191406 86.699219 203.824219 C 86.613281 203.796875 86.554688 203.742188 86.515625 203.664062 C 86.476562 203.585938 86.472656 203.507812 86.5 203.425781 C 86.527344 203.339844 86.582031 203.28125 86.660156 203.242188 C 86.738281 203.203125 86.816406 203.199219 86.902344 203.226562 C 91.585938 204.820312 94.136719 204.992188 95.425781 203.800781 C 95.742188 203.53125 95.90625 203.183594 95.917969 202.765625 C 95.828125 201.917969 95.492188 201.1875 94.902344 200.570312 C 93.867188 200.472656 92.699219 200.300781 91.378906 200.046875 C 91.292969 200.03125 91.222656 199.984375 91.175781 199.914062 C 91.125 199.839844 91.109375 199.761719 91.125 199.675781 C 91.140625 199.589844 91.1875 199.523438 91.257812 199.472656 C 91.332031 199.425781 91.410156 199.410156 91.496094 199.425781 C 98.445312 200.753906 100.730469 199.699219 102.46875 198.503906 C 102.90625 198.207031 102.859375 197.984375 102.847656 197.910156 C 102.683594 197.097656 100.367188 196.027344 98.90625 195.710938 C 97.902344 195.785156 96.792969 195.828125 95.578125 195.828125 C 94.585938 195.828125 93.519531 195.800781 92.371094 195.742188 C 92.285156 195.738281 92.214844 195.703125 92.15625 195.640625 C 92.097656 195.574219 92.070312 195.5 92.074219 195.414062 C 92.078125 195.324219 92.113281 195.253906 92.175781 195.195312 C 92.242188 195.136719 92.316406 195.109375 92.40625 195.113281 C 101.953125 195.597656 105.679688 193.929688 108.070312 192.230469 C 108.875 191.660156 108.707031 191.179688 108.652344 191.019531 C 108.257812 189.898438 105.652344 188.703125 103.84375 188.792969 C 101.4375 189.457031 98.996094 189.96875 96.527344 190.332031 C 96.511719 190.332031 96.496094 190.332031 96.480469 190.332031 C 96.390625 190.335938 96.316406 190.3125 96.25 190.253906 C 96.183594 190.199219 96.148438 190.125 96.140625 190.039062 C 96.136719 189.953125 96.160156 189.875 96.21875 189.808594 C 96.273438 189.746094 96.347656 189.707031 96.433594 189.703125 C 108.828125 187.859375 114.804688 183.457031 116.339844 182.152344 C 116.8125 181.75 116.980469 181.402344 116.835938 181.121094 C 116.394531 180.257812 113.605469 179.800781 111.679688 180.269531 C 108.316406 181.964844 104.828125 183.347656 101.214844 184.414062 C 101.183594 184.425781 101.152344 184.429688 101.121094 184.429688 C 100.929688 184.441406 100.820312 184.351562 100.792969 184.164062 C 100.761719 183.976562 100.839844 183.859375 101.027344 183.8125 C 111.367188 180.589844 115.890625 177.4375 119.839844 173.390625 C 121.03125 172.167969 121.507812 171.21875 121.136719 170.789062 C 120.644531 170.214844 118.851562 170.390625 118.316406 170.730469 C 117.648438 171.21875 116.929688 171.71875 116.167969 172.230469 C 116.113281 172.265625 116.054688 172.28125 115.992188 172.28125 C 115.835938 172.285156 115.730469 172.210938 115.6875 172.058594 C 115.640625 171.90625 115.683594 171.789062 115.816406 171.703125 C 119.234375 169.425781 121.667969 167.359375 123.050781 165.554688 C 124.332031 163.886719 124.164062 163.304688 124.035156 163.136719 C 123.628906 162.605469 121.59375 162.738281 117.96875 164.230469 C 115.085938 166.816406 112.050781 169.203125 108.863281 171.394531 C 108.8125 171.433594 108.75 171.449219 108.6875 171.449219 C 108.53125 171.453125 108.429688 171.378906 108.382812 171.230469 C 108.335938 171.078125 108.378906 170.960938 108.507812 170.875 C 114.324219 166.902344 121.613281 160.648438 124.285156 156.375 C 125.605469 154.269531 125.480469 153.703125 125.367188 153.554688 C 124.972656 153.046875 122.535156 153.824219 121.152344 154.273438 C 120.246094 155.496094 119.214844 156.773438 118.082031 158.023438 C 118.023438 158.089844 117.949219 158.125 117.863281 158.128906 C 117.777344 158.132812 117.699219 158.105469 117.636719 158.046875 C 117.570312 157.988281 117.535156 157.917969 117.53125 157.828125 C 117.527344 157.742188 117.554688 157.664062 117.613281 157.601562 C 121.578125 153.21875 123.773438 149.199219 124.378906 147.683594 C 124.722656 146.828125 124.753906 146.199219 124.472656 146.003906 C 124.019531 145.6875 122.347656 146.140625 119.613281 148.664062 C 119.550781 148.726562 119.480469 148.761719 119.394531 148.765625 C 119.304688 148.769531 119.230469 148.738281 119.167969 148.679688 C 119.105469 148.621094 119.070312 148.550781 119.066406 148.464844 C 119.0625 148.375 119.089844 148.300781 119.148438 148.238281 C 121.394531 145.386719 123.140625 139.566406 122.839844 137.933594 C 122.800781 137.71875 122.742188 137.671875 122.738281 137.671875 C 122.738281 137.671875 122.144531 137.570312 120.15625 140.8125 C 114.679688 149.71875 105.277344 154.984375 98.410156 158.832031 L 97.789062 159.183594 C 97.125 160.804688 96.21875 162.273438 95.0625 163.59375 C 95.632812 163.621094 96.054688 163.882812 96.335938 164.378906 C 96.390625 164.476562 96.4375 164.582031 96.476562 164.691406 C 100.484375 162.867188 104.253906 160.636719 107.78125 158 C 107.851562 157.949219 107.929688 157.925781 108.015625 157.9375 C 108.101562 157.949219 108.171875 157.992188 108.226562 158.0625 C 108.277344 158.128906 108.296875 158.207031 108.285156 158.292969 C 108.273438 158.378906 108.234375 158.449219 108.164062 158.503906 C 104.558594 161.195312 100.703125 163.46875 96.601562 165.324219 C 96.699219 166.894531 95.53125 169.339844 92.519531 172.171875 C 92.949219 172.125 93.359375 172.195312 93.75 172.382812 C 94.140625 172.570312 94.449219 172.847656 94.679688 173.210938 C 95.0625 173.945312 95.371094 175.988281 90.484375 179.523438 C 90.863281 179.535156 91.210938 179.644531 91.527344 179.855469 C 91.84375 180.066406 92.078125 180.34375 92.234375 180.691406 C 92.511719 181.558594 92.042969 183.066406 88.398438 185.40625 C 88.714844 185.496094 88.992188 185.652344 89.230469 185.878906 C 89.46875 186.109375 89.640625 186.378906 89.742188 186.691406 C 89.929688 187.402344 89.703125 188.570312 87.566406 190.125 C 87.496094 190.175781 87.417969 190.195312 87.332031 190.183594 C 87.242188 190.167969 87.175781 190.128906 87.125 190.054688 C 87.070312 189.984375 87.054688 189.90625 87.066406 189.820312 C 87.082031 189.734375 87.121094 189.664062 87.195312 189.613281 C 88.613281 188.582031 89.320312 187.574219 89.132812 186.847656 C 88.996094 186.332031 88.390625 185.949219 87.546875 185.851562 C 87.394531 185.835938 87.304688 185.753906 87.269531 185.605469 C 87.238281 185.457031 87.289062 185.34375 87.421875 185.265625 C 91.785156 182.621094 91.75 181.242188 91.632812 180.882812 C 91.464844 180.347656 90.628906 180.046875 89.546875 180.125 C 89.386719 180.136719 89.277344 180.066406 89.222656 179.914062 C 89.167969 179.761719 89.210938 179.640625 89.34375 179.546875 C 93.664062 176.617188 94.644531 174.503906 94.121094 173.503906 C 93.757812 172.8125 92.632812 172.597656 91.554688 173.011719 C 91.386719 173.082031 91.257812 173.042969 91.160156 172.882812 C 91.066406 172.726562 91.09375 172.589844 91.238281 172.476562 C 96.007812 168.355469 96.300781 165.582031 95.789062 164.691406 C 95.644531 164.46875 95.449219 164.316406 95.195312 164.242188 C 94.941406 164.167969 94.695312 164.183594 94.457031 164.292969 C 93.496094 165.351562 92.472656 166.34375 91.382812 167.269531 C 91.316406 167.328125 91.242188 167.351562 91.15625 167.34375 C 91.066406 167.335938 90.996094 167.300781 90.941406 167.234375 C 90.882812 167.167969 90.859375 167.089844 90.867188 167.003906 C 90.871094 166.917969 90.90625 166.847656 90.972656 166.789062 C 96.246094 162.273438 97.777344 158.476562 97.5 157.144531 C 97.457031 156.929688 97.367188 156.800781 97.238281 156.757812 C 96.984375 156.683594 96.441406 156.859375 95.671875 157.597656 C 92.160156 160.976562 86.195312 163.839844 81.410156 166.136719 C 79.292969 167.152344 76.59375 168.730469 72.609375 172.722656 C 72.699219 175.019531 72.40625 177.273438 71.742188 179.472656 C 72.28125 179.03125 72.671875 178.484375 72.917969 177.828125 C 73 177.59375 73.167969 177.464844 73.414062 177.445312 C 73.597656 177.445312 73.859375 177.554688 74.058594 178.054688 C 74.515625 179.199219 74.679688 183.039062 70.371094 187.507812 C 70.9375 187.425781 71.492188 187.300781 72.039062 187.136719 C 72.179688 187.089844 72.320312 187.089844 72.464844 187.136719 C 72.605469 187.183594 72.71875 187.265625 72.808594 187.386719 C 73.210938 187.929688 73 189.019531 72.265625 190.171875 C 72.21875 190.246094 72.152344 190.292969 72.066406 190.308594 C 71.980469 190.328125 71.902344 190.316406 71.828125 190.269531 C 71.753906 190.222656 71.710938 190.15625 71.691406 190.070312 C 71.671875 189.984375 71.6875 189.90625 71.734375 189.832031 C 72.46875 188.679688 72.433594 187.941406 72.296875 187.765625 C 72.28125 187.742188 72.269531 187.726562 72.210938 187.742188 C 71.347656 188.027344 70.460938 188.167969 69.554688 188.171875 C 69.414062 188.164062 69.320312 188.09375 69.273438 187.964844 C 69.226562 187.835938 69.253906 187.722656 69.351562 187.628906 C 73.582031 183.5625 73.707031 180.140625 73.648438 179.191406 C 73.636719 178.855469 73.566406 178.53125 73.441406 178.21875 C 73.011719 179.269531 72.28125 180.035156 71.253906 180.519531 C 71.121094 180.585938 71.003906 180.566406 70.894531 180.464844 C 70.789062 180.363281 70.765625 180.246094 70.824219 180.109375 C 72.484375 176.207031 72.046875 170.355469 71.453125 169.554688 C 71.207031 170.03125 71.054688 170.535156 70.992188 171.070312 C 68.488281 184.203125 57.816406 192.71875 48.566406 194.347656 C 48.550781 194.347656 48.53125 194.351562 48.511719 194.351562 C 48.425781 194.359375 48.347656 194.335938 48.28125 194.277344 C 48.214844 194.222656 48.179688 194.152344 48.171875 194.0625 C 48.164062 193.976562 48.1875 193.902344 48.246094 193.835938 C 48.300781 193.769531 48.371094 193.730469 48.457031 193.722656 C 49.839844 193.472656 51.1875 193.097656 52.496094 192.59375 C 52.28125 192.605469 52.066406 192.613281 51.855469 192.613281 C 48.132812 192.613281 45.277344 190.488281 43.304688 188.703125 C 42.292969 187.78125 41.308594 186.691406 40.351562 185.632812 C 37.578125 182.558594 34.707031 179.378906 30.4375 179.378906 L 30.363281 179.378906 C 26.519531 179.414062 24.289062 182.546875 23.84375 185.445312 C 23.503906 187.648438 24.125 190.554688 26.992188 191.488281 C 28.8125 192.078125 30.523438 191.980469 31.691406 191.210938 C 32.046875 190.992188 32.339844 190.703125 32.5625 190.347656 C 32.785156 189.992188 32.917969 189.609375 32.964844 189.191406 C 32.972656 189.105469 33.011719 189.03125 33.078125 188.976562 C 33.144531 188.921875 33.222656 188.898438 33.308594 188.90625 C 33.394531 188.917969 33.464844 188.953125 33.523438 189.023438 C 33.578125 189.089844 33.601562 189.167969 33.589844 189.253906 C 33.539062 189.765625 33.375 190.242188 33.101562 190.679688 C 32.828125 191.117188 32.476562 191.46875 32.039062 191.742188 C 31.484375 192.097656 30.882812 192.324219 30.234375 192.421875 C 32.09375 195.011719 31.6875 198.253906 31.289062 201.390625 C 31.003906 203.113281 30.910156 204.847656 31.011719 206.589844 C 31.292969 209.296875 32.6875 211.179688 33.554688 211.78125 C 33.722656 211.929688 33.917969 212.003906 34.144531 212.003906 C 34.625 211.878906 34.789062 210.703125 34.945312 209.570312 C 35.113281 208.332031 35.308594 206.925781 35.960938 205.980469 C 36.035156 205.867188 36.140625 205.820312 36.273438 205.84375 C 36.410156 205.867188 36.492188 205.941406 36.527344 206.074219 C 36.851562 207.21875 37.726562 210.28125 38.488281 210.144531 C 38.925781 209.917969 39.476562 206.871094 39.738281 205.410156 C 39.863281 204.5625 40.042969 203.730469 40.277344 202.90625 C 40.328125 202.777344 40.421875 202.710938 40.5625 202.707031 C 40.695312 202.710938 40.796875 202.769531 40.859375 202.886719 C 41.15625 203.609375 41.667969 204.101562 42.402344 204.367188 C 42.632812 204.449219 42.855469 204.429688 43.070312 204.3125 C 43.097656 203.765625 43.035156 203.230469 42.890625 202.703125 C 42.757812 202.011719 42.597656 201.152344 42.503906 200.175781 C 42.496094 200.089844 42.519531 200.011719 42.574219 199.945312 C 42.628906 199.875 42.703125 199.839844 42.789062 199.832031 C 42.875 199.824219 42.953125 199.847656 43.019531 199.902344 C 43.089844 199.957031 43.125 200.027344 43.132812 200.117188 C 43.222656 201.0625 43.386719 201.910156 43.511719 202.585938 C 43.746094 203.835938 43.878906 204.527344 43.425781 204.835938 C 43.046875 205.066406 42.648438 205.113281 42.230469 204.976562 C 41.582031 204.773438 41.066406 204.390625 40.679688 203.828125 C 40.582031 204.289062 40.472656 204.898438 40.359375 205.519531 C 39.707031 209.132812 39.316406 210.660156 38.578125 210.769531 C 37.480469 210.925781 36.777344 209.167969 36.132812 207.003906 C 35.84375 207.867188 35.65625 208.75 35.570312 209.65625 C 35.394531 210.933594 35.238281 212.054688 34.609375 212.476562 C 38.105469 222.824219 41.648438 224.761719 44.777344 226.46875 C 45.457031 226.824219 46.113281 227.214844 46.75 227.636719 C 46.589844 226.894531 46.476562 226.148438 46.402344 225.394531 C 46.394531 225.308594 46.417969 225.230469 46.472656 225.164062 C 46.527344 225.097656 46.597656 225.058594 46.683594 225.050781 C 46.773438 225.042969 46.847656 225.066406 46.917969 225.121094 C 46.984375 225.175781 47.023438 225.246094 47.03125 225.332031 C 47.363281 228.589844 48.195312 230.523438 49.433594 230.925781 C 51.78125 231.6875 56.128906 229.835938 58.746094 226.960938 C 58.804688 226.894531 58.878906 226.859375 58.964844 226.855469 C 59.050781 226.851562 59.128906 226.878906 59.195312 226.9375 C 59.257812 226.996094 59.292969 227.070312 59.296875 227.15625 C 59.300781 227.246094 59.273438 227.320312 59.214844 227.386719 C 58.308594 228.367188 57.285156 229.207031 56.144531 229.90625 C 56.738281 229.910156 57.375 229.90625 58.03125 229.902344 C 61.597656 229.875 66.035156 229.84375 70.085938 231.382812 C 70.257812 231.441406 70.328125 231.558594 70.292969 231.734375 C 70.261719 231.914062 70.15625 232 69.976562 231.992188 C 69.9375 231.992188 69.898438 231.988281 69.863281 231.972656 C 67.609375 231.167969 65.285156 230.714844 62.894531 230.617188 C 54.359375 236.398438 51.394531 240.402344 51.652344 241.023438 C 52.203125 241.382812 57.15625 239.546875 60.851562 237.398438 C 61.003906 237.304688 61.140625 237.324219 61.257812 237.457031 C 61.375 237.59375 61.375 237.730469 61.261719 237.867188 C 56.027344 244.554688 54.578125 247.9375 54.96875 248.261719 C 55.910156 248.519531 62.9375 242.765625 65.105469 239.949219 C 65.148438 239.878906 65.210938 239.832031 65.292969 239.8125 C 65.375 239.792969 65.453125 239.804688 65.527344 239.847656 C 65.597656 239.890625 65.648438 239.949219 65.671875 240.03125 C 65.695312 240.113281 65.6875 240.191406 65.648438 240.265625 C 62.820312 247.226562 61.042969 255.296875 61.925781 255.730469 C 63.148438 255.730469 69.078125 245.613281 70.25 241.523438 C 70.269531 241.441406 70.3125 241.375 70.382812 241.332031 C 70.449219 241.285156 70.527344 241.265625 70.609375 241.28125 C 70.691406 241.292969 70.757812 241.335938 70.808594 241.402344 C 70.859375 241.46875 70.878906 241.542969 70.871094 241.625 C 70.652344 246.105469 70.132812 256.59375 71.335938 257.863281 C 71.359375 257.898438 71.390625 257.917969 71.429688 257.925781 C 71.429688 257.925781 71.476562 257.921875 71.570312 257.828125 C 73.070312 256.296875 74.996094 245.019531 74.953125 241.785156 C 74.941406 241.699219 74.964844 241.621094 75.019531 241.554688 C 75.074219 241.488281 75.144531 241.449219 75.230469 241.4375 C 75.316406 241.429688 75.394531 241.449219 75.460938 241.503906 C 75.53125 241.558594 75.570312 241.628906 75.578125 241.714844 C 75.894531 243.1875 76.191406 244.78125 76.484375 246.324219 C 77.402344 251.195312 78.546875 257.238281 79.851562 257.238281 C 79.878906 257.238281 79.902344 257.234375 79.929688 257.230469 C 81.40625 256.960938 80.488281 245.15625 79.652344 240.417969 C 79.609375 240.234375 79.679688 240.113281 79.855469 240.054688 C 80.03125 239.992188 80.160156 240.046875 80.242188 240.214844 C 86.304688 251.578125 90.402344 257.179688 91.410156 256.957031 C 91.714844 256.046875 89.480469 248.597656 84.890625 239.148438 C 81.6875 232.550781 75.128906 220.527344 67.207031 214.078125 C 67.136719 214.019531 67.101562 213.949219 67.089844 213.863281 C 67.082031 213.777344 67.105469 213.699219 67.160156 213.632812 C 67.214844 213.566406 67.285156 213.527344 67.375 213.515625 C 67.460938 213.507812 67.539062 213.53125 67.605469 213.585938 C 69.003906 214.738281 70.3125 215.980469 71.539062 217.3125 Z M 74.015625 234.269531 C 74.167969 234.273438 74.273438 234.203125 74.324219 234.058594 C 74.375 233.914062 74.335938 233.796875 74.214844 233.703125 C 73.9375 233.480469 73.644531 233.265625 73.347656 233.066406 C 73.277344 233.015625 73.199219 233 73.113281 233.015625 C 73.027344 233.03125 72.957031 233.074219 72.910156 233.148438 C 72.859375 233.21875 72.84375 233.300781 72.859375 233.382812 C 72.875 233.46875 72.921875 233.539062 72.992188 233.585938 C 73.273438 233.78125 73.554688 233.984375 73.820312 234.199219 C 73.875 234.246094 73.941406 234.269531 74.015625 234.269531 Z M 46.574219 223.246094 C 46.660156 223.246094 46.734375 223.214844 46.796875 223.152344 C 46.859375 223.089844 46.890625 223.011719 46.886719 222.925781 C 46.878906 222.621094 46.878906 222.339844 46.878906 222.078125 C 46.878906 221.992188 46.847656 221.917969 46.785156 221.855469 C 46.722656 221.792969 46.648438 221.761719 46.5625 221.761719 C 46.476562 221.761719 46.398438 221.792969 46.339844 221.855469 C 46.277344 221.917969 46.246094 221.992188 46.246094 222.078125 C 46.246094 222.34375 46.246094 222.632812 46.253906 222.941406 C 46.257812 223.027344 46.289062 223.097656 46.351562 223.15625 C 46.414062 223.21875 46.488281 223.246094 46.574219 223.246094 Z M 42.796875 197.820312 C 42.878906 197.820312 42.949219 197.792969 43.011719 197.738281 C 43.070312 197.683594 43.105469 197.613281 43.113281 197.53125 C 43.140625 197.199219 43.183594 196.863281 43.238281 196.539062 C 43.25 196.453125 43.234375 196.375 43.183594 196.304688 C 43.132812 196.234375 43.0625 196.191406 42.976562 196.175781 C 42.890625 196.164062 42.8125 196.179688 42.742188 196.230469 C 42.671875 196.28125 42.628906 196.351562 42.613281 196.4375 C 42.558594 196.777344 42.515625 197.128906 42.484375 197.476562 C 42.476562 197.566406 42.5 197.644531 42.554688 197.710938 C 42.613281 197.777344 42.683594 197.8125 42.773438 197.820312 Z M 92.007812 190.84375 L 92.035156 190.84375 C 92.464844 190.808594 92.886719 190.769531 93.304688 190.726562 C 93.390625 190.714844 93.460938 190.679688 93.515625 190.609375 C 93.570312 190.542969 93.59375 190.464844 93.585938 190.378906 C 93.578125 190.292969 93.539062 190.222656 93.472656 190.167969 C 93.40625 190.113281 93.328125 190.089844 93.242188 190.097656 C 92.828125 190.140625 92.410156 190.179688 91.984375 190.214844 C 91.898438 190.21875 91.824219 190.253906 91.765625 190.316406 C 91.707031 190.382812 91.679688 190.457031 91.683594 190.542969 C 91.6875 190.628906 91.71875 190.703125 91.785156 190.761719 C 91.847656 190.820312 91.925781 190.847656 92.011719 190.84375 Z M 101.691406 180.144531 C 101.738281 180.144531 101.785156 180.136719 101.828125 180.113281 C 102.226562 179.925781 102.621094 179.738281 103.007812 179.550781 C 103.089844 179.511719 103.140625 179.453125 103.171875 179.367188 C 103.199219 179.285156 103.195312 179.207031 103.15625 179.128906 C 103.121094 179.050781 103.058594 178.996094 102.976562 178.964844 C 102.894531 178.9375 102.8125 178.941406 102.734375 178.980469 C 102.347656 179.167969 101.953125 179.355469 101.558594 179.542969 C 101.398438 179.609375 101.335938 179.730469 101.375 179.898438 C 101.414062 180.066406 101.519531 180.148438 101.691406 180.144531 Z M 105.789062 178.140625 C 105.835938 178.140625 105.886719 178.128906 105.929688 178.105469 C 108.464844 176.816406 110.824219 175.519531 112.941406 174.253906 C 113.015625 174.210938 113.0625 174.144531 113.085938 174.0625 C 113.105469 173.976562 113.09375 173.894531 113.050781 173.820312 C 113.003906 173.746094 112.9375 173.699219 112.855469 173.675781 C 112.769531 173.65625 112.691406 173.667969 112.617188 173.710938 C 110.511719 174.96875 108.167969 176.261719 105.644531 177.542969 C 105.488281 177.613281 105.429688 177.734375 105.46875 177.902344 C 105.511719 178.066406 105.617188 178.148438 105.789062 178.140625 Z M 110.171875 156.75 C 110.253906 156.75 110.328125 156.722656 110.386719 156.664062 C 110.671875 156.40625 110.917969 156.164062 111.121094 155.941406 C 111.179688 155.878906 111.210938 155.804688 111.207031 155.714844 C 111.203125 155.628906 111.167969 155.554688 111.105469 155.496094 C 111.042969 155.4375 110.964844 155.40625 110.878906 155.410156 C 110.792969 155.414062 110.71875 155.449219 110.660156 155.511719 C 110.464844 155.71875 110.230469 155.953125 109.957031 156.203125 C 109.851562 156.300781 109.820312 156.414062 109.875 156.550781 C 109.929688 156.6875 110.027344 156.753906 110.171875 156.75 Z M 114.234375 161.707031 C 114.316406 161.707031 114.386719 161.679688 114.445312 161.628906 C 114.71875 161.386719 114.984375 161.144531 115.242188 160.898438 C 115.308594 160.839844 115.339844 160.765625 115.34375 160.679688 C 115.34375 160.59375 115.316406 160.519531 115.257812 160.453125 C 115.199219 160.390625 115.125 160.355469 115.039062 160.355469 C 114.953125 160.351562 114.875 160.378906 114.8125 160.4375 C 114.554688 160.679688 114.292969 160.917969 114.027344 161.15625 C 113.914062 161.25 113.886719 161.367188 113.9375 161.503906 C 113.988281 161.640625 114.089844 161.710938 114.234375 161.707031 Z M 109.050781 165.660156 C 109.113281 165.660156 109.167969 165.644531 109.222656 165.609375 C 110.433594 164.832031 111.597656 163.988281 112.722656 163.085938 C 112.789062 163.03125 112.828125 162.960938 112.839844 162.875 C 112.847656 162.789062 112.824219 162.710938 112.769531 162.640625 C 112.714844 162.574219 112.644531 162.535156 112.558594 162.523438 C 112.472656 162.515625 112.394531 162.539062 112.324219 162.59375 C 111.21875 163.480469 110.070312 164.308594 108.878906 165.078125 C 108.742188 165.164062 108.695312 165.28125 108.742188 165.433594 C 108.785156 165.589844 108.890625 165.664062 109.050781 165.660156 Z M 81.699219 197.207031 C 81.757812 197.207031 81.8125 197.191406 81.863281 197.160156 C 84.101562 195.792969 84.28125 194.542969 84.1875 193.917969 C 84.078125 193.285156 83.738281 192.824219 83.171875 192.527344 C 84.113281 192.109375 84.964844 191.691406 85.710938 191.277344 C 85.789062 191.234375 85.839844 191.171875 85.863281 191.089844 C 85.886719 191.003906 85.878906 190.925781 85.835938 190.847656 C 85.792969 190.773438 85.730469 190.722656 85.648438 190.699219 C 85.5625 190.671875 85.484375 190.683594 85.40625 190.726562 C 84.375 191.289062 83.3125 191.792969 82.226562 192.246094 C 82.085938 192.300781 82.019531 192.40625 82.03125 192.558594 C 82.042969 192.710938 82.121094 192.804688 82.269531 192.84375 C 82.585938 192.886719 82.859375 193.019531 83.09375 193.230469 C 83.328125 193.445312 83.484375 193.703125 83.5625 194.011719 C 83.679688 194.808594 82.941406 195.757812 81.535156 196.621094 C 81.394531 196.703125 81.347656 196.820312 81.390625 196.976562 C 81.433594 197.132812 81.539062 197.210938 81.699219 197.207031 Z M 68.0625 209.253906 C 69.578125 209.253906 70.390625 208.695312 70.65625 208.027344 C 70.792969 207.699219 70.78125 207.375 70.625 207.054688 C 73.308594 206.617188 74.722656 205.835938 74.835938 204.726562 C 74.832031 204.363281 74.734375 204.023438 74.546875 203.714844 C 74.359375 203.402344 74.105469 203.160156 73.785156 202.988281 C 78.324219 201.902344 78.855469 200.402344 78.863281 199.785156 C 78.867188 199.34375 78.691406 198.992188 78.335938 198.730469 C 78.753906 198.589844 79.15625 198.445312 79.53125 198.292969 C 79.609375 198.261719 79.667969 198.207031 79.703125 198.125 C 79.738281 198.046875 79.738281 197.964844 79.707031 197.882812 C 79.675781 197.804688 79.621094 197.746094 79.539062 197.710938 C 79.460938 197.675781 79.378906 197.675781 79.296875 197.707031 C 78.714844 197.9375 78.070312 198.160156 77.382812 198.371094 C 77.222656 198.414062 77.148438 198.519531 77.152344 198.683594 C 77.15625 198.847656 77.242188 198.945312 77.402344 198.980469 C 77.910156 199.101562 78.234375 199.410156 78.230469 199.773438 C 78.21875 200.546875 76.785156 201.742188 72.785156 202.5625 C 72.625 202.589844 72.539062 202.6875 72.527344 202.851562 C 72.515625 203.011719 72.585938 203.121094 72.742188 203.171875 C 73.507812 203.4375 74.265625 204.070312 74.203125 204.660156 C 74.164062 205.050781 73.667969 206.015625 69.9375 206.519531 C 69.78125 206.535156 69.691406 206.621094 69.664062 206.773438 C 69.636719 206.925781 69.6875 207.039062 69.828125 207.109375 C 69.949219 207.175781 70.035156 207.273438 70.082031 207.40625 C 70.125 207.539062 70.121094 207.667969 70.0625 207.792969 C 69.851562 208.328125 68.738281 209.042969 65.90625 208.308594 C 65.824219 208.285156 65.742188 208.296875 65.667969 208.339844 C 65.59375 208.386719 65.542969 208.449219 65.519531 208.535156 C 65.5 208.621094 65.511719 208.699219 65.554688 208.773438 C 65.601562 208.851562 65.664062 208.898438 65.75 208.921875 C 66.507812 209.128906 67.277344 209.242188 68.0625 209.257812 Z M 62.734375 207.800781 C 62.910156 207.808594 63.015625 207.726562 63.050781 207.554688 C 63.089844 207.382812 63.027344 207.265625 62.863281 207.195312 C 62.570312 207.0625 62.265625 206.921875 61.953125 206.765625 C 61.875 206.726562 61.796875 206.722656 61.714844 206.75 C 61.628906 206.777344 61.570312 206.832031 61.53125 206.910156 C 61.492188 206.988281 61.488281 207.066406 61.515625 207.148438 C 61.542969 207.230469 61.59375 207.292969 61.671875 207.332031 C 61.992188 207.488281 62.304688 207.636719 62.601562 207.773438 C 62.644531 207.792969 62.6875 207.804688 62.734375 207.808594 Z M 52.425781 198.386719 C 52.503906 198.386719 52.574219 198.359375 52.632812 198.308594 C 52.699219 198.25 52.734375 198.175781 52.742188 198.089844 C 52.746094 198.003906 52.71875 197.925781 52.664062 197.863281 C 52.480469 197.652344 52.285156 197.4375 52.082031 197.21875 C 52.023438 197.15625 51.949219 197.121094 51.863281 197.121094 C 51.773438 197.117188 51.699219 197.144531 51.636719 197.203125 C 51.570312 197.265625 51.539062 197.335938 51.535156 197.425781 C 51.53125 197.511719 51.558594 197.585938 51.621094 197.652344 C 51.820312 197.867188 52.007812 198.078125 52.1875 198.28125 C 52.25 198.351562 52.332031 198.386719 52.425781 198.386719 Z M 58.476562 203.191406 C 59.222656 203.203125 59.949219 203.078125 60.644531 202.8125 C 61.34375 202.546875 61.96875 202.160156 62.519531 201.65625 C 62.765625 201.40625 62.929688 201.113281 63.015625 200.773438 C 63.101562 200.4375 63.09375 200.101562 62.996094 199.765625 C 66.546875 199 67.984375 197.386719 68.03125 196.203125 C 68.0625 195.964844 68.007812 195.75 67.863281 195.558594 C 67.714844 195.367188 67.523438 195.257812 67.285156 195.230469 C 66.914062 195.207031 66.546875 195.167969 66.179688 195.109375 C 66.664062 194.859375 67.128906 194.597656 67.570312 194.332031 C 67.644531 194.289062 67.691406 194.222656 67.714844 194.140625 C 67.734375 194.054688 67.722656 193.976562 67.679688 193.898438 C 67.632812 193.824219 67.566406 193.777344 67.484375 193.753906 C 67.398438 193.734375 67.320312 193.746094 67.242188 193.792969 C 66.597656 194.179688 65.894531 194.558594 65.148438 194.921875 C 65.019531 194.984375 64.960938 195.085938 64.96875 195.230469 C 64.980469 195.371094 65.054688 195.464844 65.191406 195.507812 C 65.855469 195.71875 66.539062 195.839844 67.234375 195.859375 C 67.398438 195.871094 67.402344 196.105469 67.398438 196.179688 C 67.363281 197.058594 65.636719 199.5625 58.394531 199.570312 C 58.304688 199.570312 58.230469 199.601562 58.171875 199.664062 C 58.109375 199.726562 58.078125 199.800781 58.078125 199.886719 C 58.078125 199.972656 58.109375 200.046875 58.171875 200.109375 C 58.230469 200.167969 58.304688 200.199219 58.394531 200.199219 C 59.730469 200.210938 61.054688 200.101562 62.375 199.882812 C 62.453125 200.121094 62.464844 200.359375 62.40625 200.601562 C 62.347656 200.84375 62.226562 201.054688 62.046875 201.230469 C 61.105469 202.28125 58.664062 202.867188 57.292969 202.371094 C 56.191406 201.917969 55.304688 201.207031 54.625 200.230469 C 54.570312 200.164062 54.496094 200.125 54.410156 200.117188 C 54.324219 200.109375 54.246094 200.132812 54.179688 200.1875 C 54.113281 200.246094 54.074219 200.316406 54.066406 200.402344 C 54.058594 200.488281 54.082031 200.566406 54.136719 200.632812 C 54.890625 201.699219 55.871094 202.476562 57.078125 202.96875 C 57.53125 203.121094 57.996094 203.195312 58.476562 203.1875 Z M 45.699219 194.605469 C 45.785156 194.605469 45.859375 194.574219 45.921875 194.511719 C 45.984375 194.453125 46.015625 194.378906 46.015625 194.289062 C 46.015625 194.203125 45.984375 194.128906 45.921875 194.066406 C 45.859375 194.003906 45.785156 193.972656 45.699219 193.972656 C 45.355469 193.972656 45.015625 193.957031 44.695312 193.925781 C 44.605469 193.917969 44.53125 193.941406 44.460938 193.996094 C 44.394531 194.054688 44.359375 194.125 44.351562 194.210938 C 44.34375 194.300781 44.367188 194.375 44.421875 194.445312 C 44.476562 194.511719 44.550781 194.546875 44.636719 194.554688 C 44.980469 194.585938 45.335938 194.601562 45.699219 194.605469 Z M 69.546875 192.910156 C 69.621094 192.910156 69.6875 192.886719 69.742188 192.839844 C 69.964844 192.664062 70.171875 192.492188 70.367188 192.320312 C 70.433594 192.261719 70.46875 192.1875 70.472656 192.101562 C 70.476562 192.015625 70.453125 191.9375 70.394531 191.871094 C 70.335938 191.808594 70.261719 191.773438 70.175781 191.765625 C 70.089844 191.761719 70.011719 191.789062 69.949219 191.847656 C 69.761719 192.011719 69.5625 192.175781 69.351562 192.34375 C 69.226562 192.4375 69.191406 192.554688 69.242188 192.699219 C 69.292969 192.84375 69.394531 192.914062 69.546875 192.910156 Z M 28.574219 187.261719 C 29.773438 187.261719 31.136719 186.769531 31.488281 185.34375 C 31.511719 185.261719 31.5 185.179688 31.453125 185.105469 C 31.40625 185.03125 31.34375 184.984375 31.257812 184.960938 C 31.175781 184.941406 31.09375 184.953125 31.019531 184.996094 C 30.945312 185.042969 30.898438 185.105469 30.875 185.191406 C 30.605469 186.285156 29.488281 186.636719 28.511719 186.628906 C 28.429688 186.222656 28.457031 185.828125 28.601562 185.441406 C 28.742188 185.050781 28.976562 184.730469 29.300781 184.476562 C 29.367188 184.417969 29.40625 184.347656 29.414062 184.261719 C 29.417969 184.171875 29.394531 184.097656 29.335938 184.03125 C 29.28125 183.964844 29.207031 183.925781 29.121094 183.921875 C 29.035156 183.914062 28.957031 183.9375 28.890625 183.996094 C 28.484375 184.320312 28.191406 184.722656 28.011719 185.210938 C 27.828125 185.695312 27.789062 186.195312 27.886719 186.703125 C 27.894531 186.792969 27.902344 186.871094 27.90625 186.933594 C 27.902344 187.015625 27.933594 187.085938 27.988281 187.144531 C 28.042969 187.207031 28.109375 187.238281 28.191406 187.246094 C 28.320312 187.253906 28.449219 187.257812 28.578125 187.257812 Z M 28.574219 187.261719 " fill-opacity="1" fill-rule="evenodd"/></g><g fill="#ffffff" fill-opacity="1"><g transform="translate(198.746962, 246.903424)"><g><path d="M 0.75 -5.609375 L 1.34375 -5.609375 L 1.34375 -3.03125 L 3.640625 -5.609375 L 4.359375 -5.609375 L 1.96875 -2.921875 L 4.46875 0 L 3.6875 0 L 1.34375 -2.75 L 1.34375 0 L 0.75 0 Z M 0.75 -5.609375 "/></g></g></g><g fill="#ffffff" fill-opacity="1"><g transform="translate(207.05915, 246.903424)"><g><path d="M 2.390625 -5.78125 L 2.546875 -5.78125 L 4.6875 0 L 4.046875 0 L 3.515625 -1.46875 L 1.390625 -1.46875 L 0.859375 0 L 0.25 0 Z M 3.328125 -2.015625 L 2.453125 -4.453125 L 1.578125 -2.015625 Z M 3.328125 -2.015625 "/></g></g></g><g fill="#ffffff" fill-opacity="1"><g transform="translate(215.798245, 246.903424)"><g><path d="M 0.25 -5.609375 L 0.875 -5.609375 L 2.40625 -1.21875 L 4.03125 -5.609375 L 4.609375 -5.609375 L 2.453125 0.171875 L 2.28125 0.171875 Z M 0.25 -5.609375 "/></g></g></g><g fill="#ffffff" fill-opacity="1"><g transform="translate(224.453638, 246.903424)"><g><path d="M 2.390625 -5.78125 L 2.546875 -5.78125 L 4.6875 0 L 4.046875 0 L 3.515625 -1.46875 L 1.390625 -1.46875 L 0.859375 0 L 0.25 0 Z M 3.328125 -2.015625 L 2.453125 -4.453125 L 1.578125 -2.015625 Z M 3.328125 -2.015625 "/></g></g></g><g fill="#ffffff" fill-opacity="1"><g transform="translate(233.192732, 246.903424)"><g><path d="M 1.421875 0.078125 C 0.859375 0.078125 0.425781 -0.164062 0.125 -0.65625 L 0.578125 -1.03125 C 0.796875 -0.644531 1.082031 -0.453125 1.4375 -0.453125 C 1.71875 -0.453125 1.9375 -0.554688 2.09375 -0.765625 C 2.257812 -0.972656 2.34375 -1.257812 2.34375 -1.625 L 2.34375 -5.0625 L 0.71875 -5.0625 L 0.71875 -5.609375 L 2.9375 -5.609375 L 2.9375 -1.625 C 2.9375 -1.363281 2.898438 -1.128906 2.828125 -0.921875 C 2.753906 -0.710938 2.648438 -0.53125 2.515625 -0.375 C 2.378906 -0.226562 2.21875 -0.113281 2.03125 -0.03125 C 1.851562 0.0390625 1.648438 0.078125 1.421875 0.078125 Z M 1.421875 0.078125 "/></g></g></g><g fill="#ffffff" fill-opacity="1"><g transform="translate(240.634349, 246.903424)"><g><path d="M 0.75 -5.609375 L 3.640625 -5.609375 L 3.640625 -5.0625 L 1.34375 -5.0625 L 1.34375 -3.1875 L 3.09375 -3.1875 L 3.09375 -2.640625 L 1.34375 -2.640625 L 1.34375 -0.546875 L 3.6875 -0.546875 L 3.6875 0 L 0.75 0 Z M 0.75 -5.609375 "/></g></g></g><g fill="#ffffff" fill-opacity="1"><g transform="translate(115.614818, 205.343262)"><g><path d="M 1.875 -11.5625 C 2.550781 -11.84375 3.207031 -11.984375 3.84375 -11.984375 C 4.363281 -11.984375 4.90625 -11.789062 5.46875 -11.40625 C 5.769531 -11.195312 6.109375 -10.785156 6.484375 -10.171875 C 6.734375 -9.753906 7.054688 -8.992188 7.453125 -7.890625 L 9.375 -2.4375 C 9.8125 -1.21875 10.257812 -0.25 10.71875 0.46875 C 11.175781 1.1875 11.59375 1.722656 11.96875 2.078125 C 12.34375 2.441406 12.734375 2.695312 13.140625 2.84375 C 13.554688 3 13.894531 3.078125 14.15625 3.078125 C 14.425781 3.078125 14.671875 3.054688 14.890625 3.015625 L 14.90625 3.171875 C 14.394531 3.335938 13.894531 3.421875 13.40625 3.421875 C 12.925781 3.421875 12.445312 3.296875 11.96875 3.046875 C 11.488281 2.796875 11.035156 2.453125 10.609375 2.015625 C 9.710938 1.097656 8.945312 -0.289062 8.3125 -2.15625 L 7.703125 -3.953125 L 3.390625 -3.953125 L 2.296875 -1.15625 C 2.242188 -1.019531 2.21875 -0.890625 2.21875 -0.765625 C 2.21875 -0.640625 2.269531 -0.503906 2.375 -0.359375 C 2.488281 -0.222656 2.660156 -0.15625 2.890625 -0.15625 L 3.03125 -0.15625 L 3.03125 0 L -0.140625 0 L -0.140625 -0.15625 L 0 -0.15625 C 0.25 -0.15625 0.492188 -0.226562 0.734375 -0.375 C 0.984375 -0.53125 1.1875 -0.765625 1.34375 -1.078125 L 5.25 -10.421875 C 4.675781 -11.234375 3.972656 -11.640625 3.140625 -11.640625 C 2.753906 -11.640625 2.347656 -11.5625 1.921875 -11.40625 Z M 3.5625 -4.421875 L 7.546875 -4.421875 L 6.296875 -8.09375 C 6.054688 -8.800781 5.835938 -9.351562 5.640625 -9.75 Z M 3.5625 -4.421875 "/></g></g></g><g fill="#ffffff" fill-opacity="1"><g transform="translate(130.578071, 205.343262)"><g><path d="M 6.59375 0.21875 C 4.914062 0.207031 3.550781 -0.316406 2.5 -1.359375 C 1.457031 -2.410156 0.9375 -3.789062 0.9375 -5.5 C 0.9375 -7.21875 1.457031 -8.601562 2.5 -9.65625 C 3.550781 -10.71875 4.914062 -11.25 6.59375 -11.25 C 8.039062 -11.25 9.316406 -10.890625 10.421875 -10.171875 L 10.734375 -7.953125 L 10.59375 -7.953125 C 10.363281 -8.859375 9.898438 -9.550781 9.203125 -10.03125 C 8.503906 -10.519531 7.632812 -10.765625 6.59375 -10.765625 C 5.257812 -10.765625 4.179688 -10.28125 3.359375 -9.3125 C 2.535156 -8.351562 2.125 -7.085938 2.125 -5.515625 C 2.125 -3.941406 2.535156 -2.671875 3.359375 -1.703125 C 4.179688 -0.742188 5.257812 -0.257812 6.59375 -0.25 C 7.28125 -0.25 7.929688 -0.367188 8.546875 -0.609375 C 9.160156 -0.847656 9.695312 -1.1875 10.15625 -1.625 L 10.15625 -4.40625 C 10.15625 -4.632812 10.082031 -4.8125 9.9375 -4.9375 C 9.800781 -5.0625 9.609375 -5.125 9.359375 -5.125 L 9.109375 -5.125 L 9.109375 -5.28125 L 12.1875 -5.28125 L 12.1875 -5.125 L 11.953125 -5.125 C 11.691406 -5.125 11.492188 -5.0625 11.359375 -4.9375 C 11.222656 -4.8125 11.160156 -4.632812 11.171875 -4.40625 L 11.171875 -1.8125 C 10.890625 -1.457031 10.5625 -1.132812 10.1875 -0.84375 C 9.8125 -0.5625 9.304688 -0.3125 8.671875 -0.09375 C 8.035156 0.113281 7.34375 0.21875 6.59375 0.21875 Z M 6.59375 0.21875 "/></g></g></g><g fill="#ffffff" fill-opacity="1"><g transform="translate(146.895825, 205.343262)"><g><path d="M 4.1875 -10.875 C 3.8125 -10.875 3.523438 -10.707031 3.328125 -10.375 C 3.242188 -10.226562 3.195312 -10.0625 3.1875 -9.875 L 3.1875 0 C 3.1875 0.882812 2.910156 1.628906 2.359375 2.234375 C 1.804688 2.847656 1.125 3.15625 0.3125 3.15625 L 0.3125 3.015625 C 0.832031 2.828125 1.269531 2.4375 1.625 1.84375 C 1.976562 1.25 2.15625 0.617188 2.15625 -0.046875 L 2.15625 -9.875 C 2.144531 -10.144531 2.039062 -10.378906 1.84375 -10.578125 C 1.65625 -10.773438 1.425781 -10.875 1.15625 -10.875 L 0.9375 -10.875 L 0.9375 -11.03125 L 4.390625 -11.03125 L 4.390625 -10.875 Z M 4.1875 -10.875 "/></g></g></g><g fill="#ffffff" fill-opacity="1"><g transform="translate(155.748106, 205.343262)"><g><path d="M 1.15625 -0.15625 C 1.425781 -0.15625 1.65625 -0.25 1.84375 -0.4375 C 2.039062 -0.632812 2.144531 -0.875 2.15625 -1.15625 L 2.15625 -9.96875 C 2.15625 -10.21875 2.054688 -10.429688 1.859375 -10.609375 C 1.660156 -10.785156 1.425781 -10.875 1.15625 -10.875 L 0.953125 -10.875 L 0.9375 -11.03125 L 5.5625 -11.03125 C 5.882812 -11.03125 6.238281 -11.0625 6.625 -11.125 C 7.007812 -11.1875 7.28125 -11.25 7.4375 -11.3125 L 7.4375 -9.328125 L 7.28125 -9.328125 L 7.28125 -9.609375 C 7.28125 -9.859375 7.191406 -10.070312 7.015625 -10.25 C 6.835938 -10.425781 6.628906 -10.519531 6.390625 -10.53125 L 3.1875 -10.53125 L 3.1875 -5.671875 L 5.84375 -5.671875 C 6.050781 -5.679688 6.226562 -5.757812 6.375 -5.90625 C 6.519531 -6.050781 6.59375 -6.234375 6.59375 -6.453125 L 6.59375 -6.671875 L 6.75 -6.671875 L 6.75 -4.1875 L 6.59375 -4.1875 L 6.59375 -4.421875 C 6.59375 -4.628906 6.519531 -4.804688 6.375 -4.953125 C 6.238281 -5.109375 6.066406 -5.191406 5.859375 -5.203125 L 3.1875 -5.203125 L 3.1875 -0.484375 L 5.4375 -0.484375 C 6.207031 -0.484375 6.796875 -0.65625 7.203125 -1 C 7.617188 -1.351562 7.960938 -1.867188 8.234375 -2.546875 L 8.390625 -2.546875 L 7.484375 0 L 0.9375 0 L 0.9375 -0.15625 Z M 1.15625 -0.15625 "/></g></g></g><g fill="#ffffff" fill-opacity="1"><g transform="translate(168.585115, 205.343262)"><g><path d="M 12.25 -10.875 C 11.988281 -10.875 11.765625 -10.78125 11.578125 -10.59375 C 11.390625 -10.40625 11.289062 -10.179688 11.28125 -9.921875 L 11.28125 -1.796875 C 11.28125 -1.179688 11.316406 -0.601562 11.390625 -0.0625 L 11.421875 0.21875 L 11.28125 0.21875 L 2.6875 -8.953125 L 2.6875 -1.109375 C 2.6875 -0.835938 2.78125 -0.609375 2.96875 -0.421875 C 3.164062 -0.242188 3.394531 -0.15625 3.65625 -0.15625 L 3.953125 -0.15625 L 3.953125 0 L 0.703125 0 L 0.703125 -0.15625 L 1.015625 -0.15625 C 1.273438 -0.15625 1.5 -0.242188 1.6875 -0.421875 C 1.875 -0.609375 1.96875 -0.84375 1.96875 -1.125 L 1.96875 -9.296875 C 1.96875 -9.929688 1.929688 -10.503906 1.859375 -11.015625 L 1.828125 -11.265625 L 1.984375 -11.265625 L 10.5625 -2.09375 L 10.5625 -9.90625 C 10.550781 -10.175781 10.453125 -10.40625 10.265625 -10.59375 C 10.078125 -10.78125 9.851562 -10.875 9.59375 -10.875 L 9.296875 -10.875 L 9.296875 -11.03125 L 12.53125 -11.03125 L 12.53125 -10.875 Z M 12.25 -10.875 "/></g></g></g><g fill="#ffffff" fill-opacity="1"><g transform="translate(185.580105, 205.343262)"><g><path d="M 6.5625 0.21875 C 4.90625 0.207031 3.550781 -0.316406 2.5 -1.359375 C 1.457031 -2.410156 0.9375 -3.796875 0.9375 -5.515625 C 0.9375 -7.234375 1.457031 -8.617188 2.5 -9.671875 C 3.550781 -10.722656 4.9375 -11.25 6.65625 -11.25 C 8.0625 -11.25 9.304688 -10.890625 10.390625 -10.171875 L 10.703125 -7.953125 L 10.5625 -7.953125 C 10.332031 -8.859375 9.863281 -9.550781 9.15625 -10.03125 C 8.457031 -10.519531 7.625 -10.765625 6.65625 -10.765625 C 5.28125 -10.765625 4.179688 -10.285156 3.359375 -9.328125 C 2.535156 -8.378906 2.125 -7.117188 2.125 -5.546875 C 2.125 -3.972656 2.53125 -2.703125 3.34375 -1.734375 C 4.15625 -0.773438 5.226562 -0.28125 6.5625 -0.25 C 7.738281 -0.25 8.722656 -0.570312 9.515625 -1.21875 C 10.359375 -1.90625 10.875 -3.03125 11.0625 -4.59375 L 11.1875 -4.59375 L 11 -2.125 C 10.039062 -0.5625 8.5625 0.21875 6.5625 0.21875 Z M 6.5625 0.21875 "/></g></g></g><g fill="#ffffff" fill-opacity="1"><g transform="translate(201.299354, 205.343262)"><g><path d="M 1.15625 -0.15625 C 1.425781 -0.15625 1.65625 -0.25 1.84375 -0.4375 C 2.039062 -0.632812 2.144531 -0.875 2.15625 -1.15625 L 2.15625 -9.890625 C 2.144531 -10.160156 2.039062 -10.390625 1.84375 -10.578125 C 1.65625 -10.773438 1.425781 -10.875 1.15625 -10.875 L 0.9375 -10.875 L 0.9375 -11.03125 L 4.390625 -11.03125 L 4.390625 -10.875 L 4.1875 -10.875 C 3.914062 -10.875 3.679688 -10.773438 3.484375 -10.578125 C 3.296875 -10.390625 3.195312 -10.160156 3.1875 -9.890625 L 3.1875 -1.15625 C 3.1875 -0.875 3.285156 -0.632812 3.484375 -0.4375 C 3.679688 -0.25 3.914062 -0.15625 4.1875 -0.15625 L 4.390625 -0.15625 L 4.390625 0 L 0.9375 0 L 0.9375 -0.15625 Z M 1.15625 -0.15625 "/></g></g></g><g fill="#ffffff" fill-opacity="1"><g transform="translate(210.372138, 205.343262)"><g/></g></g><g fill="#ffffff" fill-opacity="1"><g transform="translate(218.058934, 205.343262)"><g><path d="M 8.96875 -4.421875 C 8.96875 -4.628906 8.894531 -4.804688 8.75 -4.953125 C 8.601562 -5.109375 8.425781 -5.191406 8.21875 -5.203125 L 3.1875 -5.203125 L 3.1875 -1.15625 C 3.1875 -0.875 3.285156 -0.632812 3.484375 -0.4375 C 3.679688 -0.25 3.914062 -0.15625 4.1875 -0.15625 L 4.390625 -0.15625 L 4.390625 0 L 0.9375 0 L 0.9375 -0.15625 L 1.15625 -0.15625 C 1.425781 -0.15625 1.65625 -0.25 1.84375 -0.4375 C 2.039062 -0.632812 2.144531 -0.875 2.15625 -1.15625 L 2.15625 -9.96875 C 2.15625 -10.21875 2.050781 -10.429688 1.84375 -10.609375 C 1.644531 -10.785156 1.414062 -10.875 1.15625 -10.875 L 0.953125 -10.875 L 0.9375 -11.03125 L 5.5625 -11.03125 C 6.007812 -11.03125 6.40625 -11.066406 6.75 -11.140625 C 7.101562 -11.210938 7.332031 -11.269531 7.4375 -11.3125 L 7.4375 -9.53125 L 7.28125 -9.53125 L 7.28125 -9.765625 C 7.28125 -9.972656 7.203125 -10.148438 7.046875 -10.296875 C 6.898438 -10.453125 6.71875 -10.53125 6.5 -10.53125 L 3.1875 -10.53125 L 3.1875 -5.671875 L 8.203125 -5.671875 C 8.410156 -5.679688 8.585938 -5.757812 8.734375 -5.90625 C 8.890625 -6.050781 8.96875 -6.234375 8.96875 -6.453125 L 8.96875 -6.671875 L 9.125 -6.671875 L 9.125 -4.1875 L 8.96875 -4.1875 Z M 8.96875 -4.421875 "/></g></g></g><g fill="#ffffff" fill-opacity="1"><g transform="translate(230.927448, 205.343262)"><g><path d="M 11.578125 -10.875 L 11.328125 -10.875 C 11.109375 -10.875 10.914062 -10.800781 10.75 -10.65625 C 10.582031 -10.507812 10.492188 -10.332031 10.484375 -10.125 L 10.484375 -3.890625 C 10.484375 -2.660156 10.09375 -1.664062 9.3125 -0.90625 C 8.539062 -0.15625 7.507812 0.21875 6.21875 0.21875 C 4.925781 0.21875 3.878906 -0.15625 3.078125 -0.90625 C 2.273438 -1.65625 1.875 -2.644531 1.875 -3.875 L 1.875 -10.078125 C 1.875 -10.390625 1.738281 -10.617188 1.46875 -10.765625 C 1.34375 -10.835938 1.203125 -10.875 1.046875 -10.875 L 0.78125 -10.875 L 0.78125 -11.03125 L 3.984375 -11.03125 L 3.984375 -10.875 L 3.734375 -10.875 C 3.503906 -10.875 3.304688 -10.800781 3.140625 -10.65625 C 2.984375 -10.507812 2.898438 -10.328125 2.890625 -10.109375 L 2.890625 -4.09375 C 2.890625 -2.945312 3.195312 -2.019531 3.8125 -1.3125 C 4.425781 -0.613281 5.25 -0.265625 6.28125 -0.265625 C 7.3125 -0.265625 8.144531 -0.597656 8.78125 -1.265625 C 9.425781 -1.929688 9.75 -2.804688 9.75 -3.890625 L 9.75 -10.109375 C 9.738281 -10.328125 9.65625 -10.507812 9.5 -10.65625 C 9.34375 -10.800781 9.148438 -10.875 8.921875 -10.875 L 8.65625 -10.875 L 8.65625 -11.03125 L 11.578125 -11.03125 Z M 11.578125 -10.875 "/></g></g></g><g fill="#ffffff" fill-opacity="1"><g transform="translate(247.040442, 205.343262)"><g><path d="M 1.15625 -0.15625 C 1.425781 -0.15625 1.65625 -0.25 1.84375 -0.4375 C 2.039062 -0.632812 2.144531 -0.875 2.15625 -1.15625 L 2.15625 -9.96875 C 2.15625 -10.21875 2.054688 -10.429688 1.859375 -10.609375 C 1.660156 -10.785156 1.425781 -10.875 1.15625 -10.875 L 0.953125 -10.875 L 0.9375 -11.03125 L 5.5625 -11.03125 C 5.882812 -11.03125 6.238281 -11.0625 6.625 -11.125 C 7.007812 -11.1875 7.28125 -11.25 7.4375 -11.3125 L 7.4375 -9.328125 L 7.28125 -9.328125 L 7.28125 -9.609375 C 7.28125 -9.859375 7.191406 -10.070312 7.015625 -10.25 C 6.835938 -10.425781 6.628906 -10.519531 6.390625 -10.53125 L 3.1875 -10.53125 L 3.1875 -5.671875 L 5.84375 -5.671875 C 6.050781 -5.679688 6.226562 -5.757812 6.375 -5.90625 C 6.519531 -6.050781 6.59375 -6.234375 6.59375 -6.453125 L 6.59375 -6.671875 L 6.75 -6.671875 L 6.75 -4.1875 L 6.59375 -4.1875 L 6.59375 -4.421875 C 6.59375 -4.628906 6.519531 -4.804688 6.375 -4.953125 C 6.238281 -5.109375 6.066406 -5.191406 5.859375 -5.203125 L 3.1875 -5.203125 L 3.1875 -0.484375 L 5.4375 -0.484375 C 6.207031 -0.484375 6.796875 -0.65625 7.203125 -1 C 7.617188 -1.351562 7.960938 -1.867188 8.234375 -2.546875 L 8.390625 -2.546875 L 7.484375 0 L 0.9375 0 L 0.9375 -0.15625 Z M 1.15625 -0.15625 "/></g></g></g><g fill="#ffffff" fill-opacity="1"><g transform="translate(259.877451, 205.343262)"><g><path d="M 12.25 -10.875 C 11.988281 -10.875 11.765625 -10.78125 11.578125 -10.59375 C 11.390625 -10.40625 11.289062 -10.179688 11.28125 -9.921875 L 11.28125 -1.796875 C 11.28125 -1.179688 11.316406 -0.601562 11.390625 -0.0625 L 11.421875 0.21875 L 11.28125 0.21875 L 2.6875 -8.953125 L 2.6875 -1.109375 C 2.6875 -0.835938 2.78125 -0.609375 2.96875 -0.421875 C 3.164062 -0.242188 3.394531 -0.15625 3.65625 -0.15625 L 3.953125 -0.15625 L 3.953125 0 L 0.703125 0 L 0.703125 -0.15625 L 1.015625 -0.15625 C 1.273438 -0.15625 1.5 -0.242188 1.6875 -0.421875 C 1.875 -0.609375 1.96875 -0.84375 1.96875 -1.125 L 1.96875 -9.296875 C 1.96875 -9.929688 1.929688 -10.503906 1.859375 -11.015625 L 1.828125 -11.265625 L 1.984375 -11.265625 L 10.5625 -2.09375 L 10.5625 -9.90625 C 10.550781 -10.175781 10.453125 -10.40625 10.265625 -10.59375 C 10.078125 -10.78125 9.851562 -10.875 9.59375 -10.875 L 9.296875 -10.875 L 9.296875 -11.03125 L 12.53125 -11.03125 L 12.53125 -10.875 Z M 12.25 -10.875 "/></g></g></g><g fill="#ffffff" fill-opacity="1"><g transform="translate(276.872441, 205.343262)"><g><path d="M 4.1875 -10.53125 L 3.1875 -10.53125 L 3.1875 -1.15625 C 3.1875 -0.875 3.28125 -0.632812 3.46875 -0.4375 C 3.664062 -0.25 3.90625 -0.15625 4.1875 -0.15625 L 4.375 -0.15625 L 4.390625 0 L 0.9375 0 L 0.9375 -0.15625 L 1.15625 -0.15625 C 1.425781 -0.15625 1.65625 -0.25 1.84375 -0.4375 C 2.039062 -0.625 2.144531 -0.859375 2.15625 -1.140625 L 2.15625 -9.875 C 2.144531 -10.144531 2.039062 -10.378906 1.84375 -10.578125 C 1.65625 -10.773438 1.425781 -10.875 1.15625 -10.875 L 0.9375 -10.875 L 0.9375 -11.03125 L 5.203125 -11.03125 C 6.148438 -11.03125 6.894531 -10.765625 7.4375 -10.234375 C 7.988281 -9.703125 8.265625 -9.015625 8.265625 -8.171875 C 8.265625 -7.328125 8.003906 -6.597656 7.484375 -5.984375 C 6.960938 -5.367188 6.332031 -5.0625 5.59375 -5.0625 C 5.75 -4.988281 5.929688 -4.84375 6.140625 -4.625 C 6.359375 -4.40625 6.550781 -4.179688 6.71875 -3.953125 C 7.625 -2.660156 8.210938 -1.863281 8.484375 -1.5625 C 8.765625 -1.269531 8.960938 -1.066406 9.078125 -0.953125 C 9.191406 -0.835938 9.316406 -0.726562 9.453125 -0.625 C 9.585938 -0.519531 9.722656 -0.4375 9.859375 -0.375 C 10.160156 -0.226562 10.488281 -0.15625 10.84375 -0.15625 L 10.84375 0 L 9.96875 0 C 9.519531 0 9.097656 -0.078125 8.703125 -0.234375 C 8.316406 -0.398438 8.023438 -0.570312 7.828125 -0.75 C 7.640625 -0.925781 7.472656 -1.09375 7.328125 -1.25 C 7.191406 -1.414062 6.800781 -1.957031 6.15625 -2.875 C 5.519531 -3.800781 5.144531 -4.328125 5.03125 -4.453125 C 4.925781 -4.585938 4.816406 -4.71875 4.703125 -4.84375 C 4.367188 -5.207031 4.035156 -5.390625 3.703125 -5.390625 L 3.703125 -5.546875 C 3.785156 -5.535156 3.894531 -5.53125 4.03125 -5.53125 C 4.164062 -5.53125 4.332031 -5.535156 4.53125 -5.546875 C 5.832031 -5.578125 6.65625 -6.125 7 -7.1875 C 7.0625 -7.394531 7.09375 -7.585938 7.09375 -7.765625 C 7.09375 -7.953125 7.09375 -8.070312 7.09375 -8.125 C 7.070312 -8.832031 6.882812 -9.398438 6.53125 -9.828125 C 6.1875 -10.253906 5.722656 -10.484375 5.140625 -10.515625 C 4.878906 -10.523438 4.5625 -10.53125 4.1875 -10.53125 Z M 4.1875 -10.53125 "/></g></g></g><g fill="#ffffff" fill-opacity="1"><g transform="translate(291.284442, 205.343262)"><g><path d="M 11.28125 -0.15625 L 11.40625 -0.15625 L 11.40625 0 L 7.859375 0 L 7.859375 -0.15625 L 8 -0.15625 C 8.21875 -0.15625 8.378906 -0.222656 8.484375 -0.359375 C 8.597656 -0.503906 8.65625 -0.640625 8.65625 -0.765625 C 8.65625 -0.890625 8.632812 -1.019531 8.59375 -1.15625 L 7.59375 -3.828125 L 3.34375 -3.828125 L 2.28125 -1.140625 C 2.238281 -1.003906 2.21875 -0.875 2.21875 -0.75 C 2.21875 -0.632812 2.269531 -0.503906 2.375 -0.359375 C 2.488281 -0.222656 2.65625 -0.15625 2.875 -0.15625 L 3.03125 -0.15625 L 3.03125 0 L -0.140625 0 L -0.140625 -0.15625 L 0 -0.15625 C 0.257812 -0.15625 0.515625 -0.238281 0.765625 -0.40625 C 1.023438 -0.570312 1.234375 -0.820312 1.390625 -1.15625 L 4.953125 -9.625 C 5.335938 -10.476562 5.53125 -11.019531 5.53125 -11.25 L 5.671875 -11.25 L 9.890625 -1.15625 C 10.035156 -0.820312 10.234375 -0.570312 10.484375 -0.40625 C 10.742188 -0.238281 11.007812 -0.15625 11.28125 -0.15625 Z M 3.53125 -4.296875 L 7.40625 -4.296875 L 5.515625 -9.359375 Z M 3.53125 -4.296875 "/></g></g></g><g fill="#ffffff" fill-opacity="1"><g transform="translate(306.247694, 205.343262)"><g><path d="M 1.15625 -0.15625 C 1.425781 -0.15625 1.65625 -0.25 1.84375 -0.4375 C 2.039062 -0.632812 2.144531 -0.875 2.15625 -1.15625 L 2.15625 -9.875 C 2.144531 -10.144531 2.039062 -10.378906 1.84375 -10.578125 C 1.65625 -10.773438 1.425781 -10.875 1.15625 -10.875 L 0.9375 -10.875 L 0.9375 -11.03125 L 4.390625 -11.03125 L 4.390625 -10.875 L 4.1875 -10.875 C 3.8125 -10.875 3.523438 -10.707031 3.328125 -10.375 C 3.234375 -10.21875 3.1875 -10.050781 3.1875 -9.875 L 3.1875 -0.484375 L 5.4375 -0.484375 C 6.207031 -0.484375 6.796875 -0.65625 7.203125 -1 C 7.617188 -1.351562 7.960938 -1.867188 8.234375 -2.546875 L 8.390625 -2.546875 L 7.484375 0 L 0.9375 0 L 0.9375 -0.15625 Z M 1.15625 -0.15625 "/></g></g></g><g fill="#ffffff" fill-opacity="1"><g transform="translate(318.848462, 205.343262)"><g><path d="M 1.15625 -0.15625 C 1.425781 -0.15625 1.65625 -0.25 1.84375 -0.4375 C 2.039062 -0.632812 2.144531 -0.875 2.15625 -1.15625 L 2.15625 -9.96875 C 2.15625 -10.21875 2.054688 -10.429688 1.859375 -10.609375 C 1.660156 -10.785156 1.425781 -10.875 1.15625 -10.875 L 0.953125 -10.875 L 0.9375 -11.03125 L 5.5625 -11.03125 C 5.882812 -11.03125 6.238281 -11.0625 6.625 -11.125 C 7.007812 -11.1875 7.28125 -11.25 7.4375 -11.3125 L 7.4375 -9.328125 L 7.28125 -9.328125 L 7.28125 -9.609375 C 7.28125 -9.859375 7.191406 -10.070312 7.015625 -10.25 C 6.835938 -10.425781 6.628906 -10.519531 6.390625 -10.53125 L 3.1875 -10.53125 L 3.1875 -5.671875 L 5.84375 -5.671875 C 6.050781 -5.679688 6.226562 -5.757812 6.375 -5.90625 C 6.519531 -6.050781 6.59375 -6.234375 6.59375 -6.453125 L 6.59375 -6.671875 L 6.75 -6.671875 L 6.75 -4.1875 L 6.59375 -4.1875 L 6.59375 -4.421875 C 6.59375 -4.628906 6.519531 -4.804688 6.375 -4.953125 C 6.238281 -5.109375 6.066406 -5.191406 5.859375 -5.203125 L 3.1875 -5.203125 L 3.1875 -0.484375 L 5.4375 -0.484375 C 6.207031 -0.484375 6.796875 -0.65625 7.203125 -1 C 7.617188 -1.351562 7.960938 -1.867188 8.234375 -2.546875 L 8.390625 -2.546875 L 7.484375 0 L 0.9375 0 L 0.9375 -0.15625 Z M 1.15625 -0.15625 "/></g></g></g><g fill="#ffffff" fill-opacity="1"><g transform="translate(170.439699, 232.042617)"><g><path d="M 2.9375 -6.578125 C 2.082031 -5.460938 1.65625 -4.25 1.65625 -2.9375 C 1.65625 -1.394531 2.304688 -0.191406 3.609375 0.671875 C 4.367188 1.179688 5.226562 1.4375 6.1875 1.4375 C 7.15625 1.4375 8 1.242188 8.71875 0.859375 C 10.050781 0.171875 10.800781 -0.988281 10.96875 -2.625 C 10.976562 -2.738281 10.984375 -2.851562 10.984375 -2.96875 C 10.984375 -3.582031 10.8125 -4.242188 10.46875 -4.953125 C 10.132812 -5.660156 9.585938 -6.3125 8.828125 -6.90625 L 4.375 -10.421875 C 3.40625 -11.179688 2.921875 -12.160156 2.921875 -13.359375 C 2.921875 -14.566406 3.304688 -15.585938 4.078125 -16.421875 C 4.859375 -17.253906 5.910156 -17.671875 7.234375 -17.671875 C 7.890625 -17.671875 8.601562 -17.585938 9.375 -17.421875 L 10.375 -17.421875 L 10.421875 -14.375 L 10.171875 -14.375 C 10.148438 -15.164062 9.863281 -15.785156 9.3125 -16.234375 C 8.757812 -16.691406 8.066406 -16.921875 7.234375 -16.921875 C 6.398438 -16.921875 5.703125 -16.644531 5.140625 -16.09375 C 4.585938 -15.539062 4.3125 -14.832031 4.3125 -13.96875 C 4.3125 -13.101562 4.671875 -12.382812 5.390625 -11.8125 L 9.96875 -8.1875 C 11.789062 -6.75 12.703125 -5.019531 12.703125 -3 C 12.703125 -1.476562 12.097656 -0.171875 10.890625 0.921875 C 9.847656 1.859375 8.460938 2.328125 6.734375 2.328125 C 5.671875 2.328125 4.726562 2.128906 3.90625 1.734375 C 2.351562 1.003906 1.421875 -0.234375 1.109375 -1.984375 C 1.066406 -2.242188 1.046875 -2.578125 1.046875 -2.984375 C 1.046875 -3.390625 1.160156 -3.941406 1.390625 -4.640625 C 1.617188 -5.335938 2.0625 -6.039062 2.71875 -6.75 Z M 2.9375 -6.578125 "/></g></g></g><g fill="#ffffff" fill-opacity="1"><g transform="translate(189.918689, 232.042617)"><g><path d="M 6.578125 -0.25 L 6.90625 -0.25 L 6.90625 0 L 1.484375 0 L 1.484375 -0.25 L 1.8125 -0.25 C 2.238281 -0.25 2.601562 -0.398438 2.90625 -0.703125 C 3.207031 -1.003906 3.367188 -1.375 3.390625 -1.8125 L 3.390625 -15.546875 C 3.367188 -15.972656 3.207031 -16.332031 2.90625 -16.625 C 2.601562 -16.925781 2.238281 -17.078125 1.8125 -17.078125 L 1.484375 -17.078125 L 1.484375 -17.328125 L 6.90625 -17.328125 L 6.90625 -17.078125 L 6.578125 -17.078125 C 6.148438 -17.078125 5.785156 -16.925781 5.484375 -16.625 C 5.179688 -16.332031 5.019531 -15.972656 5 -15.546875 L 5 -1.8125 C 5 -1.375 5.15625 -1.003906 5.46875 -0.703125 C 5.78125 -0.398438 6.148438 -0.25 6.578125 -0.25 Z M 16.53125 0 L 15.46875 0 C 13.78125 0 12.539062 -0.46875 11.75 -1.40625 L 5.796875 -8.609375 L 11.625 -15.9375 C 11.757812 -16.101562 11.828125 -16.25 11.828125 -16.375 C 11.828125 -16.507812 11.800781 -16.628906 11.75 -16.734375 C 11.625 -16.984375 11.382812 -17.109375 11.03125 -17.109375 L 10.796875 -17.109375 L 10.796875 -17.328125 L 16.015625 -17.328125 L 16.015625 -17.109375 L 15.921875 -17.109375 C 14.828125 -17.109375 13.929688 -16.71875 13.234375 -15.9375 L 7.421875 -9.203125 L 14.1875 -1.265625 C 14.84375 -0.597656 15.625 -0.257812 16.53125 -0.25 Z M 16.53125 0 "/></g></g></g><g fill="#ffffff" fill-opacity="1"><g transform="translate(212.070687, 232.042617)"><g><path d="M 18.1875 -17.078125 L 17.796875 -17.078125 C 17.453125 -17.078125 17.148438 -16.960938 16.890625 -16.734375 C 16.640625 -16.515625 16.503906 -16.242188 16.484375 -15.921875 L 16.484375 -6.109375 C 16.484375 -4.179688 15.875 -2.625 14.65625 -1.4375 C 13.4375 -0.25 11.8125 0.34375 9.78125 0.34375 C 7.75 0.34375 6.097656 -0.242188 4.828125 -1.421875 C 3.566406 -2.597656 2.9375 -4.15625 2.9375 -6.09375 L 2.9375 -15.84375 C 2.9375 -16.332031 2.722656 -16.691406 2.296875 -16.921875 C 2.097656 -17.023438 1.878906 -17.078125 1.640625 -17.078125 L 1.234375 -17.078125 L 1.234375 -17.328125 L 6.265625 -17.328125 L 6.265625 -17.078125 L 5.859375 -17.078125 C 5.503906 -17.078125 5.203125 -16.960938 4.953125 -16.734375 C 4.703125 -16.515625 4.566406 -16.234375 4.546875 -15.890625 L 4.546875 -6.4375 C 4.546875 -4.632812 5.03125 -3.179688 6 -2.078125 C 6.96875 -0.972656 8.257812 -0.421875 9.875 -0.421875 C 11.488281 -0.421875 12.796875 -0.941406 13.796875 -1.984375 C 14.804688 -3.035156 15.3125 -4.410156 15.3125 -6.109375 L 15.3125 -15.890625 C 15.300781 -16.234375 15.171875 -16.515625 14.921875 -16.734375 C 14.671875 -16.960938 14.367188 -17.078125 14.015625 -17.078125 L 13.609375 -17.078125 L 13.609375 -17.328125 L 18.1875 -17.328125 Z M 18.1875 -17.078125 "/></g></g></g><g fill="#ffffff" fill-opacity="1"><g transform="translate(237.390687, 232.042617)"><g><path d="M 32.046875 3.375 C 31.640625 3.8125 31.050781 4.238281 30.28125 4.65625 C 29.507812 5.082031 28.738281 5.398438 27.96875 5.609375 C 27.207031 5.816406 26.53125 5.921875 25.9375 5.921875 C 24.019531 5.921875 22.207031 5.546875 20.5 4.796875 C 19.863281 4.515625 18.832031 4.003906 17.40625 3.265625 C 14.15625 1.597656 11.71875 0.617188 10.09375 0.328125 C 7.457031 0.191406 5.320312 -0.691406 3.6875 -2.328125 C 2.050781 -3.960938 1.234375 -6.097656 1.234375 -8.734375 C 1.234375 -11.378906 2.113281 -13.53125 3.875 -15.1875 C 5.632812 -16.84375 7.921875 -17.671875 10.734375 -17.671875 C 13.554688 -17.671875 15.847656 -16.84375 17.609375 -15.1875 C 19.378906 -13.53125 20.265625 -11.351562 20.265625 -8.65625 C 20.265625 -6.300781 19.578125 -4.332031 18.203125 -2.75 C 16.828125 -1.164062 14.992188 -0.179688 12.703125 0.203125 C 14.429688 0.722656 17.09375 1.753906 20.6875 3.296875 C 22.4375 4.015625 24.21875 4.375 26.03125 4.375 C 27.0625 4.375 28.09375 4.253906 29.125 4.015625 C 30.582031 3.628906 31.796875 2.984375 32.765625 2.078125 L 32.875 2.203125 C 32.738281 2.546875 32.460938 2.9375 32.046875 3.375 Z M 5.234375 -14.640625 C 3.835938 -13.128906 3.140625 -11.132812 3.140625 -8.65625 C 3.140625 -6.1875 3.835938 -4.191406 5.234375 -2.671875 C 6.628906 -1.148438 8.460938 -0.390625 10.734375 -0.390625 C 13.015625 -0.390625 14.851562 -1.148438 16.25 -2.671875 C 17.644531 -4.191406 18.34375 -6.1875 18.34375 -8.65625 C 18.34375 -11.132812 17.644531 -13.128906 16.25 -14.640625 C 14.851562 -16.160156 13.015625 -16.921875 10.734375 -16.921875 C 8.460938 -16.921875 6.628906 -16.160156 5.234375 -14.640625 Z M 5.234375 -14.640625 "/></g></g></g><g fill="#ffffff" fill-opacity="1"><g transform="translate(264.740176, 232.042617)"><g><path d="M 1.8125 -0.25 C 2.238281 -0.25 2.601562 -0.398438 2.90625 -0.703125 C 3.207031 -1.003906 3.367188 -1.375 3.390625 -1.8125 L 3.390625 -15.546875 C 3.367188 -15.972656 3.207031 -16.332031 2.90625 -16.625 C 2.601562 -16.925781 2.238281 -17.078125 1.8125 -17.078125 L 1.484375 -17.078125 L 1.484375 -17.328125 L 6.90625 -17.328125 L 6.90625 -17.078125 L 6.578125 -17.078125 C 6.148438 -17.078125 5.785156 -16.925781 5.484375 -16.625 C 5.179688 -16.332031 5.019531 -15.972656 5 -15.546875 L 5 -1.8125 C 5 -1.375 5.15625 -1.003906 5.46875 -0.703125 C 5.78125 -0.398438 6.148438 -0.25 6.578125 -0.25 L 6.90625 -0.25 L 6.90625 0 L 1.484375 0 L 1.484375 -0.25 Z M 1.8125 -0.25 "/></g></g></g></svg>