<svg xmlns="http://www.w3.org/2000/svg" xmlns:xlink="http://www.w3.org/1999/xlink" width="1366" zoomAndPan="magnify" viewBox="0 0 1024.5 576" height="768" preserveAspectRatio="xMidYMid meet" version="1.0"><defs><filter x="0%" y="0%" width="100%" height="100%" id="cfd31ed2be"><feColorMatrix values="0 0 0 0 1 0 0 0 0 1 0 0 0 0 1 0 0 0 1 0" color-interpolation-filters="sRGB"/></filter><g/><mask id="bb007bfb15"><g filter="url(#cfd31ed2be)"><rect x="-102.45" width="1229.4" fill="#000000" y="-57.6" height="691.2" fill-opacity="0.95"/></g></mask><clipPath id="2e2eac379e"><path d="M 1.132812 1.082031 L 714.808594 1.082031 L 714.808594 46.808594 L 1.132812 46.808594 Z M 1.132812 1.082031 " clip-rule="nonzero"/></clipPath><clipPath id="587b805152"><path d="M 686.589844 1.082031 L 641.753906 1.082031 L 641.753906 1.144531 L 57.515625 1.144531 L 57.515625 1.082031 L 29.324219 1.082031 C 13.777344 1.082031 1.132812 11.253906 1.132812 23.765625 C 1.132812 36.273438 13.777344 46.722656 29.324219 46.722656 L 686.589844 46.722656 C 702.136719 46.722656 714.78125 36.335938 714.78125 23.828125 C 714.78125 11.316406 702.136719 1.082031 686.589844 1.082031 Z M 686.589844 1.082031 " clip-rule="nonzero"/></clipPath><clipPath id="4c519335ed"><path d="M 22.136719 12.296875 L 134.082031 12.296875 L 134.082031 23.863281 L 22.136719 23.863281 Z M 22.136719 12.296875 " clip-rule="nonzero"/></clipPath><clipPath id="3c8c31a7da"><path d="M 127.085938 12.390625 L 29.324219 12.390625 C 25.398438 12.390625 22.257812 14.917969 22.257812 18.078125 C 22.257812 21.238281 25.398438 23.765625 29.324219 23.765625 L 57.515625 23.765625 L 57.515625 23.703125 L 127.007812 23.703125 C 130.933594 23.703125 134.074219 21.175781 134.074219 18.015625 C 134.074219 14.855469 130.933594 12.390625 127.085938 12.390625 Z M 127.085938 12.390625 " clip-rule="nonzero"/></clipPath><clipPath id="42f358c255"><rect x="0" width="715" y="0" height="47"/></clipPath><clipPath id="62210f3889"><path d="M 873.457031 62.160156 L 920.863281 62.160156 L 920.863281 109.566406 L 873.457031 109.566406 Z M 873.457031 62.160156 " clip-rule="nonzero"/></clipPath><clipPath id="a5c204dfea"><path d="M 897.160156 62.160156 C 884.070312 62.160156 873.457031 72.773438 873.457031 85.863281 C 873.457031 98.953125 884.070312 109.566406 897.160156 109.566406 C 910.25 109.566406 920.863281 98.953125 920.863281 85.863281 C 920.863281 72.773438 910.25 62.160156 897.160156 62.160156 Z M 897.160156 62.160156 " clip-rule="nonzero"/></clipPath><clipPath id="854d7999f4"><path d="M 887.710938 78.015625 L 906.648438 78.015625 L 906.648438 96.953125 L 887.710938 96.953125 Z M 887.710938 78.015625 " clip-rule="nonzero"/></clipPath><clipPath id="bff5deaab2"><path d="M 294.828125 198.503906 L 309.820312 198.503906 L 309.820312 211.996094 L 294.828125 211.996094 Z M 294.828125 198.503906 " clip-rule="nonzero"/></clipPath><clipPath id="8ae88a616c"><path d="M 591.550781 198.503906 L 606.542969 198.503906 L 606.542969 211.996094 L 591.550781 211.996094 Z M 591.550781 198.503906 " clip-rule="nonzero"/></clipPath><clipPath id="d1aea8cb69"><path d="M 294.828125 368 L 309.820312 368 L 309.820312 381.300781 L 294.828125 381.300781 Z M 294.828125 368 " clip-rule="nonzero"/></clipPath></defs><g mask="url(#bb007bfb15)"><g transform="matrix(1, 0, 0, 1, 131, 62)"><g clip-path="url(#42f358c255)"><g clip-path="url(#2e2eac379e)"><g clip-path="url(#587b805152)"><path fill="#333333" d="M 1.132812 1.082031 L 714.808594 1.082031 L 714.808594 46.644531 L 1.132812 46.644531 Z M 1.132812 1.082031 " fill-opacity="1" fill-rule="nonzero"/></g></g><g clip-path="url(#4c519335ed)"><g clip-path="url(#3c8c31a7da)"><path fill="#333333" d="M 1.132812 1.082031 L 714.808594 1.082031 L 714.808594 46.644531 L 1.132812 46.644531 Z M 1.132812 1.082031 " fill-opacity="1" fill-rule="nonzero"/></g></g></g></g></g><g clip-path="url(#62210f3889)"><g clip-path="url(#a5c204dfea)"><path fill="#333333" d="M 873.457031 62.160156 L 920.863281 62.160156 L 920.863281 109.566406 L 873.457031 109.566406 Z M 873.457031 62.160156 " fill-opacity="1" fill-rule="nonzero"/></g></g><g clip-path="url(#854d7999f4)"><path fill="#efefef" d="M 906.109375 94.726562 L 900.527344 89.144531 C 901.34375 87.988281 901.828125 86.585938 901.828125 85.0625 C 901.828125 81.175781 898.667969 78.015625 894.78125 78.015625 C 890.890625 78.015625 887.746094 81.175781 887.746094 85.0625 C 887.746094 88.953125 890.90625 92.109375 894.792969 92.109375 C 896.316406 92.109375 897.71875 91.628906 898.875 90.808594 L 904.457031 96.394531 C 904.691406 96.628906 904.984375 96.746094 905.292969 96.746094 C 905.597656 96.746094 905.890625 96.628906 906.125 96.394531 C 906.5625 95.941406 906.5625 95.195312 906.109375 94.726562 Z M 890.085938 85.0625 C 890.085938 82.476562 892.191406 80.371094 894.78125 80.371094 C 897.367188 80.371094 899.472656 82.476562 899.472656 85.0625 C 899.472656 86.25 899.035156 87.332031 898.316406 88.148438 C 898.230469 88.207031 898.140625 88.265625 898.054688 88.339844 C 897.980469 88.410156 897.910156 88.5 897.863281 88.601562 C 897.03125 89.320312 895.964844 89.757812 894.78125 89.757812 C 892.191406 89.773438 890.085938 87.667969 890.085938 85.0625 Z M 890.085938 85.0625 " fill-opacity="1" fill-rule="nonzero"/></g><g clip-path="url(#bff5deaab2)"><path fill="#f1ebe7" d="M 299.015625 198.703125 C 296.890625 198.703125 295.148438 200.300781 294.886719 202.351562 C 294.847656 202.519531 294.828125 202.695312 294.828125 202.890625 C 294.828125 205.28125 296.65625 207.441406 298.402344 209.042969 C 300.144531 210.648438 301.882812 211.707031 301.882812 211.707031 L 302.152344 211.875 L 302.425781 211.707031 C 302.425781 211.707031 304.164062 210.648438 305.910156 209.042969 C 307.652344 207.441406 309.480469 205.28125 309.480469 202.890625 C 309.480469 202.695312 309.460938 202.523438 309.425781 202.359375 C 309.160156 200.300781 307.421875 198.703125 305.292969 198.703125 C 303.992188 198.703125 302.917969 199.382812 302.152344 200.3125 C 301.390625 199.382812 300.3125 198.703125 299.015625 198.703125 Z M 299.015625 199.75 C 300.167969 199.75 301.15625 200.371094 301.703125 201.296875 L 302.152344 202.054688 L 302.605469 201.296875 C 303.152344 200.371094 304.140625 199.75 305.292969 199.75 C 306.902344 199.75 308.199219 200.949219 308.394531 202.503906 L 308.402344 202.546875 C 308.421875 202.644531 308.433594 202.753906 308.433594 202.890625 C 308.433594 204.722656 306.859375 206.75 305.199219 208.273438 C 303.679688 209.675781 302.394531 210.457031 302.152344 210.609375 C 301.914062 210.457031 300.628906 209.675781 299.105469 208.273438 C 297.449219 206.75 295.875 204.722656 295.875 202.890625 C 295.875 202.75 295.886719 202.640625 295.90625 202.546875 L 295.914062 202.523438 L 295.914062 202.496094 C 296.113281 200.949219 297.40625 199.75 299.015625 199.75 Z M 299.015625 199.75 " fill-opacity="1" fill-rule="nonzero"/></g><g fill="#f1ebe7" fill-opacity="1"><g transform="translate(419.270365, 97.857438)"><g><path d="M 2.84375 0 L 2.84375 -23 L 17.0625 -23 L 17.0625 -20.78125 L 5.453125 -20.78125 L 5.453125 -12.796875 L 16.421875 -12.796875 L 16.421875 -10.5625 L 5.453125 -10.5625 L 5.453125 0 Z M 2.84375 0 "/></g></g></g><g fill="#f1ebe7" fill-opacity="1"><g transform="translate(437.464434, 97.857438)"><g><path d="M 9.234375 0.21875 C 7.710938 0.21875 6.367188 -0.125 5.203125 -0.8125 C 4.035156 -1.5 3.132812 -2.476562 2.5 -3.75 C 1.863281 -5.019531 1.546875 -6.503906 1.546875 -8.203125 C 1.546875 -9.910156 1.863281 -11.398438 2.5 -12.671875 C 3.132812 -13.941406 4.035156 -14.921875 5.203125 -15.609375 C 6.367188 -16.296875 7.710938 -16.640625 9.234375 -16.640625 C 10.765625 -16.640625 12.113281 -16.296875 13.28125 -15.609375 C 14.445312 -14.921875 15.347656 -13.941406 15.984375 -12.671875 C 16.617188 -11.398438 16.9375 -9.910156 16.9375 -8.203125 C 16.9375 -6.503906 16.617188 -5.019531 15.984375 -3.75 C 15.347656 -2.476562 14.445312 -1.5 13.28125 -0.8125 C 12.113281 -0.125 10.765625 0.21875 9.234375 0.21875 Z M 9.234375 -1.9375 C 10.859375 -1.9375 12.097656 -2.46875 12.953125 -3.53125 C 13.816406 -4.601562 14.25 -6.160156 14.25 -8.203125 C 14.25 -10.191406 13.804688 -11.726562 12.921875 -12.8125 C 12.035156 -13.894531 10.804688 -14.4375 9.234375 -14.4375 C 7.640625 -14.4375 6.398438 -13.894531 5.515625 -12.8125 C 4.640625 -11.726562 4.203125 -10.191406 4.203125 -8.203125 C 4.203125 -6.160156 4.632812 -4.601562 5.5 -3.53125 C 6.375 -2.46875 7.617188 -1.9375 9.234375 -1.9375 Z M 9.234375 -1.9375 "/></g></g></g><g fill="#f1ebe7" fill-opacity="1"><g transform="translate(455.949351, 97.857438)"><g><path d="M 6.015625 -14.1875 L 6.015625 -5.296875 C 6.015625 -4.085938 6.257812 -3.238281 6.75 -2.75 C 7.25 -2.269531 7.953125 -2.03125 8.859375 -2.03125 C 9.460938 -2.03125 10.039062 -2.128906 10.59375 -2.328125 L 10.59375 -0.09375 C 9.925781 0.113281 9.175781 0.21875 8.34375 0.21875 C 6.789062 0.21875 5.578125 -0.210938 4.703125 -1.078125 C 3.828125 -1.953125 3.390625 -3.238281 3.390625 -4.9375 L 3.390625 -14.1875 L 0.21875 -14.1875 L 0.21875 -16.25 L 3.390625 -16.25 L 3.390625 -20.421875 L 6.015625 -21.359375 L 6.015625 -16.25 L 10.65625 -16.25 L 10.65625 -14.1875 Z M 6.015625 -14.1875 "/></g></g></g><g fill="#f1ebe7" fill-opacity="1"><g transform="translate(467.260057, 97.857438)"><g><path d="M 9.234375 0.21875 C 7.710938 0.21875 6.367188 -0.125 5.203125 -0.8125 C 4.035156 -1.5 3.132812 -2.476562 2.5 -3.75 C 1.863281 -5.019531 1.546875 -6.503906 1.546875 -8.203125 C 1.546875 -9.910156 1.863281 -11.398438 2.5 -12.671875 C 3.132812 -13.941406 4.035156 -14.921875 5.203125 -15.609375 C 6.367188 -16.296875 7.710938 -16.640625 9.234375 -16.640625 C 10.765625 -16.640625 12.113281 -16.296875 13.28125 -15.609375 C 14.445312 -14.921875 15.347656 -13.941406 15.984375 -12.671875 C 16.617188 -11.398438 16.9375 -9.910156 16.9375 -8.203125 C 16.9375 -6.503906 16.617188 -5.019531 15.984375 -3.75 C 15.347656 -2.476562 14.445312 -1.5 13.28125 -0.8125 C 12.113281 -0.125 10.765625 0.21875 9.234375 0.21875 Z M 9.234375 -1.9375 C 10.859375 -1.9375 12.097656 -2.46875 12.953125 -3.53125 C 13.816406 -4.601562 14.25 -6.160156 14.25 -8.203125 C 14.25 -10.191406 13.804688 -11.726562 12.921875 -12.8125 C 12.035156 -13.894531 10.804688 -14.4375 9.234375 -14.4375 C 7.640625 -14.4375 6.398438 -13.894531 5.515625 -12.8125 C 4.640625 -11.726562 4.203125 -10.191406 4.203125 -8.203125 C 4.203125 -6.160156 4.632812 -4.601562 5.5 -3.53125 C 6.375 -2.46875 7.617188 -1.9375 9.234375 -1.9375 Z M 9.234375 -1.9375 "/></g></g></g><g fill="#f1ebe7" fill-opacity="1"><g transform="translate(485.744974, 97.857438)"><g/></g></g><g fill="#f1ebe7" fill-opacity="1"><g transform="translate(494.179524, 97.857438)"><g><path d="M 21.03125 -11.984375 L 21.03125 -1.328125 C 20.125 -0.847656 18.9375 -0.460938 17.46875 -0.171875 C 16.007812 0.117188 14.523438 0.265625 13.015625 0.265625 C 10.734375 0.265625 8.765625 -0.203125 7.109375 -1.140625 C 5.453125 -2.078125 4.1875 -3.429688 3.3125 -5.203125 C 2.4375 -6.972656 2 -9.082031 2 -11.53125 C 2 -13.96875 2.4375 -16.0625 3.3125 -17.8125 C 4.1875 -19.570312 5.4375 -20.921875 7.0625 -21.859375 C 8.6875 -22.796875 10.609375 -23.265625 12.828125 -23.265625 C 14.441406 -23.265625 15.921875 -23.019531 17.265625 -22.53125 C 18.617188 -22.050781 19.78125 -21.328125 20.75 -20.359375 L 19.703125 -18.328125 C 18.585938 -19.273438 17.492188 -19.957031 16.421875 -20.375 C 15.359375 -20.789062 14.160156 -21 12.828125 -21 C 10.222656 -21 8.222656 -20.1875 6.828125 -18.5625 C 5.441406 -16.9375 4.75 -14.59375 4.75 -11.53125 C 4.75 -8.40625 5.457031 -6.03125 6.875 -4.40625 C 8.300781 -2.78125 10.375 -1.96875 13.09375 -1.96875 C 15.007812 -1.96875 16.847656 -2.269531 18.609375 -2.875 L 18.609375 -9.890625 L 12.890625 -9.890625 L 12.890625 -11.984375 Z M 21.03125 -11.984375 "/></g></g></g><g fill="#f1ebe7" fill-opacity="1"><g transform="translate(517.802733, 97.857438)"><g><path d="M 16.828125 -16.25 L 16.828125 0 L 14.25 0 L 14.25 -2.9375 C 13.769531 -1.925781 13.050781 -1.144531 12.09375 -0.59375 C 11.132812 -0.0507812 10.019531 0.21875 8.75 0.21875 C 7.3125 0.21875 6.046875 -0.125 4.953125 -0.8125 C 3.867188 -1.5 3.03125 -2.472656 2.4375 -3.734375 C 1.84375 -4.992188 1.546875 -6.460938 1.546875 -8.140625 C 1.546875 -9.816406 1.847656 -11.296875 2.453125 -12.578125 C 3.054688 -13.867188 3.898438 -14.867188 4.984375 -15.578125 C 6.078125 -16.285156 7.332031 -16.640625 8.75 -16.640625 C 10.019531 -16.640625 11.128906 -16.359375 12.078125 -15.796875 C 13.023438 -15.234375 13.75 -14.445312 14.25 -13.4375 L 14.25 -16.25 Z M 9.28125 -1.9375 C 10.875 -1.9375 12.097656 -2.476562 12.953125 -3.5625 C 13.816406 -4.65625 14.25 -6.203125 14.25 -8.203125 C 14.25 -10.210938 13.816406 -11.753906 12.953125 -12.828125 C 12.097656 -13.898438 10.875 -14.4375 9.28125 -14.4375 C 7.675781 -14.4375 6.425781 -13.878906 5.53125 -12.765625 C 4.644531 -11.660156 4.203125 -10.117188 4.203125 -8.140625 C 4.203125 -6.160156 4.640625 -4.628906 5.515625 -3.546875 C 6.398438 -2.472656 7.65625 -1.9375 9.28125 -1.9375 Z M 9.28125 -1.9375 "/></g></g></g><g fill="#f1ebe7" fill-opacity="1"><g transform="translate(537.192504, 97.857438)"><g><path d="M 2.515625 0 L 2.515625 -23.78125 L 5.140625 -23.78125 L 5.140625 0 Z M 2.515625 0 "/></g></g></g><g fill="#f1ebe7" fill-opacity="1"><g transform="translate(544.88378, 97.857438)"><g><path d="M 16.125 -8.203125 L 4.203125 -8.203125 C 4.222656 -6.140625 4.703125 -4.578125 5.640625 -3.515625 C 6.578125 -2.460938 7.9375 -1.9375 9.71875 -1.9375 C 11.613281 -1.9375 13.359375 -2.570312 14.953125 -3.84375 L 15.828125 -1.9375 C 15.117188 -1.269531 14.207031 -0.742188 13.09375 -0.359375 C 11.988281 0.0234375 10.851562 0.21875 9.6875 0.21875 C 7.144531 0.21875 5.148438 -0.523438 3.703125 -2.015625 C 2.265625 -3.515625 1.546875 -5.566406 1.546875 -8.171875 C 1.546875 -9.828125 1.867188 -11.296875 2.515625 -12.578125 C 3.160156 -13.867188 4.066406 -14.867188 5.234375 -15.578125 C 6.398438 -16.285156 7.722656 -16.640625 9.203125 -16.640625 C 11.359375 -16.640625 13.050781 -15.929688 14.28125 -14.515625 C 15.507812 -13.109375 16.125 -11.164062 16.125 -8.6875 Z M 9.234375 -14.609375 C 7.878906 -14.609375 6.773438 -14.195312 5.921875 -13.375 C 5.078125 -12.5625 4.535156 -11.410156 4.296875 -9.921875 L 13.765625 -9.921875 C 13.640625 -11.453125 13.191406 -12.613281 12.421875 -13.40625 C 11.660156 -14.207031 10.597656 -14.609375 9.234375 -14.609375 Z M 9.234375 -14.609375 "/></g></g></g><g fill="#f1ebe7" fill-opacity="1"><g transform="translate(562.463842, 97.857438)"><g><path d="M 10.078125 -16.640625 C 10.617188 -16.640625 11.113281 -16.578125 11.5625 -16.453125 L 11.5 -14.0625 C 11.007812 -14.226562 10.441406 -14.3125 9.796875 -14.3125 C 8.222656 -14.3125 7.050781 -13.820312 6.28125 -12.84375 C 5.519531 -11.863281 5.140625 -10.675781 5.140625 -9.28125 L 5.140625 0 L 2.515625 0 L 2.515625 -11.703125 C 2.515625 -13.378906 2.429688 -14.894531 2.265625 -16.25 L 4.75 -16.25 L 5.015625 -13.25 C 5.421875 -14.34375 6.078125 -15.179688 6.984375 -15.765625 C 7.890625 -16.347656 8.921875 -16.640625 10.078125 -16.640625 Z M 10.078125 -16.640625 "/></g></g></g><g fill="#f1ebe7" fill-opacity="1"><g transform="translate(574.162336, 97.857438)"><g><path d="M 2.515625 0 L 2.515625 -16.25 L 5.140625 -16.25 L 5.140625 0 Z M 2.265625 -23.140625 L 5.453125 -23.140625 L 5.453125 -20.171875 L 2.265625 -20.171875 Z M 2.265625 -23.140625 "/></g></g></g><g clip-path="url(#8ae88a616c)"><path fill="#f1ebe7" d="M 595.734375 198.703125 C 593.613281 198.703125 591.867188 200.300781 591.605469 202.351562 C 591.570312 202.519531 591.550781 202.695312 591.550781 202.890625 C 591.550781 205.28125 593.375 207.441406 595.121094 209.042969 C 596.863281 210.648438 598.605469 211.707031 598.605469 211.707031 L 598.875 211.875 L 599.144531 211.707031 C 599.144531 211.707031 600.886719 210.648438 602.632812 209.042969 C 604.375 207.441406 606.203125 205.28125 606.203125 202.890625 C 606.203125 202.695312 606.183594 202.523438 606.148438 202.359375 C 605.882812 200.300781 604.140625 198.703125 602.015625 198.703125 C 600.714844 198.703125 599.640625 199.382812 598.875 200.3125 C 598.109375 199.382812 597.035156 198.703125 595.734375 198.703125 Z M 595.734375 199.75 C 596.890625 199.75 597.878906 200.371094 598.425781 201.296875 L 598.875 202.054688 L 599.324219 201.296875 C 599.875 200.371094 600.863281 199.75 602.015625 199.75 C 603.621094 199.75 604.921875 200.949219 605.113281 202.503906 L 605.121094 202.546875 C 605.144531 202.644531 605.15625 202.753906 605.15625 202.890625 C 605.15625 204.722656 603.582031 206.75 601.921875 208.273438 C 600.402344 209.675781 599.117188 210.457031 598.875 210.609375 C 598.632812 210.457031 597.351562 209.675781 595.824219 208.273438 C 594.171875 206.75 592.597656 204.722656 592.597656 202.890625 C 592.597656 202.75 592.609375 202.640625 592.628906 202.546875 L 592.636719 202.523438 L 592.636719 202.496094 C 592.832031 200.949219 594.128906 199.75 595.734375 199.75 Z M 595.734375 199.75 " fill-opacity="1" fill-rule="nonzero"/></g><g clip-path="url(#d1aea8cb69)"><path fill="#f1ebe7" d="M 299.015625 368.007812 C 296.890625 368.007812 295.148438 369.605469 294.886719 371.652344 C 294.847656 371.820312 294.828125 371.996094 294.828125 372.195312 C 294.828125 374.585938 296.65625 376.746094 298.402344 378.347656 C 300.144531 379.953125 301.882812 381.011719 301.882812 381.011719 L 302.152344 381.179688 L 302.425781 381.011719 C 302.425781 381.011719 304.164062 379.953125 305.910156 378.347656 C 307.652344 376.746094 309.480469 374.585938 309.480469 372.195312 C 309.480469 371.996094 309.460938 371.824219 309.425781 371.664062 C 309.160156 369.605469 307.421875 368.007812 305.292969 368.007812 C 303.992188 368.007812 302.917969 368.6875 302.152344 369.617188 C 301.390625 368.6875 300.3125 368.007812 299.015625 368.007812 Z M 299.015625 369.054688 C 300.167969 369.054688 301.15625 369.675781 301.703125 370.597656 L 302.152344 371.359375 L 302.605469 370.597656 C 303.152344 369.675781 304.140625 369.054688 305.292969 369.054688 C 306.902344 369.054688 308.199219 370.25 308.394531 371.808594 L 308.402344 371.851562 C 308.421875 371.949219 308.433594 372.058594 308.433594 372.195312 C 308.433594 374.023438 306.859375 376.054688 305.199219 377.578125 C 303.679688 378.980469 302.394531 379.761719 302.152344 379.914062 C 301.914062 379.761719 300.628906 378.980469 299.105469 377.578125 C 297.449219 376.054688 295.875 374.023438 295.875 372.195312 C 295.875 372.054688 295.886719 371.945312 295.90625 371.851562 L 295.914062 371.824219 L 295.914062 371.800781 C 296.113281 370.25 297.40625 369.054688 299.015625 369.054688 Z M 299.015625 369.054688 " fill-opacity="1" fill-rule="nonzero"/></g></svg>